<?xml version="1.0" standalone="no"?>
<!DOCTYPE svg PUBLIC "-//W3C//DTD SVG 1.1//EN" "http://www.w3.org/Graphics/SVG/1.1/DTD/svg11.dtd" >
<svg>
<metadata>
Created by FontForge 20090914 at Thu Feb 23 16:21:39 2012
 By ffonts
Cambridge Fontworks
</metadata>
<defs>
<font id="MicrostyleBoldExtendedATT" horiz-adv-x="1593" >
  <font-face 
    font-family="Green Mountain 3"
    font-weight="7"
    font-stretch="extra-expanded"
    units-per-em="2048"
    panose-1="0 0 0 0 0 0 0 0 0 0"
    ascent="1638"
    descent="-410"
    x-height="850"
    cap-height="1201"
    bbox="-471 -512 2433 1754"
    underline-thickness="105"
    underline-position="-355"
    unicode-range="U+0020-U+F002"
  />
<missing-glyph horiz-adv-x="1024" 
d="M64 0v1754h896v-1754h-896zM896 64v1626h-768v-1626h768z" />
    <glyph glyph-name=".notdef" horiz-adv-x="1024" 
d="M64 0v1754h896v-1754h-896zM896 64v1626h-768v-1626h768z" />
    <glyph glyph-name=".null" horiz-adv-x="0" 
 />
    <glyph glyph-name="nonmarkingreturn" horiz-adv-x="910" 
 />
    <glyph glyph-name="space" unicode=" " horiz-adv-x="910" 
 />
    <glyph glyph-name="exclam" unicode="!" horiz-adv-x="683" 
d="M520 336v-336h-352v336h352zM524 1206l-21 -752h-321l-21 752h363z" />
    <glyph glyph-name="quotedbl" unicode="&#x22;" horiz-adv-x="1024" 
d="M443 1201l-18 -611h-251l-13 611h282zM859 1201l-20 -611h-246l-16 611h282z" />
    <glyph glyph-name="numbersign" unicode="#" horiz-adv-x="1441" 
d="M46 486h302l32 243h-302l34 252h302l28 225h236l-29 -225h242l29 225h233l-29 -225h311l-34 -252h-311l-32 -243h311l-35 -252h-311l-33 -248h-233l34 248h-242l-34 -248h-236l34 248h-301zM583 486h242l33 243h-243z" />
    <glyph glyph-name="dollar" unicode="$" horiz-adv-x="1745" 
d="M402 415v-30q0 -96 53 -118q29 -12 139 -12l99 -1h94v236h-67q-60 0 -107 2t-126 9q-51 0 -106 9q-32 5 -82 18q-98 24 -152 128q-41 79 -41 199q0 257 163 323q110 42 383 42h135v86h170v-86l261 -5q88 0 154.5 -9.5t125 -30.5t91.5 -79t33 -151l3 -104h-310
q-9 54 -33.5 82t-66.5 28l-56 1h-202v-204l183 -6q98 0 154.5 -3.5t116.5 -10.5q123 -12 190 -119q55 -89 55 -223q0 -202 -80 -288q-45 -49 -114.5 -76t-165.5 -27q-34 0 -111 -3.5t-110 -3.5l-118 -2v-126h-170v126l-108 2q-85 0 -160.5 5.5t-150.5 16.5q-207 30 -252 157
q-23 58 -23 146l-1 102h310zM957 490v-236h95l119 1q175 0 175 115q0 119 -185 119l-85 1h-119zM787 952h-252q-119 0 -119 -102q0 -98 127 -98q20 0 63 -1t66 -1h115v202z" />
    <glyph glyph-name="percent" unicode="%" horiz-adv-x="2276" 
d="M1518 1220h197l-970 -1255h-195zM1373 526q28 116 197 140q45 6 104.5 9t156.5 3h66q94 0 155 -23.5t88 -69.5q46 -80 46 -265q0 -60 -1.5 -82.5t-6.5 -64.5q-12 -116 -83 -159q-30 -19 -77 -31t-103 -12q-31 0 -88 -3t-82 -3q-27 0 -79 3t-77 3q-29 0 -53.5 4.5
t-51.5 14.5q-96 30 -119 156q-8 41 -12 88t-4 95q0 104 24 197zM1544 342q0 -159 42 -185q32 -17 195 -17q136 0 172 29q38 27 38 166q0 114 -53 143q-45 25 -158 25q-118 0 -170 -20q-66 -24 -66 -141zM104 1068q27 112 185 137q45 7 105.5 11t144.5 4l89 -1q62 0 106 -9.5
t79 -26.5q71 -36 92 -158q12 -75 12 -161q0 -123 -16 -191q-24 -107 -117 -136q-35 -11 -67.5 -17.5t-70.5 -6.5q-31 0 -87 -3t-82 -3q-27 0 -79 3t-78 3q-78 0 -130.5 29t-75.5 82q-34 83 -34 245q0 104 24 199zM275 877q0 -156 47 -180q33 -15 193 -15q131 0 169 29.5
t38 166.5q0 108 -50 140q-44 27 -152 27q-118 0 -181.5 -19.5t-63.5 -148.5z" />
    <glyph glyph-name="ampersand" unicode="&#x26;" horiz-adv-x="1745" 
d="M261 729q-29 27 -41 66q-17 52 -17 120q0 71 12 130q27 132 223 154q57 6 148.5 11t190.5 5q52 0 132.5 -2.5t95.5 -2.5q53 0 101.5 -5.5t98.5 -16.5q99 -19 140 -72q19 -25 31 -64t12 -88l6 -151h-300q0 70 -32 95q-13 10 -39 16.5t-60 6.5l-145 4q-118 0 -155 -4
q-63 0 -95.5 -16.5t-32.5 -44.5q0 -43 59 -68l36 -16l572 -299l4 41q0 30 1 61l2 60h292l1 -87v-16v-14v-12q0 -21 -1 -41.5t-4 -40.5l-11 -99l239 -127l-111 -226l-220 117q-78 -63 -147 -81q-60 -13 -168 -24q-66 -6 -142.5 -9t-194.5 -3l-154 2q-93 0 -167.5 8.5
t-129.5 22.5q-165 39 -206 192q-20 71 -20 158q0 150 50 222q28 43 80 69t121 26q-36 22 -55 43zM582 526l-25 13t-28 11.5t-32 5.5q-47 0 -72.5 -23.5t-25.5 -70.5l-2 -44q0 -108 46 -132q38 -20 146 -20h423l54 -1l20 -4z" />
    <glyph glyph-name="quotesingle" unicode="'" horiz-adv-x="607" 
d="M424 1201l-16 -611h-250l-16 611h282z" />
    <glyph glyph-name="parenleft" unicode="(" horiz-adv-x="759" 
d="M700 1006h-118q-88 0 -109 -79q-9 -35 -9 -146v-864q0 -52 38.5 -77.5t112.5 -25.5h85v-209h-297q-139 0 -215 51t-76 151l-2 94v1021q0 31 1 58.5t4 49.5q15 135 143 168q70 17 237 17h205v-209z" />
    <glyph glyph-name="parenright" unicode=")" horiz-adv-x="759" 
d="M67 -186h119q87 0 108 78q9 32 9 146v864q0 51 -38.5 77.5t-111.5 26.5h-86v209h296q50 0 89 -4q60 0 102.5 -24.5t69.5 -70.5q16 -27 24.5 -77.5t8.5 -120.5v-1021q0 -100 -14 -145q-21 -75 -83.5 -111t-286.5 -36h-206v209z" />
    <glyph glyph-name="asterisk" unicode="*" horiz-adv-x="1441" 
d="M447 1063l188 -64v202h198v-202l188 64l60 -183l-183 -61l115 -172l-153 -106l-125 174l-127 -174l-153 106l115 172l-183 61z" />
    <glyph glyph-name="plus" unicode="+" horiz-adv-x="2276" 
d="M1025 587v353h233v-353h447v-233h-447v-353h-233v353h-447v233h447z" />
    <glyph glyph-name="comma" unicode="," horiz-adv-x="607" 
d="M488 39l-3 -116q0 -75 -22.5 -128.5t-61.5 -81.5q-59 -41 -227 -41l-81 1v190l53 -1q69 0 85 38q5 16 8 39.5t3 60.5h-106v336h352v-297z" />
    <glyph glyph-name="hyphen" unicode="-" horiz-adv-x="910" 
d="M830 573v-271h-755v271h755z" />
    <glyph glyph-name="period" unicode="." horiz-adv-x="607" 
d="M481 336v-336h-352v336h352z" />
    <glyph glyph-name="slash" unicode="/" horiz-adv-x="1366" 
d="M948 1220h275l-810 -1236h-269z" />
    <glyph glyph-name="zero" unicode="0" horiz-adv-x="1669" 
d="M215 1103q53 48 133 76q91 31 210 31q51 0 142 5t132 5q42 0 100 -3q136 -7 174 -7q59 0 119 -11q40 -7 106.5 -26t117.5 -70q40 -42 62 -96q25 -71 38 -168q7 -70 10.5 -136t3.5 -135q0 -122 -8 -202q-17 -177 -92 -261q-69 -79 -254 -103q-36 -4 -72.5 -8.5t-69.5 -4.5
q-43 0 -83 -1l-77 -2q-190 0 -314 5t-192 18q-152 30 -218 117q-58 80 -73 240q-9 99 -9 210q0 425 114 527zM445 636l1 -157q0 -146 143 -169q88 -13 245 -13q28 0 93 4t103 4q46 0 80 10.5t57 31.5t36.5 53.5t13.5 78.5l2 110l-2 126q0 175 -196 192l-190 2l-189 -2
q-95 0 -145.5 -49.5t-50.5 -142.5z" />
    <glyph glyph-name="one" unicode="1" horiz-adv-x="1138" 
d="M517 1206h441v-1206h-344v930l-418 -300l-162 254z" />
    <glyph glyph-name="two" unicode="2" 
d="M98 755l1 161q0 96 44 160.5t129 97.5q51 18 137 30.5t194 12.5l170 3l196 -3q57 0 103 -2.5t103 -7.5q145 -13 227 -70q43 -29 67 -82.5t24 -130.5l4 -117q0 -74 -9 -134q-12 -82 -70.5 -136.5t-132.5 -72.5q-62 -15 -175 -25.5t-211 -10.5l-279 -19q-33 0 -63.5 -4.5
t-57.5 -11.5q-30 -6 -47 -27t-17 -58l-4 -46h1074v-262h-1418v215q0 21 1 66t1 69q0 62 9.5 105.5t28.5 73.5q48 78 145 109q53 17 130 28q109 16 238 16l304 19q48 0 83.5 5.5t64.5 14.5q61 18 61 100q0 106 -74 123q-31 7 -70 10.5t-86 3.5h-80l-161 -3q-56 0 -90.5 -4
t-60.5 -12q-71 -21 -81 -115l-8 -69h-344z" />
    <glyph glyph-name="three" unicode="3" 
d="M408 425l1 -46q0 -83 51 -109q47 -22 125 -22l189 3l122 1h28h22h18h15h12q20 0 34.5 1t24.5 4q96 14 96 104q0 74 -69 95q-17 4 -48 7t-70 3h-321v262h300h17h14h12q43 0 59 5q81 14 81 107q0 117 -131 117l-130 1q-58 0 -153 -2.5t-118 -2.5q-95 0 -129 -31
q-39 -37 -39 -125h-344l3 116q0 100 48 166t139 95q63 21 150.5 33t193.5 12l135 1q270 0 455 -22q146 -16 204 -90q29 -36 44.5 -90t15.5 -125q0 -147 -50 -207q-44 -54 -193 -86q150 -27 201 -72q67 -61 67 -199q0 -158 -61 -225q-42 -48 -98 -69.5t-119 -30.5
q-33 -4 -70 -7.5t-66 -3.5q-44 0 -142 -3.5t-146 -3.5q-338 0 -464 18.5t-192.5 100t-66.5 224.5l-1 96h344z" />
    <glyph glyph-name="four" unicode="4" 
d="M925 1206h416v-720h179v-262h-179v-224h-344v224h-930v442zM323 486h674v425z" />
    <glyph glyph-name="five" unicode="5" 
d="M424 370q0 -10 2 -21.5t5 -22.5q10 -56 64 -71q24 -6 102 -6l204 -1h241q118 0 118 153q0 110 -63 137q-21 8 -61.5 13t-97.5 5h-224q-33 0 -89.5 -2.5t-69.5 -2.5q-30 0 -46 -2.5t-33 -9.5q-29 -12 -47 -59h-305l9 726h1314v-262h-1018v-226q83 78 186 90q40 4 98 7
t115 3q335 0 462.5 -33.5t173.5 -133.5q19 -43 29.5 -99t10.5 -127q0 -111 -24 -204q-15 -62 -56 -108q-72 -87 -293 -112q-131 -15 -320 -15q-50 0 -143 3.5t-123 3.5q-64 0 -118 6.5t-111 19.5q-189 34 -223 184q-13 55 -13 114v53h344z" />
    <glyph glyph-name="six" unicode="6" 
d="M1132 866q-14 42 -51 65.5t-93 23.5l-155 3q-189 0 -230 -4q-74 0 -113.5 -35.5t-39.5 -97.5l-1 -81v-90q74 74 162 93q8 2 44 7t46 6l189 5l232 -2q103 0 177.5 -21.5t118.5 -63.5q38 -34 57.5 -107.5t19.5 -187.5q0 -66 -3 -109t-11 -72q-22 -88 -105 -144
q-42 -28 -132 -45t-218 -17l-201 -6q-59 0 -94 1q-139 4 -145 4q-106 0 -186.5 17t-139.5 46q-73 36 -113 106.5t-40 171.5l-2 91v199v124q0 39 0.5 87t6.5 82q16 128 91 188q93 77 291 99q128 13 133 13q40 3 82 3l129 2q146 0 242.5 -6t158.5 -18q125 -23 175 -89
q46 -59 58 -190l4 -51h-344zM444 378q0 -129 114 -129h90l150 -1h167l71 1q115 0 115 124q0 51 -31 88t-82 37l-91 1h-151l-147 -2l-94 -1q-36 0 -56 -9q-55 -28 -55 -109z" />
    <glyph glyph-name="seven" unicode="7" 
d="M107 1206h1407v-280l-785 -926h-437l761 895h-946v311z" />
    <glyph glyph-name="eight" unicode="8" 
d="M1243 611l80 -21q128 -37 158 -155q13 -59 13 -114q0 -156 -47 -219q-61 -83 -197 -101q-117 -15 -291 -15q-552 0 -673 32q-154 39 -182 181q-12 57 -12 120q0 134 56 198.5t190 92.5q-20 4 -39 8.5t-40 10.5q-152 39 -152 252q0 178 69 246q37 36 98 58t145 22
q53 0 131 4q176 9 224 9q316 0 467 -24.5t200.5 -97t49.5 -224.5q0 -183 -102 -225q-24 -12 -52 -18l-94 -20v0zM601 480q-78 0 -113 -19q-52 -28 -52 -97q0 -97 102 -111q28 -5 76 -5h350q98 0 125 12q61 27 61 103q0 117 -186 117h-363zM632 958q-78 0 -121 -13
q-60 -15 -60 -94q0 -91 100 -103q22 -4 42 -5t49 -1h305q92 0 128 9q72 17 72 95q0 112 -187 112h-328z" />
    <glyph glyph-name="nine" unicode="9" 
d="M428 334q11 -83 110 -83l175 -3q95 0 150 1.5t126 4.5q46 0 76.5 11.5t48.5 33.5q31 40 31 134l2 105l-29 -28q-42 -36 -93 -47t-98.5 -16.5t-101.5 -5.5l-231 -4q-259 0 -357 61q-135 82 -135 321q0 44 3 80.5t11 73.5q36 192 299 228q66 9 166.5 14t239.5 5
q384 0 520 -72q112 -60 136 -215q14 -90 14 -264q0 -40 -2.5 -125t-2.5 -113q0 -51 -4.5 -92.5t-14.5 -88.5q-30 -156 -177 -218q-42 -17 -114 -27.5t-174 -10.5l-282 -8q-72 0 -164 3.5t-99 3.5q-43 0 -84 6t-84 17q-115 24 -169 114q-36 59 -36 204h344zM446 831
q0 -118 113 -128q35 -4 88 -4h175l171 1q121 0 146 66q3 9 5 21t2 29q0 66 -31.5 102.5t-93.5 36.5q-51 0 -106.5 1l-106.5 2h-199q-163 0 -163 -127z" />
    <glyph glyph-name="colon" unicode=":" horiz-adv-x="683" 
d="M167 336h352v-336h-352v336zM519 850v-336h-352v336h352z" />
    <glyph glyph-name="semicolon" unicode=";" horiz-adv-x="683" 
d="M120 -137l52 -1q68 0 86 37q11 28 11 101h-106v336h352v-297l-3 -116q0 -78 -21.5 -131t-61.5 -80q-59 -40 -228 -40l-81 1v190zM515 850v-336h-352v336h352z" />
    <glyph glyph-name="less" unicode="&#x3c;" horiz-adv-x="2048" 
d="M412 548v150l1225 551v-196l-973 -432l973 -425v-196z" />
    <glyph glyph-name="equal" unicode="=" horiz-adv-x="2276" 
d="M1702 379v-233h-1126v233h1126zM1702 804v-233h-1126v233h1126z" />
    <glyph glyph-name="greater" unicode="&#x3e;" horiz-adv-x="2048" 
d="M1637 701v-150l-1225 -551v196l974 432l-974 425v196z" />
    <glyph glyph-name="question" unicode="?" horiz-adv-x="1290" 
d="M749 336v-336h-352v336h352zM40 852q0 98 21.5 167t64.5 107.5t113.5 61.5t167.5 23q59 0 140 4.5t95 4.5l135 -3q40 0 55 -1t88.5 -8.5t122.5 -20.5q142 -37 179 -173q20 -77 20 -155q0 -168 -65 -239q-26 -29 -88 -44l-127 -23l-184 -28l-31 -7q-14 -8 -23 -39l-6 -25
h-310v28q0 77 8 120q15 86 79 116q41 17 109 27l229 34q54 9 76.5 26t22.5 71q0 29 -15 49.5t-42 31.5q-14 5 -40.5 9.5t-63.5 4.5l-159 1l-91 -2q-46 0 -80 -7q-89 -14 -89 -129l-2 -58h-310v76z" />
    <glyph glyph-name="at" unicode="@" horiz-adv-x="2276" 
d="M1591 1168v-560q0 -87 4 -111q12 -76 66 -76q84 0 115 145q20 94 20 190q0 469 -352 606q-123 48 -260 48q-116 0 -214 -29t-186 -88q-178 -121 -257 -326q-48 -126 -48 -269q0 -315 217 -507q107 -98 241 -136q117 -35 262 -35q158 0 301 39q29 6 95 30v-260l-63 -13
q-118 -23 -279 -23q-744 0 -973 548q-75 177 -75 374q0 196 74 367t216 299q129 117 303 185q184 71 394 71q390 0 630 -236q119 -116 183 -274q32 -79 48.5 -165t16.5 -176q0 -224 -102 -383q-122 -188 -332 -188q-196 0 -261 138l-15 37l-20 -34q-87 -133 -263 -133
q-186 0 -310 151q-106 132 -106 333q0 76 15 143.5t48 131.5q46 95 140.5 155t202.5 60q150 0 233 -113l17 -26v110h274zM935 700q0 -31 4 -61t13 -60q41 -150 170 -150q131 0 171 146q9 35 15 78t6 84q0 46 -7 87t-22 75q-38 92 -145 92q-104 0 -161 -100
q-21 -37 -32.5 -86.5t-11.5 -104.5z" />
    <glyph glyph-name="A" unicode="A" horiz-adv-x="1897" 
d="M700 1201h465l663 -1201h-415l-112 206h-741l-108 -206h-415zM706 486h446l-218 410z" />
    <glyph glyph-name="B" unicode="B" horiz-adv-x="1745" 
d="M1016 1201l129 -1q86 0 184 -13q203 -25 247 -180q17 -62 17 -125q0 -201 -137 -256l-47 -16l57 -13q170 -45 170 -271q0 -39 -4 -68t-16 -64q-52 -168 -243 -189q-22 -3 -60 -4t-45 -1h-1152v1201h900zM482 472v-192h656q132 0 132 91q0 62 -54 89l-23 8t-29 4h-682z
M482 921v-189h611q36 0 68 6q66 15 66 90q0 93 -171 93h-574z" />
    <glyph glyph-name="C" unicode="C" horiz-adv-x="1745" 
d="M1187 880q-45 25 -128 25h-223q-85 0 -129.5 -1t-80.5 -2q-55 0 -91.5 -22.5t-51.5 -64.5q-8 -22 -12 -63.5t-4 -111.5q0 -182 12 -232q29 -111 182 -111l242 -1l202 -1q131 0 145 124l2 44h366v-59q0 -147 -32 -231q-12 -38 -42 -67q-83 -86 -303 -107q-45 -4 -98 -8
t-125 -4l-141 -1q-81 0 -138 1l-109 2q-34 0 -74.5 3.5t-86.5 9.5q-78 9 -144 33q-79 24 -124 81q-68 78 -84 189t-16 269q0 164 11 280q0 33 7.5 64.5t21.5 65.5q63 169 273 205q162 26 445 26h167q307 0 432 -61q90 -44 128 -171q16 -56 16 -218h-366q0 88 -49 115z" />
    <glyph glyph-name="D" unicode="D" horiz-adv-x="1821" 
d="M1234 1201q35 0 68 -1t63 -4q31 0 60.5 -7.5t59.5 -21.5q72 -30 112 -80q81 -104 98 -256q6 -67 9 -127.5t3 -150.5q0 -159 -12 -225q-21 -129 -85 -207t-192 -106q-68 -15 -223 -15h-1078v1201h1117zM483 891v-581h654q116 0 157 47q20 22 32.5 63t12.5 98l2 99
q0 48 -3 85.5t-11 73.5q-22 115 -190 115h-654z" />
    <glyph glyph-name="E" unicode="E" 
d="M125 1201h1321v-280h-955v-164h902v-260h-902v-217h966v-280h-1332v1201z" />
    <glyph glyph-name="F" unicode="F" horiz-adv-x="1441" 
d="M1377 1201v-280h-891v-230h842v-280h-842v-411h-366v1201h1257z" />
    <glyph glyph-name="G" unicode="G" horiz-adv-x="1745" 
d="M1267 784q0 56 -30 87t-84 31q-53 0 -119 1l-128 2l-228 -1q-112 0 -164 -35q-29 -20 -45.5 -57.5t-16.5 -92.5l-4 -129q0 -88 8 -148q13 -128 120 -140q45 -6 138 -6h146l249 1q169 0 169 108v39h-456v245h822v-43q0 -314 -11.5 -393.5t-79.5 -154.5q-60 -66 -158 -84
q-32 -6 -68 -11.5t-67 -5.5q-29 0 -240 -7q-121 -4 -187 -4l-255 2q-159 0 -240 25q-128 37 -188 143q-29 49 -46 119.5t-17 156.5q0 67 -1 108q-4 165 -4 180l1 89q0 35 6 70t20 72q66 203 309 244q29 5 68.5 10t61.5 5l302 5q92 0 190 -1.5t208 -2.5q189 0 287 -88
t98 -258v-81h-366z" />
    <glyph glyph-name="H" unicode="H" horiz-adv-x="1821" 
d="M130 1201h366v-449h814v449h366v-1201h-366v442h-814v-442h-366v1201z" />
    <glyph glyph-name="I" unicode="I" horiz-adv-x="683" 
d="M146 1201h366v-1201h-366v1201z" />
    <glyph glyph-name="J" unicode="J" horiz-adv-x="1441" 
d="M426 524l3 -42q0 -50 5.5 -84t15 -53.5t39.5 -32t81 -12.5l135 -4q136 0 179 25q25 15 38.5 56.5t13.5 110.5v713h366v-708l-1 -103q0 -126 -41 -210t-115 -124q-47 -26 -95 -36q-70 -16 -174 -25t-234 -9q-292 0 -411 54q-171 79 -171 352v132h366z" />
    <glyph glyph-name="K" unicode="K" horiz-adv-x="1745" 
d="M517 1201v-449h163l469 449h523l-675 -602l757 -599h-533l-549 442h-155v-442h-366v1201h366z" />
    <glyph glyph-name="L" unicode="L" horiz-adv-x="1366" 
d="M502 1201v-891h805v-310h-1171v1201h366z" />
    <glyph glyph-name="M" unicode="M" horiz-adv-x="2276" 
d="M124 1201h582l419 -772l428 772h582v-1201h-366v876l-499 -876h-289l-491 880v-880h-366v1201z" />
    <glyph glyph-name="N" unicode="N" horiz-adv-x="1897" 
d="M695 1201l692 -896v896h366v-1201h-582l-692 898v-898h-366v1201h582z" />
    <glyph glyph-name="O" unicode="O" horiz-adv-x="1821" 
d="M618 -11q-41 0 -84.5 1.5l-70.5 2.5q-84 0 -149 27t-112 78q-40 40 -57 83q-24 55 -37 152.5t-13 237.5l2 156q0 79 9.5 142.5t28.5 122.5q42 132 184 184q52 19 185 29t350 10l263 -1q276 0 370 -33q190 -66 218 -280q3 -29 6 -78t3 -97l3 -198q0 -125 -9 -201.5
t-38 -141.5q-42 -97 -127.5 -147.5t-213.5 -50.5l-186 -1zM1085 296q87 0 131 6q73 10 104 71t31 261q0 102 -10 147q-16 84 -90 105q-24 6 -55 11t-61 5l-234 3h-132q-31 0 -83.5 -2.5t-64.5 -2.5q-45 0 -76 -15.5t-52 -46.5q-32 -48 -32 -290q0 -170 56 -214
q40 -34 223 -34z" />
    <glyph glyph-name="P" unicode="P" horiz-adv-x="1669" 
d="M1005 1201l152 -2q46 0 88 -5.5t88 -16.5q166 -39 208 -208q25 -99 25 -212q0 -325 -146 -414q-57 -36 -144 -47q-29 -3 -57.5 -5t-58.5 -2h-660v-289h-366v1201h871zM500 891v-292h461l114 2q77 0 101 42t24 111q0 64 -26.5 98.5t-78.5 34.5l-156 4h-439z" />
    <glyph glyph-name="Q" unicode="Q" horiz-adv-x="1897" 
d="M1549 49q-76 -47 -173 -56q-20 0 -85.5 -2.5t-97.5 -2.5l-295 -2l-235 2q-138 0 -217 8q-119 12 -200 72q-74 53 -98 115q-22 64 -30 145.5t-11.5 152.5t-3.5 159l2 153q0 305 230 379q52 16 102.5 25.5t103.5 9.5q58 0 150 2l189 4t178 2q351 0 465 -51
q194 -88 194 -398l-1 -284l-1 -98l-6 -71l144 -86l-136 -241l-135 85zM874 514l154 245l324 -219l-1 89q0 96 -15 165q-18 80 -103 101q-20 4 -57 7t-96 3l-422 -3q-88 0 -125 -29q-45 -36 -58 -113l-6 -160q0 -131 11 -183q16 -92 131 -110q85 -11 366 -11q36 0 120.5 1
t133.5 1z" />
    <glyph glyph-name="R" unicode="R" horiz-adv-x="1745" 
d="M1183 1201q60 0 82.5 -1.5t66.5 -6.5q168 -17 229 -122q23 -40 34 -84q9 -43 14 -87.5t5 -91.5q0 -149 -40 -223t-190 -119q151 -42 187.5 -102.5t36.5 -216.5v-147h-366l-3 111q0 113 -27 148q-30 39 -142 39h-581v-298h-366v1201h1060zM489 891v-283h512q17 0 55.5 1
t60.5 1q23 0 41.5 3t34.5 11q55 24 55 130q0 72 -38 107q-29 27 -111 27l-107 3h-503z" />
    <glyph glyph-name="S" unicode="S" horiz-adv-x="1669" 
d="M442 407q0 -95 49 -122q18 -9 51.5 -14.5t86.5 -5.5l104 -3h268h97q111 0 111 94q0 79 -76 91l-74 5l-74 3l-220 9l-107 6l-184 10q-43 0 -77.5 2.5t-92.5 13.5q-155 25 -191 155q-21 72 -21 156q0 152 28 221q46 114 154 150.5t447 36.5q62 0 177 -4t168 -4
q113 0 197.5 -16t140.5 -44q64 -32 99 -97t35 -163v-81h-366l-6 44q-12 59 -63 77q-3 1 -24 4q-40 6 -80 6l-99 4h-214l-95 -3q-39 0 -72 -11q-61 -14 -61 -83q0 -70 74 -89q15 -3 39 -6t42 -3l95 -2l337 -11l196 -8q39 0 77.5 -7.5t77.5 -20.5q179 -60 179 -345
q0 -315 -290 -353q-18 -2 -51 -5t-54 -3q-55 0 -141.5 -2.5t-101.5 -2.5q-18 0 -166.5 4.5t-229.5 4.5q-34 0 -68 1.5t-68 5.5q-76 0 -136.5 22t-105.5 60q-37 32 -60 93.5t-23 145.5l-4 84h366z" />
    <glyph glyph-name="T" unicode="T" horiz-adv-x="1517" 
d="M1455 1201v-310h-526v-891h-366v891h-526v310h1418z" />
    <glyph glyph-name="U" unicode="U" horiz-adv-x="1821" 
d="M140 1201h366v-681l1 -67q0 -70 44 -109.5t129 -39.5q35 0 106 -4t106 -4q168 0 242 9t114 45.5t40 102.5l3 92v656h366v-787l-5 -56q0 -77 -22.5 -137t-61.5 -105q-69 -78 -224 -111l-54 -10q-84 -9 -438 -9l-258 4q-314 0 -390 181q-29 64 -45 130.5t-16 140.5l-3 97
v662z" />
    <glyph glyph-name="V" unicode="V" horiz-adv-x="1821" 
d="M440 1201l476 -901l482 901h399l-651 -1201h-465l-651 1201h410z" />
    <glyph glyph-name="W" unicode="W" horiz-adv-x="2276" 
d="M369 1201l234 -843l324 843h399l333 -853l211 853h360l-340 -1201h-444l-320 830l-319 -830h-444l-340 1201h346z" />
    <glyph glyph-name="X" unicode="X" horiz-adv-x="1821" 
d="M591 605l-564 596h485l380 -424l382 424h479l-560 -596l598 -605h-502l-397 438l-401 -438h-495z" />
    <glyph glyph-name="Y" unicode="Y" horiz-adv-x="1745" 
d="M464 1201l395 -483l395 483h469l-683 -782v-419h-366v419l-681 782h471z" />
    <glyph glyph-name="Z" unicode="Z" 
d="M967 921h-877v280h1397v-273l-887 -648h903v-280h-1439v280z" />
    <glyph glyph-name="bracketleft" unicode="[" horiz-adv-x="759" 
d="M699 1215v-209h-236v-1192h236v-209h-590v1610h590z" />
    <glyph glyph-name="backslash" unicode="\" horiz-adv-x="1366" 
d="M954 -16l-810 1236h275l804 -1236h-269z" />
    <glyph glyph-name="bracketright" unicode="]" horiz-adv-x="759" 
d="M69 -395v209h236v1192h-236v209h590v-1610h-590z" />
    <glyph glyph-name="asciicircum" unicode="^" horiz-adv-x="1024" 
d="M458 1209q-126 -113 -290 -189l-69 -27v94l78 62q181 156 268 353l14 34h105l13 -33q85 -196 269 -354l78 -62v-94l-68 27q-64 27 -144 80q-95 61 -147 109q-18 15 -53 53z" />
    <glyph glyph-name="underscore" unicode="_" horiz-adv-x="1024" 
d="M1024 -407v-105h-1024v105h1024z" />
    <glyph glyph-name="grave" unicode="`" 
d="M520 1219h274l171 -265h-244z" />
    <glyph glyph-name="a" unicode="a" horiz-adv-x="1290" 
d="M855 593q-25 66 -116 66l-141 2l-85 -1q-102 0 -113 -66h-310q0 24 2 36.5t7 35.5q21 118 142 157q76 23 223 37q12 0 79 2t124 2q134 0 218 -8q114 0 183.5 -50t89.5 -136q8 -37 12.5 -71.5t4.5 -75.5l4 -151v-372h-310v116q-60 -87 -166 -111q-40 -9 -90.5 -14
t-113.5 -5q-141 0 -249 19q-186 30 -186 255q0 219 152 258q52 14 139.5 21.5t201.5 7.5q109 0 167 -7.5t117 -62.5l28 -27q0 105 -14 143zM374 267q0 -51 40 -67q25 -9 83 -9l168 -2l98 2q58 0 85 47q12 20 12 43q0 19 -12 37.5t-37.5 29t-63.5 10.5l-129 4q-84 0 -147 -9
q-97 -14 -97 -86z" />
    <glyph glyph-name="b" unicode="b" horiz-adv-x="1366" 
d="M103 1206h310v-491q60 95 168 127q39 10 91.5 16t125.5 6q92 0 178 -12q239 -33 279 -214q21 -93 21 -195q0 -285 -98 -368q-104 -89 -374 -89q-157 0 -235 23q-102 27 -173 149v-158h-293v1206zM406 436q0 -129 38 -164q27 -27 96 -33q30 -4 74.5 -6t87.5 -2
q150 0 203 28q61 31 61 189q0 134 -83 156q-27 7 -74 11t-118 4q-200 0 -249 -43q-36 -32 -36 -140z" />
    <glyph glyph-name="c" unicode="c" horiz-adv-x="1290" 
d="M851 583q-34 23 -85 29q-25 0 -54 2q-72 5 -91 5q-124 0 -178 -18q-69 -23 -69 -151q0 -67 11 -127t90 -82q38 -10 138 -10q59 0 93 1t63 2q109 12 122 80l4 40h310q0 -150 -51 -231q-57 -90 -200 -118q-43 -8 -75 -12.5t-68 -4.5l-115 -2q-248 0 -358 19
q-201 36 -250 223q-24 90 -24 186q0 127 31 233q26 90 89 139q50 39 126 54q123 24 321 24q134 0 233 -11t161 -32q55 -18 92.5 -57t58.5 -94.5t21 -124.5l1 -42h-310q-12 62 -37 80z" />
    <glyph glyph-name="d" unicode="d" horiz-adv-x="1366" 
d="M932 1206h310v-1206h-297v157q-83 -171 -384 -171q-20 0 -67 2t-49 2q-42 0 -82.5 8t-90.5 22q-138 39 -174 161q-29 104 -29 247q0 272 108 355q52 40 144.5 60.5t226.5 20.5q113 0 209 -19.5t153 -98.5l22 -33v493zM379 424q0 -141 75 -173q51 -20 201 -20
q192 0 241 37q41 28 41 186q0 81 -31 118q-26 29 -78 38q-26 3 -69 6t-81 3q-39 0 -99.5 -2.5t-69.5 -2.5q-82 0 -110 -61q-20 -42 -20 -129z" />
    <glyph glyph-name="e" unicode="e" horiz-adv-x="1290" 
d="M384 324q0 -95 83 -120q57 -15 158 -15q34 0 71 1t80 3q45 0 72 24t36 69h310v-16q0 -92 -51.5 -159t-135.5 -91q-54 -16 -151 -25t-231 -9q-143 0 -251 15q-236 33 -282 238q-9 41 -14 83.5t-5 89.5q0 126 20 212q27 122 115 173q59 33 162 50t258 17q229 0 322 -21
q186 -39 225 -205q8 -33 11 -53.5t3 -51.5l5 -104l-1 -70h-810zM884 540l-4 28q-8 42 -40 65.5t-88 23.5l-120 4q-68 0 -115 -4q-66 0 -104 -31t-38 -86h509z" />
    <glyph glyph-name="f" unicode="f" horiz-adv-x="910" 
d="M222 850v60q0 145 59 208q32 38 92 62q48 20 96 27q85 13 173 13q61 0 104 -4q21 0 72 -8v-233h-94q-53 0 -89 -4q-28 0 -48 -8.5t-35 -25.5q-20 -23 -20 -87h275v-219h-275v-631h-310v631h-166v219h166z" />
    <glyph glyph-name="g" unicode="g" horiz-adv-x="1366" 
d="M410 -83q21 -56 55.5 -71.5t94.5 -15.5l127 -5q122 0 166 17q78 31 78 135v169q-18 -30 -33 -48q-78 -98 -369 -98q-262 0 -357 78q-104 86 -104 345q0 55 3 102.5t10 90.5q18 112 91.5 163t193 68t233.5 17q85 0 146 -11q118 -20 198 -158v155h298v-821q0 -184 -77 -278
q-84 -98 -261 -118q-89 -11 -222 -11q-183 0 -290 11q-185 16 -248 127q-23 36 -30 77l-13 80h310zM378 433q0 -50 5 -82t17 -50q32 -51 119 -51q46 0 113.5 -2.5t74.5 -2.5q101 0 139 12q71 24 78 106l2 77q0 59 -7 91q-16 73 -99 85l-139 3l-127 -2q-153 0 -168 -83
q-8 -35 -8 -101z" />
    <glyph glyph-name="h" unicode="h" horiz-adv-x="1366" 
d="M421 1206v-506q49 99 157 136q35 12 90.5 20t122.5 8q89 0 158 -10t131 -42q75 -36 112 -89q25 -36 38.5 -77.5t13.5 -90.5l1 -88v-467h-310v352q0 113 -14 155q-25 76 -117 91q-24 4 -49.5 6t-60.5 2q-156 0 -214 -40q-30 -19 -44.5 -55t-14.5 -93v-65v-353h-310v1206
h310z" />
    <glyph glyph-name="i" unicode="i" horiz-adv-x="531" 
d="M411 850v-850h-310v850h310zM419 1206v-239h-326v239h326z" />
    <glyph glyph-name="j" unicode="j" horiz-adv-x="607" 
d="M31 -96l52 3q86 7 86 94v52v797h310v-833l-1 -103q0 -69 -24.5 -115.5t-73.5 -72.5q-31 -16 -86 -25t-132 -9h-15h-12q-39 0 -63 3l-41 5v204zM488 1206v-239h-326v239h326z" />
    <glyph glyph-name="k" unicode="k" horiz-adv-x="1290" 
d="M120 1206h310v-648h79l271 292h388l-411 -398l473 -452h-417l-304 339h-79v-339h-310v1206z" />
    <glyph glyph-name="l" unicode="l" horiz-adv-x="531" 
d="M410 1206v-1206h-310v1206h310z" />
    <glyph glyph-name="m" unicode="m" horiz-adv-x="2048" 
d="M398 850v-208q3 14 6.5 26t10.5 28q57 168 337 168q94 0 178 -25q125 -37 200 -162q32 92 121 139.5t235 47.5q215 0 329.5 -83.5t114.5 -244.5l1 -136v-400h-310v377l-2 66q0 95 -62 129t-149 34q-37 0 -51 -1.5t-40 -6.5q-56 -9 -84 -31q-46 -32 -59 -89
q-5 -20 -5 -107v-371h-310v352v15v13v11q0 42 -4 71q0 43 -16.5 72.5t-47.5 46.5q-21 11 -56 18t-82 7q-153 0 -197 -57t-44 -189v-360h-310v850h296z" />
    <glyph glyph-name="n" unicode="n" horiz-adv-x="1366" 
d="M419 850v-198q6 21 8 27t9 20q39 102 144 138q37 13 87 20t118 7q258 0 364 -109q62 -64 82 -175q6 -37 9 -81t3 -114v-385h-310v309v87q0 128 -53 169t-176 41q-171 0 -224 -51q-61 -62 -61 -185v-64v-306h-310v850h310z" />
    <glyph glyph-name="o" unicode="o" horiz-adv-x="1366" 
d="M98 641q24 117 134 165q131 58 438 58q180 0 339 -27.5t212 -134.5q42 -84 42 -255q0 -68 -4 -124.5t-13 -102.5q-21 -124 -128 -175q-130 -59 -448 -59q-157 0 -262.5 12.5t-173.5 40.5q-108 45 -137 162q-9 41 -14 96t-5 124q0 136 20 220zM388 430q0 -74 10 -107
q16 -53 71 -72.5t213 -19.5q104 0 159 11q92 15 107 103q5 38 5 84q0 94 -23 130q-15 27 -43 41.5t-72 14.5l-144 4q-160 0 -204 -17q-79 -27 -79 -172z" />
    <glyph glyph-name="p" unicode="p" horiz-adv-x="1366" 
d="M412 850v-162q36 119 147 151q39 11 95.5 18t127.5 7q238 0 365.5 -73.5t127.5 -334.5q0 -74 -5 -133t-17 -114q-46 -223 -437 -223q-29 0 -62 0.5t-88 7.5q-144 15 -216 93q-11 11 -20.5 23l-17.5 22v-510h-310v1228h310zM422 441q0 -145 43 -182q29 -26 81 -26l154 -2
h33h26h21h16h13q44 0 53 5q84 15 100 113l3 91q0 75 -15 105q-21 42 -88 58t-211 16q-74 0 -118.5 -8t-68.5 -25q-42 -35 -42 -145z" />
    <glyph glyph-name="q" unicode="q" horiz-adv-x="1366" 
d="M936 850h303v-1228h-310v505q-14 -22 -22 -30q-28 -34 -66 -56q-67 -38 -144 -47q-27 -4 -65 -6t-77 -2q-146 0 -266 24q-61 11 -107 44q-86 56 -104 192q-12 105 -12 227q0 152 25 208q45 103 153 139q42 13 113 26q119 18 218 18q131 0 216.5 -35t125.5 -108l19 -38
v167zM376 414q0 -148 85 -175q32 -8 211 -8q160 0 207 38q46 34 46 167q0 106 -54 147q-20 15 -44 23.5t-51 8.5l-161 4q-120 0 -163 -22q-36 -17 -55.5 -51.5t-19.5 -86.5z" />
    <glyph glyph-name="r" unicode="r" horiz-adv-x="1138" 
d="M400 850v-163l23 47q70 130 281 130q70 0 135 -9q124 -16 185 -110q43 -68 43 -215v-66h-310l-4 39q-9 65 -51 86q-16 8 -42.5 12.5t-59.5 4.5q-46 0 -82.5 -8t-57 -25t-32.5 -51.5t-12 -86.5l-2 -93v-342h-310v850h296z" />
    <glyph glyph-name="s" unicode="s" horiz-adv-x="1290" 
d="M387 283q15 -80 110 -89l75 -4l96 -1q83 0 140 7q37 0 56.5 16t19.5 44q0 50 -43 65q-22 7 -82 13l-112 6l-191 8q-88 0 -151.5 9.5t-96.5 24.5q-118 50 -118 203q0 234 214 264q45 6 118.5 10.5t145.5 4.5q33 0 159 -7q72 -4 106 -4q70 0 130 -13q48 -10 82 -27
q54 -25 83 -67.5t29 -104.5v-52h-310l-14 24q-27 39 -98 46l-82 2l-96 -1q-47 0 -102 -6t-55 -48q0 -27 17.5 -41t52.5 -14l95 -4l195 -5q31 0 76 -2.5t51 -2.5q43 0 82.5 -7.5t81.5 -21.5q143 -45 143 -227q0 -177 -92 -236q-41 -26 -106 -41.5t-150 -15.5l-175 -2
q-252 0 -360 17t-171 71.5t-63 143.5v65h310z" />
    <glyph glyph-name="t" unicode="t" horiz-adv-x="1138" 
d="M221 850v198h310v-198h494v-219h-494v-249l1 -50q0 -58 20.5 -79.5t81.5 -21.5l59 3q35 0 55.5 26.5t20.5 74.5l4 39h286v-48q0 -86 -18 -143q-37 -119 -157 -167q-78 -30 -234 -30q-366 0 -414 159l-7 33q-4 20 -6 43.5t-2 40.5v369h-166v219h166z" />
    <glyph glyph-name="u" unicode="u" horiz-adv-x="1366" 
d="M406 850v-437q0 -94 43 -131q21 -17 54.5 -26.5t80.5 -9.5q15 0 43 -1t41 -1q90 0 132 14q63 20 97 86q13 25 19 56l4 37v413h310v-850h-310v168q-66 -117 -151 -147q-96 -35 -211 -35q-380 0 -445 231q-17 57 -17 131v502h310z" />
    <glyph glyph-name="v" unicode="v" horiz-adv-x="1290" 
d="M369 850l264 -609l261 609h353l-416 -850h-399l-416 850h353z" />
    <glyph glyph-name="w" unicode="w" horiz-adv-x="1897" 
d="M360 850l203 -628l227 628h287l224 -621l205 621h337l-318 -850h-428l-166 494l-161 -494h-428l-318 850h336z" />
    <glyph glyph-name="x" unicode="x" horiz-adv-x="1290" 
d="M382 445l-337 405h415l169 -254l173 254h402l-327 -405l353 -445h-399l-202 296l-209 -296h-400z" />
    <glyph glyph-name="y" unicode="y" horiz-adv-x="1290" 
d="M368 850l251 -626l262 626h352l-423 -906q-83 -177 -105 -211q-34 -54 -82 -81.5t-112 -27.5l-142 -2h-84v245h50l64 2q67 0 105 58q5 8 16 30.5t19 42.5h-129l-384 850h342z" />
    <glyph glyph-name="z" unicode="z" horiz-adv-x="1214" 
d="M665 631h-540v219h959v-240l-550 -391h566v-219h-1013v211z" />
    <glyph glyph-name="braceleft" unicode="{" horiz-adv-x="1024" 
d="M161 646q165 30 208 124q17 39 27 102t10 148v208q0 174 97 259q41 37 109 56.5t162 19.5l125 2v-191l-98 -4q-43 0 -71.5 -9t-47.5 -27q-31 -30 -31 -122v-190q0 -186 -33 -269q-48 -121 -172 -202q108 -75 147 -150q28 -54 43 -134t15 -192v-192q0 -91 30 -123
q17 -18 46.5 -27.5t73.5 -9.5l98 -4v-191l-125 2q-130 0 -212.5 38.5t-116.5 111.5q-39 83 -39 188v209q0 166 -37 251q-42 96 -208 127v191z" />
    <glyph glyph-name="bar" unicode="|" horiz-adv-x="1024" 
d="M564 1536v-2048h-105v2048h105z" />
    <glyph glyph-name="braceright" unicode="}" horiz-adv-x="1024" 
d="M784 437q-111 -33 -145 -146q-11 -38 -17 -91.5t-6 -122.5v-209q0 -240 -162 -302q-92 -36 -206 -36l-125 -2v191l98 4q82 0 119 37q31 31 31 123v192q0 114 8 175q4 41 15 75t34 76q41 76 148 150q-123 79 -173 202q-15 39 -23.5 109t-8.5 160v190q0 90 -31 121
q-17 18 -46 27.5t-73 9.5l-98 4v191l125 -2q91 0 159.5 -19.5t111.5 -55.5q97 -84 97 -260v-208q0 -170 36 -251q41 -92 209 -123v-191z" />
    <glyph glyph-name="asciitilde" unicode="~" horiz-adv-x="2048" 
d="M415 521q87 130 174 172q79 38 179 38q101 0 260.5 -75t261.5 -75q122 0 224 86l31 28l125 -95q-52 -62 -92 -97q-54 -51 -136 -80q-66 -24 -138 -24q-98 0 -190 36l-126 53q-143 61 -226 61q-153 0 -245 -148l-132 72z" />
    <glyph glyph-name="quotesinglbase" unicode="&#x201a;" horiz-adv-x="607" 
d="M488 39l-3 -117q0 -75 -22.5 -128t-61.5 -81q-59 -41 -227 -41l-81 1v190l53 -1q69 0 85 38q5 16 8 39.5t3 60.5h-106v336h352v-297z" />
    <glyph glyph-name="florin" unicode="&#x192;" horiz-adv-x="1290" 
d="M241 850h203l16 40l33 82q75 174 254 220q60 14 119 21t129 7q19 0 64.5 -2t49.5 -2l61 -5l-63 -194h-152q-55 0 -92.5 -23.5t-59.5 -69.5q-13 -27 -29 -74h303l-74 -219h-295l-197 -631h-329l197 631h-208z" />
    <glyph glyph-name="quotedblbase" unicode="&#x201e;" horiz-adv-x="1138" 
d="M507 39l-3 -116q0 -77 -22.5 -130.5t-61.5 -79.5q-60 -41 -227 -41l-81 1v190l51 -1q69 0 86 37q12 31 12 101h-106v336h352v-297zM660 -138q70 0 85 38q12 31 12 100h-106v336h352v-297l-3 -116q0 -77 -22.5 -130.5t-61.5 -79.5q-60 -41 -227 -41l-81 1v190z" />
    <glyph glyph-name="ellipsis" unicode="&#x2026;" horiz-adv-x="2276" 
d="M535 310v-310h-310v310h310zM1286 310v-310h-310v310h310zM2037 310v-310h-310v310h310z" />
    <glyph glyph-name="dagger" unicode="&#x2020;" horiz-adv-x="1441" 
d="M241 905l386 -27l-27 323h245l-27 -323l386 27v-231l-386 27l27 -222l-38 -699h-168l-39 699l27 222l-386 -27v231z" />
    <glyph glyph-name="daggerdbl" unicode="&#x2021;" horiz-adv-x="1441" 
d="M629 280l-27 211l27 210l-386 -27v231l386 -27l-27 323h245l-27 -323l386 27v-231l-386 27l27 -210l-27 -211l386 27v-231l-386 27l27 -323h-245l27 323l-386 -27v231z" />
    <glyph glyph-name="circumflex" unicode="&#x2c6;" 
d="M612 1221h367l168 -267h-246l-104 141l-104 -141h-249z" />
    <glyph glyph-name="perthousand" unicode="&#x2030;" horiz-adv-x="2352" 
d="M957 542q24 102 153 123q89 13 175 13q91 0 145 -11q86 -15 118 -75q20 -41 30 -111t10 -176q0 -224 -53 -277q-63 -63 -273 -63q-86 0 -167 15q-115 19 -142 139q-17 77 -17 215q0 124 21 208zM1095 305q0 -121 31 -145q29 -20 150 -20q111 0 134 41q9 18 14 52.5
t5 93.5q0 103 -24.5 139.5t-131.5 36.5q-127 0 -156 -38q-22 -25 -22 -160zM1717 616q62 62 288 62q126 0 183 -20q86 -26 105 -139q8 -54 12 -102t4 -107q0 -115 -11 -184q-15 -107 -120 -139q-34 -10 -83.5 -16t-110.5 -6q-87 0 -168 15q-123 21 -144 151q-15 87 -15 198
q0 227 60 287zM1816 305q0 -123 30 -144t152 -21q111 0 133 41q9 18 14 52.5t5 93.5q0 103 -24.5 139.5t-131.5 36.5q-127 0 -156 -38q-22 -25 -22 -160zM1118 1220l149 -2l-745 -1253h-152zM54 1080q22 105 152 127q88 13 175 13q126 0 183 -20q86 -26 105 -139
q8 -54 12 -102t4 -107q0 -115 -11 -184q-15 -107 -123 -140q-71 -21 -197 -21q-122 0 -194 21q-90 26 -111 145q-16 89 -16 202t21 205zM192 847q0 -123 30 -144t152 -21q110 0 131 38.5t21 144.5q0 28 -1.5 52.5t-5.5 45.5q-9 62 -58 72q-18 4 -44.5 7t-52.5 3
q-124 0 -152 -40q-20 -30 -20 -158z" />
    <glyph glyph-name="Scaron" unicode="&#x160;" horiz-adv-x="1669" 
d="M442 407q0 -95 49 -122q18 -9 51.5 -14.5t86.5 -5.5l104 -3h268h97q111 0 111 94q0 79 -76 91l-74 5l-74 3l-220 9l-107 6l-184 10q-43 0 -77.5 2.5t-92.5 13.5q-155 25 -191 155q-21 72 -21 156q0 152 28 221q46 114 154 150.5t447 36.5q62 0 177 -4t168 -4
q113 0 197.5 -16t140.5 -44q64 -32 99 -97t35 -163v-81h-366l-6 44q-12 59 -63 77q-3 1 -24 4q-40 6 -80 6l-99 4h-214l-95 -3q-39 0 -72 -11q-61 -14 -61 -83q0 -70 74 -89q15 -3 39 -6t42 -3l95 -2l337 -11l196 -8q39 0 77.5 -7.5t77.5 -20.5q179 -60 179 -345
q0 -315 -290 -353q-18 -2 -51 -5t-54 -3q-55 0 -141.5 -2.5t-101.5 -2.5q-18 0 -166.5 4.5t-229.5 4.5q-34 0 -68 1.5t-68 5.5q-76 0 -136.5 22t-105.5 60q-37 32 -60 93.5t-23 145.5l-4 84h366zM738 1573l104 -141l104 141h246l-168 -267h-367l-168 267h249z" />
    <glyph glyph-name="guilsinglleft" unicode="&#x2039;" horiz-adv-x="645" 
d="M300 723h265l-223 -299l223 -300h-265l-224 299z" />
    <glyph glyph-name="OE" unicode="&#x152;" horiz-adv-x="2276" 
d="M2153 921h-763v-164h708v-260h-708v-217h772v-280h-1138l-57 -9l-72 -3l-77 -2h-150l-91 2h-16h-13h-11q-19 0 -36.5 1t-34.5 4q-47 0 -89.5 12.5t-89.5 36.5q-158 78 -177 289q-10 94 -10 256q0 208 8 271q18 169 103 246q76 72 227 100q28 5 92 8t161 3q111 0 181 -1
t100 -4l78 -9h1103v-280zM1014 905h-265l-126 -5q-46 0 -75.5 -11.5t-49.5 -33.5q-31 -38 -31 -128l-1 -185v-39.5t4 -50.5q0 -72 42.5 -112.5t117.5 -40.5l107 -3h277v609z" />
    <glyph glyph-name="quoteleft" unicode="&#x2018;" horiz-adv-x="607" 
d="M122 835l3 115q0 60 11.5 103t33.5 71q26 34 68 54t95 20l119 3h65v-190h-49q-74 0 -89 -37q-11 -25 -11 -101h106v-336h-352v298z" />
    <glyph glyph-name="quoteright" unicode="&#x2019;" horiz-adv-x="607" 
d="M488 903l-3 -115q0 -76 -22.5 -130t-61.5 -82q-57 -39 -229 -39l-79 1v190l52 -1q69 0 86 37q11 28 11 101h-106v336h352v-298z" />
    <glyph glyph-name="quotedblleft" unicode="&#x201c;" horiz-adv-x="1138" 
d="M139 835l3 115q0 82 22.5 135t66.5 79q63 37 239 37h65v-190h-50q-73 0 -89 -37q-11 -25 -11 -101h106v-336h-352v298zM635 835l3 115q0 60 11.5 103.5t32.5 71.5q27 34 67.5 53.5t96.5 19.5l119 3h65v-190h-49q-74 0 -89 -37q-11 -28 -11 -101h106v-336h-352v298z" />
    <glyph glyph-name="quotedblright" unicode="&#x201d;" horiz-adv-x="1138" 
d="M507 903l-3 -115q0 -59 -12.5 -103.5t-33.5 -71.5q-26 -34 -67 -53.5t-95 -19.5q-34 0 -63.5 -1t-55.5 -2h-65v190h48q73 0 89 35q12 27 12 103h-106v336h352v-298zM657 727q73 0 88 36q12 31 12 102h-106v336h352v-298l-3 -115q0 -59 -12.5 -103.5t-33.5 -71.5
q-26 -34 -67 -53.5t-95 -19.5q-34 0 -63.5 -1t-55.5 -2h-65v190h49z" />
    <glyph glyph-name="bullet" unicode="&#x2022;" horiz-adv-x="1479" 
d="M379 1096q151 149 360 149q208 0 359 -150t151 -360q0 -136 -68 -254.5t-188 -188.5q-116 -67 -254 -67q-209 0 -359.5 148t-150.5 362q0 211 150 361z" />
    <glyph glyph-name="endash" unicode="&#x2013;" 
d="M1302 573v-271h-1013v271h1013z" />
    <glyph glyph-name="emdash" unicode="&#x2014;" horiz-adv-x="2276" 
d="M2203 573v-271h-2138v271h2138z" />
    <glyph glyph-name="tilde" unicode="&#x2dc;" 
d="M427 987q23 223 203 223q38 0 74 -6l92 -17l95 -18l50 -8l43 -4q41 0 56 31l5 16h170q0 -250 -201 -250q-13 0 -28.5 1t-32.5 4l-84 14l-96 17l-53 11q-33 6 -60 6q-42 0 -58 -30l-8 -23h-170z" />
    <glyph glyph-name="trademark" unicode="&#x2122;" horiz-adv-x="1252" 
d="M406 1388v-89h-152v-518h-89v518h-152v89h393zM474 1388h163l111 -479l107 479h163v-607h-89v547h-7l-122 -547h-108l-122 547h-7v-547h-89v607z" />
    <glyph glyph-name="scaron" unicode="&#x161;" horiz-adv-x="1290" 
d="M387 283q15 -80 110 -89l75 -4l96 -1q83 0 140 7q37 0 56.5 16t19.5 44q0 50 -43 65q-22 7 -82 13l-112 6l-191 8q-88 0 -151.5 9.5t-96.5 24.5q-118 50 -118 203q0 234 214 264q45 6 118.5 10.5t145.5 4.5q33 0 159 -7q72 -4 106 -4q70 0 130 -13q48 -10 82 -27
q54 -25 83 -67.5t29 -104.5v-52h-310l-14 24q-27 39 -98 46l-82 2l-96 -1q-47 0 -102 -6t-55 -48q0 -27 17.5 -41t52.5 -14l95 -4l195 -5q31 0 76 -2.5t51 -2.5q43 0 82.5 -7.5t81.5 -21.5q143 -45 143 -227q0 -177 -92 -236q-41 -26 -106 -41.5t-150 -15.5l-175 -2
q-252 0 -360 17t-171 71.5t-63 143.5v65h310zM541 1221l104 -141l104 141h246l-168 -267h-367l-168 267h249z" />
    <glyph glyph-name="guilsinglright" unicode="&#x203a;" horiz-adv-x="645" 
d="M352 124h-262l227 299l-227 300h262l227 -299z" />
    <glyph glyph-name="oe" unicode="&#x153;" horiz-adv-x="2124" 
d="M1316 209q53 -20 178 -20q65 0 132 8t92 63l12 30h310q0 -41 -6 -73q-25 -181 -260 -215q-56 -8 -122 -12t-140 -4q-348 0 -446 76q-76 -50 -220 -65q-119 -11 -231 -11q-292 0 -408 57q-135 66 -135 368q0 145 23 230q18 82 65 125q36 36 94 52q74 21 188 33.5t253 12.5
q214 0 327 -32l65 -22l69 23q22 6 48.5 11.5t52.5 8.5q110 11 282 11l130 -2q43 0 114 -16q44 -9 85 -27q59 -23 93 -66.5t56 -120.5t22 -180l1 -33v-60h-795q0 -123 71 -150zM728 231q113 0 160 39.5t47 154.5q0 83 -21.5 130t-107.5 59q-28 3 -43 4t-49 1l-129 -1
q-68 0 -112.5 -9.5t-60.5 -27.5q-30 -33 -30 -176q0 -111 46 -145q16 -12 56 -19.5t97 -7.5zM1237 539h493q0 57 -36.5 88.5t-106.5 31.5l-99 2q-85 0 -146 -11q-48 -6 -67.5 -22.5t-32.5 -65.5z" />
    <glyph glyph-name="Ydieresis" unicode="&#x178;" horiz-adv-x="1745" 
d="M464 1201l395 -483l395 483h469l-683 -782v-419h-366v419l-681 782h471zM778 1539v-233h-279v233h279zM1208 1539v-233h-279v233h279z" />
    <glyph glyph-name="nonbreakingspace" unicode="&#xa0;" horiz-adv-x="1669" 
 />
    <glyph glyph-name="exclamdown" unicode="&#xa1;" horiz-adv-x="683" 
d="M183 396h321l21 -757h-363zM518 850v-336h-352v336h352z" />
    <glyph glyph-name="cent" unicode="&#xa2;" horiz-adv-x="1290" 
d="M531 1231h216v-216q101 0 169.5 -9.5t112.5 -28.5q78 -31 121 -85t43 -129l1 -87h-310q-13 85 -81.5 96.5t-137.5 11.5q-132 0 -183 -15q-78 -21 -78 -147q0 -46 4 -81q0 -60 41 -92t118 -32q12 0 39 -1t42 -1l111 3q51 0 90.5 22.5t39.5 85.5h307l3 -63
q0 -236 -286 -266q-45 -5 -81.5 -7.5t-84.5 -2.5v-216h-216v216l-41 1q-163 0 -258 56t-119 163q-19 77 -19 178q0 91 13 176q9 68 37 118q58 110 237 128q24 2 71.5 5t78.5 3v216z" />
    <glyph glyph-name="sterling" unicode="&#xa3;" 
d="M183 292q65 19 65 98q0 24 -1.5 35t-6.5 38h-168v252h113l-14 101q-4 30 -6 56t-2 56q0 127 56.5 184t178.5 82q63 12 163 19t236 7q293 0 414.5 -26t176.5 -99t67 -195q0 -22 2.5 -68.5t2.5 -62.5h-334q0 13 -1 21t-4 22q-13 81 -111 98q-60 9 -133 9h-132q-47 0 -76 -2
t-58 -9q-77 -15 -77 -93q0 -37 21 -100h255v-252h-196l5 -58q0 -95 58 -109q42 -8 135 -8h109q105 0 159 16q76 24 76 126h371v-61q0 -194 -83 -278q-46 -47 -114 -74t-158 -27q-22 0 -80 -2t-71 -2h-194q-140 0 -213 22q-68 18 -117 83l-34 48q-72 -123 -168 -141
q-57 -12 -131 -12l-108 2v292q50 0 79 3t48 9z" />
    <glyph glyph-name="currency" unicode="&#xa4;" 
d="M393 1230l133 -130l48 26q59 30 117 44.5t121 14.5q119 0 224 -57l46 -28l133 130l129 -132l-136 -131l24 -41q56 -109 56 -229q0 -119 -51 -212l-29 -47l136 -132l-129 -129l-132 127l-72 -41q-93 -46 -206 -46q-112 0 -207 46l-73 41l-132 -127l-131 129l135 132
l-30 54q-47 93 -47 204q0 109 48 213l29 58l-135 131zM524 701q0 -76 35.5 -140.5t102 -102t142.5 -37.5q116 0 198 82t82 198t-82 198t-198 82q-75 0 -140.5 -37.5t-104.5 -103.5q-35 -63 -35 -139z" />
    <glyph glyph-name="yen" unicode="&#xa5;" 
d="M481 1206l313 -478l331 478h433l-579 -788v-17h301v-112h-301v-90h301v-112h-301v-87h-366v87h-306v112h306v90h-306v112h306v17l-603 788h471z" />
    <glyph glyph-name="brokenbar" unicode="&#xa6;" horiz-adv-x="1024" 
d="M459 -460v919h105v-919h-105zM564 1483v-919h-105v919h105z" />
    <glyph glyph-name="section" unicode="&#xa7;" horiz-adv-x="1441" 
d="M162 735q-31 59 -31 179q0 71 11 121q25 132 183 164q43 8 102.5 12t150.5 4l232 -3q133 0 226 -11.5t151 -33.5q77 -28 107 -106q8 -24 13 -63t5 -91h-310q0 82 -88 82l-183 7l-151 -2q-139 0 -139 -63q0 -45 44 -61l74 -23l67 -16l324 -80l116 -28q76 -19 103 -28
q143 -43 191 -155q18 -42 18 -114q0 -208 -189 -238l-61 -10q46 -18 76 -37q96 -57 96 -237q0 -20 -1 -40t-4 -38q-12 -99 -57.5 -140.5t-143 -61t-312.5 -19.5h-106l-222 7q-164 0 -251.5 59t-87.5 168v70h310q0 -36 24.5 -57.5t68.5 -21.5l91 -4q21 0 65.5 -1t68.5 -1
l157 3q47 0 63 8q27 12 27 55q0 40 -73 61l-258 63l-249 61l-112 29q-70 18 -124 49q-118 64 -118 259q0 147 129 194q36 14 79 21l47 7q-122 52 -149 101zM743 518q-109 25 -176.5 37.5t-101.5 12.5q-164 0 -164 -104q0 -67 82 -96l119 -29l219 -54q56 -15 118 -24l91 -11
l57 -2q146 0 146 106q0 64 -82 89l-125 32z" />
    <glyph glyph-name="dieresis" unicode="&#xa8;" 
d="M713 1187v-233h-279v233h279zM1143 1187v-233h-279v233h279z" />
    <glyph glyph-name="copyright" unicode="&#xa9;" horiz-adv-x="1024" 
d="M97 1286q60 111 173 175.5t241 64.5t239 -63.5t176 -176.5t65 -240q0 -129 -63 -240t-175 -175.5t-240 -64.5q-198 0 -339 138t-141 342q0 124 64 240zM104 1047q0 -105 55 -205q51 -95 148.5 -150t204.5 -55q168 0 288 120q60 61 90 132.5t30 157.5q0 167 -120 287.5
t-288 120.5q-169 0 -288.5 -118.5t-119.5 -289.5zM733 867l-18 -16q-81 -66 -179 -66q-112 0 -189 81.5t-77 193.5q0 108 75.5 191t186.5 83q95 0 173 -59l21 -17l-61 -63l-24 23q-50 41 -108 41q-80 0 -134 -59t-54 -142q0 -80 52.5 -139t131.5 -59q66 0 115 43l28 27z" />
    <glyph glyph-name="ordfeminine" unicode="&#xaa;" horiz-adv-x="986" 
d="M645 980l-2 36q-9 51 -60 63q-7 1 -35.5 4t-58.5 3l-53 -1l-71 -5q-41 -4 -50 -38h-170l3 40q12 107 128 125q91 13 196 13q44 0 67 -1q113 -5 115 -5q92 0 140 -49t48 -140v-369h-200v80q-45 -72 -119 -84q-19 -4 -46.5 -6t-58.5 -2l-115 3q-92 0 -136.5 39t-44.5 138
q0 18 1 35t4 33q8 55 56.5 85.5t135.5 30.5l128 3q124 0 198 -59v28zM317 826q0 -46 78 -46l135 -2q67 0 94 23q14 14 17 39q0 23 -14 31q-4 1 -19.5 3t-23.5 2l-91 1l-84 -1q-92 0 -92 -50z" />
    <glyph glyph-name="guillemotleft" unicode="&#xab;" horiz-adv-x="1062" 
d="M300 723h265l-223 -299l223 -300h-265l-224 299zM718 723h264l-223 -299l223 -300h-264l-225 299z" />
    <glyph glyph-name="logicalnot" unicode="&#xac;" horiz-adv-x="2276" 
d="M1708 740v-586h-233v353h-893v233h1126z" />
    <glyph glyph-name="minus" unicode="&#xad;" horiz-adv-x="910" 
d="M830 573v-271h-755v271h755z" />
    <glyph glyph-name="registered" unicode="&#xae;" horiz-adv-x="1024" 
d="M91 1286q60 111 173 175.5t241 64.5t239 -63.5t176 -176.5t65 -240q0 -129 -63 -240t-175 -175.5t-240 -64.5q-198 0 -339 138t-141 342q0 124 64 240zM98 1047q0 -105 55 -205q51 -95 148.5 -150t204.5 -55q168 0 288 120q60 61 90 132.5t30 157.5q0 167 -120 287.5
t-288 120.5q-169 0 -288.5 -118.5t-119.5 -289.5zM346 1311h170q160 0 160 -146q0 -79 -57 -118l-27 -15l90 -224h-96l-80 207h-85v-207h-75v503zM421 1236v-146h99q81 0 81 73t-81 73h-99z" />
    <glyph glyph-name="macron" unicode="&#xaf;" 
d="M1114 1145v-148h-621v148h621z" />
    <glyph glyph-name="degree" unicode="&#xb0;" horiz-adv-x="1441" 
d="M517 1134q44 43 94.5 64.5t110.5 21.5q119 0 205 -85.5t86 -205.5t-85 -205t-206 -85q-122 0 -206 84.5t-84 205.5q0 120 85 205zM584 929q0 -60 40 -99q20 -19 44.5 -29t54.5 -10q58 0 97 39q20 20 30.5 45t10.5 54q0 56 -39.5 97.5t-98.5 41.5q-57 0 -100 -43
q-39 -38 -39 -96z" />
    <glyph glyph-name="plusminus" unicode="&#xb1;" horiz-adv-x="2276" 
d="M1702 233v-233h-1127v233h1127zM1022 740v216h233v-216h447v-233h-447v-216h-233v216h-447v233h447z" />
    <glyph glyph-name="twosuperior" unicode="&#xb2;" horiz-adv-x="834" 
d="M64 718l2 70q0 124 166 149l111 12l124 11q22 0 42 2.5t40 6.5q51 9 51 55q0 61 -106 61l-68 1l-64 -1q-39 0 -65 -3q-61 0 -61 -64v-29h-170l1 54q0 154 157 168q47 0 87 2q140 7 158 7q160 0 206 -15t70.5 -58t24.5 -112q0 -32 -6 -68q-15 -77 -71 -104
q-37 -17 -128 -26l-115 -10l-121 -10q-46 0 -70.5 -11t-24.5 -28v-26l535 1v-134h-705v99z" />
    <glyph glyph-name="threesuperior" unicode="&#xb3;" horiz-adv-x="834" 
d="M230 828q0 -78 45 -82.5t126 -4.5q53 0 89.5 1l70.5 2q42 0 42 43q0 37 -43 46l-76 6h-131v134h120l75 1q44 0 44 53q0 57 -71 57l-152 2q-120 0 -126 -44l-2 -25h-170l1 35q0 82 41 121q20 18 52.5 29.5t74.5 11.5q28 0 87 3t90 3q157 0 225 -12q120 -21 120 -162
q0 -63 -19.5 -93t-81.5 -51q112 -26 112 -128q0 -85 -36 -120q-32 -32 -118 -41q-63 -6 -256 -6l-115 2q-20 0 -40.5 3t-42.5 10q-63 15 -85 64q-8 17 -13 44t-5 64l-2 34h170z" />
    <glyph glyph-name="acute" unicode="&#xb4;" 
d="M800 1219h278l-200 -265h-245z" />
    <glyph glyph-name="mu" unicode="&#xb5;" horiz-adv-x="1214" 
d="M273 982h289l-134 -448l-30 -110q-16 -63 -16 -110q0 -67 46 -107q43 -37 109 -37q119 0 176 127q19 47 43 125l164 560h301l-288 -982h-234l35 121l-60 -66q-83 -83 -196 -83q-34 0 -61 8t-50 27q-26 22 -65 98l-137 -469h-289z" />
    <glyph glyph-name="paragraph" unicode="&#xb6;" horiz-adv-x="1366" 
d="M1147 1442h-138v-1768h-79v1768h-99v-1768h-79v897l-63 13q-177 38 -279 156q-109 125 -109 299q0 111 48 207q109 215 391 263q108 17 220 17h187v-84z" />
    <glyph glyph-name="periodcentered" unicode="&#x2219;" horiz-adv-x="607" 
d="M481 781v-347h-352v347h352z" />
    <glyph glyph-name="cedilla" unicode="&#xb8;" 
d="M646 -220v-14q0 -62 46 -62h152q68 0 68 55q0 43 -54 43h-161l61 238h163l-28 -111h42q71 0 109 -39t38 -112q0 -140 -103 -200q-54 -30 -230 -30q-130 0 -180 20q-93 35 -93 142q0 18 1 28t6 42h163z" />
    <glyph glyph-name="onesuperior" unicode="&#xb9;" horiz-adv-x="607" 
d="M296 1208h220v-589h-170v458l-211 -150l-75 123z" />
    <glyph glyph-name="ordmasculine" unicode="&#xba;" horiz-adv-x="986" 
d="M155 1142q26 32 77 52t121 20q25 0 78 3t82 3q50 0 97 -4t92 -13q114 -21 148 -95q14 -31 21 -74t7 -105q0 -200 -95 -245q-45 -20 -111.5 -30t-162.5 -10q-121 0 -227.5 11.5t-142.5 90.5q-30 69 -30 190q0 78 10.5 127t35.5 79zM304 946q0 -62 8 -90q12 -45 67 -52
q24 -4 60 -6t75 -2q99 0 134 22.5t35 124.5q0 101 -66 116q-39 9 -147 9q-152 0 -164 -71z" />
    <glyph glyph-name="guillemotright" unicode="&#xbb;" horiz-adv-x="1062" 
d="M355 124h-265l223 299l-223 300h265l224 -299zM771 723l225 -299l-225 -300h-264l223 299l-223 300h264z" />
    <glyph glyph-name="onequarter" unicode="&#xbc;" horiz-adv-x="2276" 
d="M1414 1229h197l-967 -1253h-198zM1172 385l491 298h245v-391h105v-152h-105v-140h-195v140h-541v245zM1326 292h387v232zM440 1214h247v-683h-195v530l-237 -163l-90 138z" />
    <glyph glyph-name="onehalf" unicode="&#xbd;" horiz-adv-x="2276" 
d="M1396 1229h196l-967 -1253h-198zM1275 473q0 92 38.5 143.5t111.5 60.5q102 12 224 12q201 0 303 -16q75 -10 106 -79q9 -20 14 -51.5t5 -83.5l-2 -65q0 -31 -9 -54.5t-25 -39.5q-22 -23 -91 -39t-179 -16l-147 -10l-79 -6q-40 0 -60 -20t-20 -57h615v-152h-810v115
l2 104q0 67 48.5 105t142.5 47l112 10l151 12l48 5q71 0 93 26q15 14 15 43q0 68 -92 68l-97 2q-38 0 -72.5 -1t-65.5 -4q-37 0 -58.5 -24.5t-27.5 -72.5h-195zM419 1214h247v-683h-195v529l-237 -163l-91 138z" />
    <glyph glyph-name="threequarters" unicode="&#xbe;" horiz-adv-x="2276" 
d="M1581 1229h197l-967 -1253h-198zM1305 385l491 298h245v-391h105v-152h-105v-140h-195v140h-541v245zM1459 292h387v232zM340 783q0 -91 62 -99q29 -6 80 -6l94 -1h81q108 0 108 56q0 40 -52 49l-50 3h-198v152h165l60 2q66 0 66 62q0 66 -127 66l-101 1q-81 0 -131 -6
q-31 -3 -48.5 -23.5t-17.5 -57.5h-171l2 70q0 62 34.5 101.5t97 53.5t227.5 14q94 0 161 -3t110 -10q89 -12 122 -52q37 -44 37 -128q0 -116 -74 -147q-20 -11 -47 -18q75 -27 99 -51q31 -33 31 -105q0 -100 -60 -138q-31 -20 -68.5 -31t-83.5 -11l-97 -1q-65 0 -162 3
t-129 3q-52 0 -89.5 10t-65.5 29.5t-43 54t-15 88.5l-2 70h195z" />
    <glyph glyph-name="questiondown" unicode="&#xbf;" horiz-adv-x="1290" 
d="M1252 1q0 -67 -9.5 -121t-27.5 -90q-48 -99 -166 -126q-34 -9 -77.5 -15.5t-86.5 -6.5q-60 0 -143.5 -4.5t-97.5 -4.5l-129 3l-150 11q-83 0 -146 26t-100 69q-69 80 -69 251q0 172 64 240q38 39 215 63q29 3 80 9.5t104 16.5q42 6 54 49l6 25h310v-49q0 -172 -81 -215
q-27 -14 -115 -26l-229 -33q-58 -8 -75 -23q-23 -19 -23 -73q0 -61 56 -82q15 -6 40.5 -9.5t64.5 -3.5l97 -1l153 2q43 0 75 5.5t49 15.5q46 26 46 115l1 58h310v-76zM543 514v336h352v-336h-352z" />
    <glyph glyph-name="Agrave" unicode="&#xc0;" horiz-adv-x="1897" 
d="M700 1201h465l663 -1201h-415l-112 206h-741l-108 -206h-415zM706 486h446l-218 410zM664 1571h274l171 -265h-244z" />
    <glyph glyph-name="Aacute" unicode="&#xc1;" horiz-adv-x="1897" 
d="M700 1201h465l663 -1201h-415l-112 206h-741l-108 -206h-415zM706 486h446l-218 410zM950 1571h278l-200 -265h-245z" />
    <glyph glyph-name="Acircumflex" unicode="&#xc2;" horiz-adv-x="1897" 
d="M700 1201h465l663 -1201h-415l-112 206h-741l-108 -206h-415zM706 486h446l-218 410zM768 1573h367l168 -267h-246l-104 141l-104 -141h-249z" />
    <glyph glyph-name="Atilde" unicode="&#xc3;" horiz-adv-x="1897" 
d="M700 1201h465l663 -1201h-415l-112 206h-741l-108 -206h-415zM706 486h446l-218 410zM570 1339q23 223 203 223q38 0 74 -6l92 -17l95 -18l50 -8l43 -4q41 0 56 31l5 16h170q0 -250 -201 -250q-13 0 -28.5 1t-32.5 4l-84 14l-96 17l-53 11q-33 6 -60 6q-42 0 -58 -30
l-8 -23h-170z" />
    <glyph glyph-name="Adieresis" unicode="&#xc4;" horiz-adv-x="1897" 
d="M700 1201h465l663 -1201h-415l-112 206h-741l-108 -206h-415zM706 486h446l-218 410zM854 1539v-233h-279v233h279zM1284 1539v-233h-279v233h279z" />
    <glyph glyph-name="Aring" unicode="&#xc5;" horiz-adv-x="1897" 
d="M700 1201h465l663 -1201h-415l-112 206h-741l-108 -206h-415zM706 486h446l-218 410zM741 1632q25 14 71 21t120 7q147 0 191 -27q77 -46 77 -171q0 -93 -42 -144t-122 -51l-84 -2l-122 2q-81 0 -122.5 50.5t-41.5 144.5q0 127 75 170zM847 1463l2 -23q6 -40 84 -40
q71 0 83 40l3 23q0 52 -44 60l-48 2l-36 -2q-36 0 -42 -37z" />
    <glyph glyph-name="AE" unicode="&#xc6;" horiz-adv-x="2276" 
d="M710 1201h1441v-280h-715v-164h659v-260h-659v-217h726v-280h-1092v191h-507l-103 -191h-410zM710 471h360v474h-103z" />
    <glyph glyph-name="Ccedilla" unicode="&#xc7;" horiz-adv-x="1745" 
d="M1187 880q-45 25 -128 25h-223q-85 0 -129.5 -1t-80.5 -2q-55 0 -91.5 -22.5t-51.5 -64.5q-8 -22 -12 -63.5t-4 -111.5q0 -182 12 -232q29 -111 182 -111l242 -1l202 -1q131 0 145 124l2 44h366v-59q0 -147 -32 -231q-12 -38 -42 -67q-83 -86 -303 -107q-45 -4 -98 -8
t-125 -4l-141 -1q-81 0 -138 1l-109 2q-34 0 -74.5 3.5t-86.5 9.5q-78 9 -144 33q-79 24 -124 81q-68 78 -84 189t-16 269q0 164 11 280q0 33 7.5 64.5t21.5 65.5q63 169 273 205q162 26 445 26h167q307 0 432 -61q90 -44 128 -171q16 -56 16 -218h-366q0 88 -49 115z
M712 -220v-14q0 -62 46 -62h152q68 0 68 55q0 43 -54 43h-161l61 238h163l-28 -111h42q71 0 109 -39t38 -112q0 -140 -103 -200q-54 -30 -230 -30q-130 0 -180 20q-93 35 -93 142q0 18 1 28t6 42h163z" />
    <glyph glyph-name="Egrave" unicode="&#xc8;" 
d="M125 1201h1321v-280h-955v-164h902v-260h-902v-217h966v-280h-1332v1201zM512 1571h274l171 -265h-244z" />
    <glyph glyph-name="Eacute" unicode="&#xc9;" 
d="M125 1201h1321v-280h-955v-164h902v-260h-902v-217h966v-280h-1332v1201zM798 1571h278l-200 -265h-245z" />
    <glyph glyph-name="Ecircumflex" unicode="&#xca;" 
d="M125 1201h1321v-280h-955v-164h902v-260h-902v-217h966v-280h-1332v1201zM616 1573h367l168 -267h-246l-104 141l-104 -141h-249z" />
    <glyph glyph-name="Edieresis" unicode="&#xcb;" 
d="M125 1201h1321v-280h-955v-164h902v-260h-902v-217h966v-280h-1332v1201zM702 1539v-233h-279v233h279zM1132 1539v-233h-279v233h279z" />
    <glyph glyph-name="Igrave" unicode="&#xcc;" horiz-adv-x="683" 
d="M146 1201h366v-1201h-366v1201zM57 1571h274l171 -265h-244z" />
    <glyph glyph-name="Iacute" unicode="&#xcd;" horiz-adv-x="683" 
d="M146 1201h366v-1201h-366v1201zM343 1571h278l-200 -265h-245z" />
    <glyph glyph-name="Icircumflex" unicode="&#xce;" horiz-adv-x="683" 
d="M146 1201h366v-1201h-366v1201zM161 1573h367l168 -267h-246l-104 141l-104 -141h-249z" />
    <glyph glyph-name="Idieresis" unicode="&#xcf;" horiz-adv-x="683" 
d="M146 1201h366v-1201h-366v1201zM228 1539v-233h-279v233h279zM658 1539v-233h-279v233h279z" />
    <glyph glyph-name="Eth" unicode="&#xd0;" horiz-adv-x="1821" 
d="M1234 1201l83 -1q126 0 211 -56t130 -164q49 -115 49 -428q0 -159 -12 -225q-21 -128 -85 -206t-192 -106q-68 -15 -223 -15h-1078v452h-108v310h108v439h1117zM483 891v-129h211v-310h-211v-142h654q116 0 157 47q20 22 32.5 63t12.5 98l2 99q0 48 -3 85.5t-11 73.5
q-22 115 -190 115h-654z" />
    <glyph glyph-name="Ntilde" unicode="&#xd1;" horiz-adv-x="1897" 
d="M695 1201l692 -896v896h366v-1201h-582l-692 898v-898h-366v1201h582zM600 1339q23 223 203 223q38 0 74 -6l92 -17l95 -18l50 -8l43 -4q41 0 56 31l5 16h170q0 -250 -201 -250q-13 0 -28.5 1t-32.5 4l-84 14l-96 17l-53 11q-33 6 -60 6q-42 0 -58 -30l-8 -23h-170z" />
    <glyph glyph-name="Ograve" unicode="&#xd2;" horiz-adv-x="1821" 
d="M618 -11q-41 0 -84.5 1.5l-70.5 2.5q-84 0 -149 27t-112 78q-40 40 -57 83q-24 55 -37 152.5t-13 237.5l2 156q0 79 9.5 142.5t28.5 122.5q42 132 184 184q52 19 185 29t350 10l263 -1q276 0 370 -33q190 -66 218 -280q3 -29 6 -78t3 -97l3 -198q0 -125 -9 -201.5
t-38 -141.5q-42 -97 -127.5 -147.5t-213.5 -50.5l-186 -1zM1085 296q87 0 131 6q73 10 104 71t31 261q0 102 -10 147q-16 84 -90 105q-24 6 -55 11t-61 5l-234 3h-132q-31 0 -83.5 -2.5t-64.5 -2.5q-45 0 -76 -15.5t-52 -46.5q-32 -48 -32 -290q0 -170 56 -214
q40 -34 223 -34zM626 1571h274l171 -265h-244z" />
    <glyph glyph-name="Oacute" unicode="&#xd3;" horiz-adv-x="1821" 
d="M618 -11q-41 0 -84.5 1.5l-70.5 2.5q-84 0 -149 27t-112 78q-40 40 -57 83q-24 55 -37 152.5t-13 237.5l2 156q0 79 9.5 142.5t28.5 122.5q42 132 184 184q52 19 185 29t350 10l263 -1q276 0 370 -33q190 -66 218 -280q3 -29 6 -78t3 -97l3 -198q0 -125 -9 -201.5
t-38 -141.5q-42 -97 -127.5 -147.5t-213.5 -50.5l-186 -1zM1085 296q87 0 131 6q73 10 104 71t31 261q0 102 -10 147q-16 84 -90 105q-24 6 -55 11t-61 5l-234 3h-132q-31 0 -83.5 -2.5t-64.5 -2.5q-45 0 -76 -15.5t-52 -46.5q-32 -48 -32 -290q0 -170 56 -214
q40 -34 223 -34zM912 1571h278l-200 -265h-245z" />
    <glyph glyph-name="Ocircumflex" unicode="&#xd4;" horiz-adv-x="1821" 
d="M618 -11q-41 0 -84.5 1.5l-70.5 2.5q-84 0 -149 27t-112 78q-40 40 -57 83q-24 55 -37 152.5t-13 237.5l2 156q0 79 9.5 142.5t28.5 122.5q42 132 184 184q52 19 185 29t350 10l263 -1q276 0 370 -33q190 -66 218 -280q3 -29 6 -78t3 -97l3 -198q0 -125 -9 -201.5
t-38 -141.5q-42 -97 -127.5 -147.5t-213.5 -50.5l-186 -1zM1085 296q87 0 131 6q73 10 104 71t31 261q0 102 -10 147q-16 84 -90 105q-24 6 -55 11t-61 5l-234 3h-132q-31 0 -83.5 -2.5t-64.5 -2.5q-45 0 -76 -15.5t-52 -46.5q-32 -48 -32 -290q0 -170 56 -214
q40 -34 223 -34zM730 1573h367l168 -267h-246l-104 141l-104 -141h-249z" />
    <glyph glyph-name="Otilde" unicode="&#xd5;" horiz-adv-x="1821" 
d="M618 -11q-41 0 -84.5 1.5l-70.5 2.5q-84 0 -149 27t-112 78q-40 40 -57 83q-24 55 -37 152.5t-13 237.5l2 156q0 79 9.5 142.5t28.5 122.5q42 132 184 184q52 19 185 29t350 10l263 -1q276 0 370 -33q190 -66 218 -280q3 -29 6 -78t3 -97l3 -198q0 -125 -9 -201.5
t-38 -141.5q-42 -97 -127.5 -147.5t-213.5 -50.5l-186 -1zM1085 296q87 0 131 6q73 10 104 71t31 261q0 102 -10 147q-16 84 -90 105q-24 6 -55 11t-61 5l-234 3h-132q-31 0 -83.5 -2.5t-64.5 -2.5q-45 0 -76 -15.5t-52 -46.5q-32 -48 -32 -290q0 -170 56 -214
q40 -34 223 -34zM532 1339q23 223 203 223q38 0 74 -6l92 -17l95 -18l50 -8l43 -4q41 0 56 31l5 16h170q0 -250 -201 -250q-13 0 -28.5 1t-32.5 4l-84 14l-96 17l-53 11q-33 6 -60 6q-42 0 -58 -30l-8 -23h-170z" />
    <glyph glyph-name="Odieresis" unicode="&#xd6;" horiz-adv-x="1821" 
d="M618 -11q-41 0 -84.5 1.5l-70.5 2.5q-84 0 -149 27t-112 78q-40 40 -57 83q-24 55 -37 152.5t-13 237.5l2 156q0 79 9.5 142.5t28.5 122.5q42 132 184 184q52 19 185 29t350 10l263 -1q276 0 370 -33q190 -66 218 -280q3 -29 6 -78t3 -97l3 -198q0 -125 -9 -201.5
t-38 -141.5q-42 -97 -127.5 -147.5t-213.5 -50.5l-186 -1zM1085 296q87 0 131 6q73 10 104 71t31 261q0 102 -10 147q-16 84 -90 105q-24 6 -55 11t-61 5l-234 3h-132q-31 0 -83.5 -2.5t-64.5 -2.5q-45 0 -76 -15.5t-52 -46.5q-32 -48 -32 -290q0 -170 56 -214
q40 -34 223 -34zM816 1539v-233h-279v233h279zM1246 1539v-233h-279v233h279z" />
    <glyph glyph-name="multiply" unicode="&#xd7;" horiz-adv-x="2276" 
d="M797 944l339 -339l340 339l158 -155l-344 -341l344 -341l-158 -156l-340 340l-339 -340l-159 156l344 340l-344 342z" />
    <glyph glyph-name="Oslash" unicode="&#xd8;" horiz-adv-x="1821" 
d="M183 126q-22 26 -29 40q-55 98 -55 451q0 151 8 235q12 134 74.5 219.5t197.5 118.5q40 9 99.5 15.5t134.5 6.5l355 3h131l196 -3q59 0 111.5 -10t96.5 -28l47 -22l79 56h194l-185 -138l31 -41q22 -40 34.5 -87.5t12.5 -104.5l2 -153l-2 -281q0 -170 -74 -271.5
t-217 -133.5q-48 -12 -85 -12h-395h-310q-108 0 -183 8t-113 22q-23 6 -60 28l-81 -58h-205zM637 295h105l176 1l285 1q45 0 76 20.5t48 58.5q11 28 17 64.5t6 88.5l2 113l-1 85q0 28 -14 68l-7 21zM1200 903h-170l-280 2q-143 0 -201 -26q-39 -17 -60.5 -60t-21.5 -113
l-2 -101q0 -74 3 -122t11 -81l10 -32z" />
    <glyph glyph-name="Ugrave" unicode="&#xd9;" horiz-adv-x="1821" 
d="M140 1201h366v-681l1 -67q0 -70 44 -109.5t129 -39.5q35 0 106 -4t106 -4q168 0 242 9t114 45.5t40 102.5l3 92v656h366v-787l-5 -56q0 -77 -22.5 -137t-61.5 -105q-69 -78 -224 -111l-54 -10q-84 -9 -438 -9l-258 4q-314 0 -390 181q-29 64 -45 130.5t-16 140.5l-3 97
v662zM626 1571h274l171 -265h-244z" />
    <glyph glyph-name="Uacute" unicode="&#xda;" horiz-adv-x="1821" 
d="M140 1201h366v-681l1 -67q0 -70 44 -109.5t129 -39.5q35 0 106 -4t106 -4q168 0 242 9t114 45.5t40 102.5l3 92v656h366v-787l-5 -56q0 -77 -22.5 -137t-61.5 -105q-69 -78 -224 -111l-54 -10q-84 -9 -438 -9l-258 4q-314 0 -390 181q-29 64 -45 130.5t-16 140.5l-3 97
v662zM912 1571h278l-200 -265h-245z" />
    <glyph glyph-name="Ucircumflex" unicode="&#xdb;" horiz-adv-x="1821" 
d="M140 1201h366v-681l1 -67q0 -70 44 -109.5t129 -39.5q35 0 106 -4t106 -4q168 0 242 9t114 45.5t40 102.5l3 92v656h366v-787l-5 -56q0 -77 -22.5 -137t-61.5 -105q-69 -78 -224 -111l-54 -10q-84 -9 -438 -9l-258 4q-314 0 -390 181q-29 64 -45 130.5t-16 140.5l-3 97
v662zM730 1573h367l168 -267h-246l-104 141l-104 -141h-249z" />
    <glyph glyph-name="Udieresis" unicode="&#xdc;" horiz-adv-x="1821" 
d="M140 1201h366v-681l1 -67q0 -70 44 -109.5t129 -39.5q35 0 106 -4t106 -4q168 0 242 9t114 45.5t40 102.5l3 92v656h366v-787l-5 -56q0 -77 -22.5 -137t-61.5 -105q-69 -78 -224 -111l-54 -10q-84 -9 -438 -9l-258 4q-314 0 -390 181q-29 64 -45 130.5t-16 140.5l-3 97
v662zM796 1539v-233h-279v233h279zM1226 1539v-233h-279v233h279z" />
    <glyph glyph-name="Yacute" unicode="&#xdd;" horiz-adv-x="1745" 
d="M464 1201l395 -483l395 483h469l-683 -782v-419h-366v419l-681 782h471zM874 1571h278l-200 -265h-245z" />
    <glyph glyph-name="Thorn" unicode="&#xde;" horiz-adv-x="1669" 
d="M511 1201v-138h526q151 0 244 -10q223 -21 272 -223q24 -98 24 -212v-15v-13v-12q0 -20 -1 -41t-4 -41q0 -29 -3.5 -49t-14.5 -62q-39 -159 -194 -208q-36 -11 -112 -17.5t-184 -6.5l-141 -1h-412v-152h-366v1201h366zM511 753v-291h453h108q88 0 116 43q23 36 23 128
q0 93 -98 115q-32 5 -167 5h-435z" />
    <glyph glyph-name="germandbls" unicode="&#xdf;" horiz-adv-x="1441" 
d="M160 836q0 203 68 281q41 46 108.5 72t163.5 26q37 0 110.5 2.5t95.5 2.5q47 0 116 -2.5t77 -2.5q40 0 79 -7.5t82 -21.5q181 -56 181 -296q0 -99 -18 -159q-21 -74 -106 -107q119 -39 153 -135q25 -72 25 -211q0 -218 -78.5 -293t-291.5 -75h-316v245h185q103 0 140 23
q51 32 51 128q0 78 -27 118.5t-83 40.5l-110 4h-108v219h86q19 0 40.5 1t45.5 4q66 6 96 29.5t30 89.5q0 88 -30 120q-18 19 -48 30.5t-70 11.5l-84 1q-106 0 -159 -9q-94 -14 -94 -136v-830h-310v836z" />
    <glyph glyph-name="agrave" unicode="&#xe0;" horiz-adv-x="1290" 
d="M855 593q-25 66 -116 66l-141 2l-85 -1q-102 0 -113 -66h-310q0 24 2 36.5t7 35.5q21 118 142 157q76 23 223 37q12 0 79 2t124 2q134 0 218 -8q114 0 183.5 -50t89.5 -136q8 -37 12.5 -71.5t4.5 -75.5l4 -151v-372h-310v116q-60 -87 -166 -111q-40 -9 -90.5 -14
t-113.5 -5q-141 0 -249 19q-186 30 -186 255q0 219 152 258q52 14 139.5 21.5t201.5 7.5q109 0 167 -7.5t117 -62.5l28 -27q0 105 -14 143zM374 267q0 -51 40 -67q25 -9 83 -9l168 -2l98 2q58 0 85 47q12 20 12 43q0 19 -12 37.5t-37.5 29t-63.5 10.5l-129 4q-84 0 -147 -9
q-97 -14 -97 -86zM368 1219h274l171 -265h-244z" />
    <glyph glyph-name="aacute" unicode="&#xe1;" horiz-adv-x="1290" 
d="M855 593q-25 66 -116 66l-141 2l-85 -1q-102 0 -113 -66h-310q0 24 2 36.5t7 35.5q21 118 142 157q76 23 223 37q12 0 79 2t124 2q134 0 218 -8q114 0 183.5 -50t89.5 -136q8 -37 12.5 -71.5t4.5 -75.5l4 -151v-372h-310v116q-60 -87 -166 -111q-40 -9 -90.5 -14
t-113.5 -5q-141 0 -249 19q-186 30 -186 255q0 219 152 258q52 14 139.5 21.5t201.5 7.5q109 0 167 -7.5t117 -62.5l28 -27q0 105 -14 143zM374 267q0 -51 40 -67q25 -9 83 -9l168 -2l98 2q58 0 85 47q12 20 12 43q0 19 -12 37.5t-37.5 29t-63.5 10.5l-129 4q-84 0 -147 -9
q-97 -14 -97 -86zM648 1219h278l-200 -265h-245z" />
    <glyph glyph-name="acircumflex" unicode="&#xe2;" horiz-adv-x="1290" 
d="M855 593q-25 66 -116 66l-141 2l-85 -1q-102 0 -113 -66h-310q0 24 2 36.5t7 35.5q21 118 142 157q76 23 223 37q12 0 79 2t124 2q134 0 218 -8q114 0 183.5 -50t89.5 -136q8 -37 12.5 -71.5t4.5 -75.5l4 -151v-372h-310v116q-60 -87 -166 -111q-40 -9 -90.5 -14
t-113.5 -5q-141 0 -249 19q-186 30 -186 255q0 219 152 258q52 14 139.5 21.5t201.5 7.5q109 0 167 -7.5t117 -62.5l28 -27q0 105 -14 143zM374 267q0 -51 40 -67q25 -9 83 -9l168 -2l98 2q58 0 85 47q12 20 12 43q0 19 -12 37.5t-37.5 29t-63.5 10.5l-129 4q-84 0 -147 -9
q-97 -14 -97 -86zM460 1221h367l168 -267h-246l-104 141l-104 -141h-249z" />
    <glyph glyph-name="atilde" unicode="&#xe3;" horiz-adv-x="1290" 
d="M855 593q-25 66 -116 66l-141 2l-85 -1q-102 0 -113 -66h-310q0 24 2 36.5t7 35.5q21 118 142 157q76 23 223 37q12 0 79 2t124 2q134 0 218 -8q114 0 183.5 -50t89.5 -136q8 -37 12.5 -71.5t4.5 -75.5l4 -151v-372h-310v116q-60 -87 -166 -111q-40 -9 -90.5 -14
t-113.5 -5q-141 0 -249 19q-186 30 -186 255q0 219 152 258q52 14 139.5 21.5t201.5 7.5q109 0 167 -7.5t117 -62.5l28 -27q0 105 -14 143zM374 267q0 -51 40 -67q25 -9 83 -9l168 -2l98 2q58 0 85 47q12 20 12 43q0 19 -12 37.5t-37.5 29t-63.5 10.5l-129 4q-84 0 -147 -9
q-97 -14 -97 -86zM275 987q23 223 203 223q38 0 74 -6l92 -17l95 -18l50 -8l43 -4q41 0 56 31l5 16h170q0 -250 -201 -250q-13 0 -28.5 1t-32.5 4l-84 14l-96 17l-53 11q-33 6 -60 6q-42 0 -58 -30l-8 -23h-170z" />
    <glyph glyph-name="adieresis" unicode="&#xe4;" horiz-adv-x="1290" 
d="M855 593q-25 66 -116 66l-141 2l-85 -1q-102 0 -113 -66h-310q0 24 2 36.5t7 35.5q21 118 142 157q76 23 223 37q12 0 79 2t124 2q134 0 218 -8q114 0 183.5 -50t89.5 -136q8 -37 12.5 -71.5t4.5 -75.5l4 -151v-372h-310v116q-60 -87 -166 -111q-40 -9 -90.5 -14
t-113.5 -5q-141 0 -249 19q-186 30 -186 255q0 219 152 258q52 14 139.5 21.5t201.5 7.5q109 0 167 -7.5t117 -62.5l28 -27q0 105 -14 143zM374 267q0 -51 40 -67q25 -9 83 -9l168 -2l98 2q58 0 85 47q12 20 12 43q0 19 -12 37.5t-37.5 29t-63.5 10.5l-129 4q-84 0 -147 -9
q-97 -14 -97 -86zM561 1187v-233h-279v233h279zM991 1187v-233h-279v233h279z" />
    <glyph glyph-name="aring" unicode="&#xe5;" horiz-adv-x="1290" 
d="M855 593q-25 66 -116 66l-141 2l-85 -1q-102 0 -113 -66h-310q0 24 2 36.5t7 35.5q21 118 142 157q76 23 223 37q12 0 79 2t124 2q134 0 218 -8q114 0 183.5 -50t89.5 -136q8 -37 12.5 -71.5t4.5 -75.5l4 -151v-372h-310v116q-60 -87 -166 -111q-40 -9 -90.5 -14
t-113.5 -5q-141 0 -249 19q-186 30 -186 255q0 219 152 258q52 14 139.5 21.5t201.5 7.5q109 0 167 -7.5t117 -62.5l28 -27q0 105 -14 143zM374 267q0 -51 40 -67q25 -9 83 -9l168 -2l98 2q58 0 85 47q12 20 12 43q0 19 -12 37.5t-37.5 29t-63.5 10.5l-129 4q-84 0 -147 -9
q-97 -14 -97 -86zM458 1321q25 14 71 21t120 7q147 0 191 -27q77 -46 77 -171q0 -93 -42 -144t-122 -51l-84 -2l-122 2q-81 0 -122.5 50.5t-41.5 144.5q0 127 75 170zM564 1152l2 -23q6 -40 84 -40q71 0 83 40l3 23q0 52 -44 60l-48 2l-36 -2q-36 0 -42 -37z" />
    <glyph glyph-name="ae" unicode="&#xe6;" horiz-adv-x="2048" 
d="M113 677q24 129 183 164q51 11 116.5 17t145.5 6q347 0 443 -32l55 -21l60 21q122 32 331 32q106 0 186 -8t126 -22q161 -48 194 -222q6 -40 11.5 -81.5t5.5 -76.5l1 -95h-781q0 -112 29 -137q23 -21 92 -28q31 -3 78.5 -4t53.5 -1h13h12q44 0 79 4q54 0 84 25t30 69h310
q0 -97 -43.5 -162t-129.5 -100q-99 -39 -334 -39q-69 0 -115 2t-108 4q-57 0 -108 15t-103 44q-53 -29 -76 -36q-42 -14 -132.5 -21.5t-218.5 -7.5q-276 0 -349 19q-183 45 -183 261q0 206 145 254q83 27 317 27q137 0 221 -13q70 -9 126 -71l-1 77q0 47 -20 73
q-16 22 -41 28q-43 9 -99 14.5t-107 5.5l-119 -3q-39 0 -60 -16t-21 -46h-310q0 23 2.5 40.5t8.5 40.5zM381 279q0 -48 34 -69q17 -8 79 -16q25 -3 67.5 -4t50.5 -1l122 3q109 0 137 41q10 17 10 43q0 32 -15 53q-14 15 -44 24.5t-80 9.5l-117 3l-118 -3q-126 0 -126 -84z
M1661 540q0 86 -42 103.5t-119 17.5h-95q-72 0 -122 -11q-31 -6 -59 -26q-33 -21 -45 -84h482z" />
    <glyph glyph-name="ccedilla" unicode="&#xe7;" horiz-adv-x="1290" 
d="M851 583q-34 23 -85 29q-25 0 -54 2q-72 5 -91 5q-124 0 -178 -18q-69 -23 -69 -151q0 -67 11 -127t90 -82q38 -10 138 -10q59 0 93 1t63 2q109 12 122 80l4 40h310q0 -150 -51 -231q-57 -90 -200 -118q-43 -8 -75 -12.5t-68 -4.5l-115 -2q-248 0 -358 19
q-201 36 -250 223q-24 90 -24 186q0 127 31 233q26 90 89 139q50 39 126 54q123 24 321 24q134 0 233 -11t161 -32q55 -18 92.5 -57t58.5 -94.5t21 -124.5l1 -42h-310q-12 62 -37 80zM474 -220v-14q0 -62 46 -62h152q68 0 68 55q0 43 -54 43h-161l61 238h163l-28 -111h42
q71 0 109 -39t38 -112q0 -140 -103 -200q-54 -30 -230 -30q-130 0 -180 20q-93 35 -93 142q0 18 1 28t6 42h163z" />
    <glyph glyph-name="egrave" unicode="&#xe8;" horiz-adv-x="1290" 
d="M384 324q0 -95 83 -120q57 -15 158 -15q34 0 71 1t80 3q45 0 72 24t36 69h310v-16q0 -92 -51.5 -159t-135.5 -91q-54 -16 -151 -25t-231 -9q-143 0 -251 15q-236 33 -282 238q-9 41 -14 83.5t-5 89.5q0 126 20 212q27 122 115 173q59 33 162 50t258 17q229 0 322 -21
q186 -39 225 -205q8 -33 11 -53.5t3 -51.5l5 -104l-1 -70h-810zM884 540l-4 28q-8 42 -40 65.5t-88 23.5l-120 4q-68 0 -115 -4q-66 0 -104 -31t-38 -86h509zM368 1219h274l171 -265h-244z" />
    <glyph glyph-name="eacute" unicode="&#xe9;" horiz-adv-x="1290" 
d="M384 324q0 -95 83 -120q57 -15 158 -15q34 0 71 1t80 3q45 0 72 24t36 69h310v-16q0 -92 -51.5 -159t-135.5 -91q-54 -16 -151 -25t-231 -9q-143 0 -251 15q-236 33 -282 238q-9 41 -14 83.5t-5 89.5q0 126 20 212q27 122 115 173q59 33 162 50t258 17q229 0 322 -21
q186 -39 225 -205q8 -33 11 -53.5t3 -51.5l5 -104l-1 -70h-810zM884 540l-4 28q-8 42 -40 65.5t-88 23.5l-120 4q-68 0 -115 -4q-66 0 -104 -31t-38 -86h509zM648 1219h278l-200 -265h-245z" />
    <glyph glyph-name="ecircumflex" unicode="&#xea;" horiz-adv-x="1290" 
d="M384 324q0 -95 83 -120q57 -15 158 -15q34 0 71 1t80 3q45 0 72 24t36 69h310v-16q0 -92 -51.5 -159t-135.5 -91q-54 -16 -151 -25t-231 -9q-143 0 -251 15q-236 33 -282 238q-9 41 -14 83.5t-5 89.5q0 126 20 212q27 122 115 173q59 33 162 50t258 17q229 0 322 -21
q186 -39 225 -205q8 -33 11 -53.5t3 -51.5l5 -104l-1 -70h-810zM884 540l-4 28q-8 42 -40 65.5t-88 23.5l-120 4q-68 0 -115 -4q-66 0 -104 -31t-38 -86h509zM460 1221h367l168 -267h-246l-104 141l-104 -141h-249z" />
    <glyph glyph-name="edieresis" unicode="&#xeb;" horiz-adv-x="1290" 
d="M384 324q0 -95 83 -120q57 -15 158 -15q34 0 71 1t80 3q45 0 72 24t36 69h310v-16q0 -92 -51.5 -159t-135.5 -91q-54 -16 -151 -25t-231 -9q-143 0 -251 15q-236 33 -282 238q-9 41 -14 83.5t-5 89.5q0 126 20 212q27 122 115 173q59 33 162 50t258 17q229 0 322 -21
q186 -39 225 -205q8 -33 11 -53.5t3 -51.5l5 -104l-1 -70h-810zM884 540l-4 28q-8 42 -40 65.5t-88 23.5l-120 4q-68 0 -115 -4q-66 0 -104 -31t-38 -86h509zM561 1187v-233h-279v233h279zM991 1187v-233h-279v233h279z" />
    <glyph glyph-name="igrave" unicode="&#xec;" horiz-adv-x="531" 
d="M411 850v-850h-310v850h310zM-36 1219h274l171 -265h-244z" />
    <glyph glyph-name="iacute" unicode="&#xed;" horiz-adv-x="531" 
d="M411 850v-850h-310v850h310zM269 1219h278l-200 -265h-245z" />
    <glyph glyph-name="icircumflex" unicode="&#xee;" horiz-adv-x="531" 
d="M411 850v-850h-310v850h310zM81 1221h367l168 -267h-246l-104 141l-104 -141h-249z" />
    <glyph glyph-name="idieresis" unicode="&#xef;" horiz-adv-x="531" 
d="M411 850v-850h-310v850h310zM147 1187v-233h-279v233h279zM577 1187v-233h-279v233h279z" />
    <glyph glyph-name="eth" unicode="&#xf0;" horiz-adv-x="1366" 
d="M692 1206l74 -35l188 41l100 -132l-124 -35l134 -130l76 -78q59 -62 82 -104q36 -66 45 -151q4 -43 6 -83.5t2 -90.5q0 -70 -5 -118.5t-18 -89.5q-33 -113 -129 -157q-52 -22 -118.5 -36t-146.5 -14q-47 0 -117 -3.5t-83 -3.5q-284 0 -411 56q-159 68 -159 356l2 114
q0 93 21.5 156t63.5 100q77 68 259 86l176 10l156 3l-106 112l-247 -66l-97 145l171 45l-200 103h405zM398 425q0 -85 22.5 -133t107.5 -55q42 0 65 -1q114 -5 124 -5h17h15h12q21 0 40.5 1t35.5 4q84 8 111 67q17 37 17 136q0 135 -94 163q-26 8 -79.5 12.5t-126.5 4.5
q-157 0 -198 -20q-69 -31 -69 -174z" />
    <glyph glyph-name="ntilde" unicode="&#xf1;" horiz-adv-x="1366" 
d="M419 850v-198q6 21 8 27t9 20q39 102 144 138q37 13 87 20t118 7q258 0 364 -109q62 -64 82 -175q6 -37 9 -81t3 -114v-385h-310v309v87q0 128 -53 169t-176 41q-171 0 -224 -51q-61 -62 -61 -185v-64v-306h-310v850h310zM313 987q23 223 203 223q38 0 74 -6l92 -17
l95 -18l50 -8l43 -4q41 0 56 31l5 16h170q0 -250 -201 -250q-13 0 -28.5 1t-32.5 4l-84 14l-96 17l-53 11q-33 6 -60 6q-42 0 -58 -30l-8 -23h-170z" />
    <glyph glyph-name="ograve" unicode="&#xf2;" horiz-adv-x="1366" 
d="M98 641q24 117 134 165q131 58 438 58q180 0 339 -27.5t212 -134.5q42 -84 42 -255q0 -68 -4 -124.5t-13 -102.5q-21 -124 -128 -175q-130 -59 -448 -59q-157 0 -262.5 12.5t-173.5 40.5q-108 45 -137 162q-9 41 -14 96t-5 124q0 136 20 220zM388 430q0 -74 10 -107
q16 -53 71 -72.5t213 -19.5q104 0 159 11q92 15 107 103q5 38 5 84q0 94 -23 130q-15 27 -43 41.5t-72 14.5l-144 4q-160 0 -204 -17q-79 -27 -79 -172zM406 1219h274l171 -265h-244z" />
    <glyph glyph-name="oacute" unicode="&#xf3;" horiz-adv-x="1366" 
d="M98 641q24 117 134 165q131 58 438 58q180 0 339 -27.5t212 -134.5q42 -84 42 -255q0 -68 -4 -124.5t-13 -102.5q-21 -124 -128 -175q-130 -59 -448 -59q-157 0 -262.5 12.5t-173.5 40.5q-108 45 -137 162q-9 41 -14 96t-5 124q0 136 20 220zM388 430q0 -74 10 -107
q16 -53 71 -72.5t213 -19.5q104 0 159 11q92 15 107 103q5 38 5 84q0 94 -23 130q-15 27 -43 41.5t-72 14.5l-144 4q-160 0 -204 -17q-79 -27 -79 -172zM686 1219h278l-200 -265h-245z" />
    <glyph glyph-name="ocircumflex" unicode="&#xf4;" horiz-adv-x="1366" 
d="M98 641q24 117 134 165q131 58 438 58q180 0 339 -27.5t212 -134.5q42 -84 42 -255q0 -68 -4 -124.5t-13 -102.5q-21 -124 -128 -175q-130 -59 -448 -59q-157 0 -262.5 12.5t-173.5 40.5q-108 45 -137 162q-9 41 -14 96t-5 124q0 136 20 220zM388 430q0 -74 10 -107
q16 -53 71 -72.5t213 -19.5q104 0 159 11q92 15 107 103q5 38 5 84q0 94 -23 130q-15 27 -43 41.5t-72 14.5l-144 4q-160 0 -204 -17q-79 -27 -79 -172zM498 1221h367l168 -267h-246l-104 141l-104 -141h-249z" />
    <glyph glyph-name="otilde" unicode="&#xf5;" horiz-adv-x="1366" 
d="M98 641q24 117 134 165q131 58 438 58q180 0 339 -27.5t212 -134.5q42 -84 42 -255q0 -68 -4 -124.5t-13 -102.5q-21 -124 -128 -175q-130 -59 -448 -59q-157 0 -262.5 12.5t-173.5 40.5q-108 45 -137 162q-9 41 -14 96t-5 124q0 136 20 220zM388 430q0 -74 10 -107
q16 -53 71 -72.5t213 -19.5q104 0 159 11q92 15 107 103q5 38 5 84q0 94 -23 130q-15 27 -43 41.5t-72 14.5l-144 4q-160 0 -204 -17q-79 -27 -79 -172zM313 987q23 223 203 223q38 0 74 -6l92 -17l95 -18l50 -8l43 -4q41 0 56 31l5 16h170q0 -250 -201 -250q-13 0 -28.5 1
t-32.5 4l-84 14l-96 17l-53 11q-33 6 -60 6q-42 0 -58 -30l-8 -23h-170z" />
    <glyph glyph-name="odieresis" unicode="&#xf6;" horiz-adv-x="1366" 
d="M98 641q24 117 134 165q131 58 438 58q180 0 339 -27.5t212 -134.5q42 -84 42 -255q0 -68 -4 -124.5t-13 -102.5q-21 -124 -128 -175q-130 -59 -448 -59q-157 0 -262.5 12.5t-173.5 40.5q-108 45 -137 162q-9 41 -14 96t-5 124q0 136 20 220zM388 430q0 -74 10 -107
q16 -53 71 -72.5t213 -19.5q104 0 159 11q92 15 107 103q5 38 5 84q0 94 -23 130q-15 27 -43 41.5t-72 14.5l-144 4q-160 0 -204 -17q-79 -27 -79 -172zM599 1187v-233h-279v233h279zM1029 1187v-233h-279v233h279z" />
    <glyph glyph-name="divide" unicode="&#xf7;" horiz-adv-x="2276" 
d="M969 226h265v-230h-265v230zM1663 587v-233h-1123v233h1123zM1234 945v-230h-265v230h265z" />
    <glyph glyph-name="oslash" unicode="&#xf8;" horiz-adv-x="1366" 
d="M163 97l-19 27q-26 42 -37 96q-16 86 -16 194q0 155 31 263q35 128 255 165q60 10 139 16t183 6q205 0 336 -32l68 -18l64 47h182l-149 -111q56 -68 68 -164q9 -87 9 -179q0 -167 -30 -242q-42 -110 -183.5 -144.5t-337.5 -34.5q-323 0 -431 37l-33 14l-58 -46h-183z
M540 240l37 -4q43 -5 132 -5l87 2q51 0 85.5 13.5t52.5 37.5q33 44 33 145q0 46 -7 75l-13 43zM831 612l-31 2q-34 0 -91 2.5t-68 2.5q-132 0 -178 -24q-62 -32 -62 -159q0 -56 12 -107l8 -29z" />
    <glyph glyph-name="ugrave" unicode="&#xf9;" horiz-adv-x="1366" 
d="M406 850v-437q0 -94 43 -131q21 -17 54.5 -26.5t80.5 -9.5q15 0 43 -1t41 -1q90 0 132 14q63 20 97 86q13 25 19 56l4 37v413h310v-850h-310v168q-66 -117 -151 -147q-96 -35 -211 -35q-380 0 -445 231q-17 57 -17 131v502h310zM406 1219h274l171 -265h-244z" />
    <glyph glyph-name="uacute" unicode="&#xfa;" horiz-adv-x="1366" 
d="M406 850v-437q0 -94 43 -131q21 -17 54.5 -26.5t80.5 -9.5q15 0 43 -1t41 -1q90 0 132 14q63 20 97 86q13 25 19 56l4 37v413h310v-850h-310v168q-66 -117 -151 -147q-96 -35 -211 -35q-380 0 -445 231q-17 57 -17 131v502h310zM686 1219h278l-200 -265h-245z" />
    <glyph glyph-name="ucircumflex" unicode="&#xfb;" horiz-adv-x="1366" 
d="M406 850v-437q0 -94 43 -131q21 -17 54.5 -26.5t80.5 -9.5q15 0 43 -1t41 -1q90 0 132 14q63 20 97 86q13 25 19 56l4 37v413h310v-850h-310v168q-66 -117 -151 -147q-96 -35 -211 -35q-380 0 -445 231q-17 57 -17 131v502h310zM498 1221h367l168 -267h-246l-104 141
l-104 -141h-249z" />
    <glyph glyph-name="udieresis" unicode="&#xfc;" horiz-adv-x="1366" 
d="M406 850v-437q0 -94 43 -131q21 -17 54.5 -26.5t80.5 -9.5q15 0 43 -1t41 -1q90 0 132 14q63 20 97 86q13 25 19 56l4 37v413h310v-850h-310v168q-66 -117 -151 -147q-96 -35 -211 -35q-380 0 -445 231q-17 57 -17 131v502h310zM599 1187v-233h-279v233h279zM1029 1187
v-233h-279v233h279z" />
    <glyph glyph-name="yacute" unicode="&#xfd;" horiz-adv-x="1290" 
d="M368 850l251 -626l262 626h352l-423 -906q-83 -177 -105 -211q-34 -54 -82 -81.5t-112 -27.5l-142 -2h-84v245h50l64 2q67 0 105 58q5 8 16 30.5t19 42.5h-129l-384 850h342zM648 1219h278l-200 -265h-245z" />
    <glyph glyph-name="thorn" unicode="&#xfe;" horiz-adv-x="1366" 
d="M101 1206h304v-502q68 111 157 138q35 10 87.5 16t127.5 6q418 0 476 -220q21 -84 21 -178q0 -145 -22 -238.5t-65 -138.5q-102 -103 -371 -103q-130 0 -223 18q-102 21 -182 122v-504h-310v1584zM796 231q99 0 136 53q15 22 23.5 59.5t8.5 89.5q0 98 -42 140
q-23 21 -57.5 32.5t-85.5 11.5l-182 2l-54 -2q-41 0 -78 -31.5t-43 -88.5l-1 -99l2 -59q0 -46 41 -78q23 -21 68 -25l60 -3z" />
    <glyph glyph-name="ydieresis" unicode="&#xff;" horiz-adv-x="1290" 
d="M368 850l251 -626l262 626h352l-423 -906q-83 -177 -105 -211q-34 -54 -82 -81.5t-112 -27.5l-142 -2h-84v245h50l64 2q67 0 105 58q5 8 16 30.5t19 42.5h-129l-384 850h342zM541 1187v-233h-279v233h279zM971 1187v-233h-279v233h279z" />
    <glyph glyph-name="breve" unicode="&#x2d8;" 
d="M659 1164q22 0 106 -5q34 -2 63 -2h13h11q19 0 38 1t36 4q63 7 79 50l6 20h180v-38q0 -174 -111 -207q-51 -16 -125 -24.5t-172 -8.5q-164 0 -256 27q-78 23 -108 67q-12 18 -20.5 50.5t-8.5 73.5l-2 60h181q0 -59 90 -68z" />
    <glyph glyph-name="dotaccent" unicode="&#x2d9;" 
d="M955 1187v-233h-279v233h279z" />
    <glyph glyph-name="dotlessi" unicode="&#x131;" horiz-adv-x="531" 
d="M411 850v-850h-310v850h310z" />
    <glyph glyph-name="ring" unicode="&#x2da;" 
d="M610 1321q25 14 71 21t120 7q147 0 191 -27q77 -46 77 -171q0 -93 -42 -144t-122 -51l-84 -2l-122 2q-81 0 -122.5 50.5t-41.5 144.5q0 127 75 170zM716 1152l2 -23q6 -40 84 -40q71 0 83 40l3 23q0 52 -44 60l-48 2l-36 -2q-36 0 -42 -37z" />
    <glyph glyph-name="ogonek" unicode="&#x2db;" 
d="M1189 39l-33 -23l-54 -40q-57 -42 -88 -98q-15 -24 -15 -49q0 -69 78 -69q44 0 104 30l51 27v-180l-34 -14q-103 -43 -188 -43q-34 0 -58 4t-55 16q-108 38 -108 151q0 79 80 150q34 31 81.5 60.5t100.5 55.5l84 36l36 14z" />
    <glyph glyph-name="caron" unicode="&#x2c7;" 
d="M693 1221l104 -141l104 141h246l-168 -267h-367l-168 267h249z" />
    <glyph glyph-name="Lslash" unicode="&#x141;" horiz-adv-x="1403" 
d="M555 1201v-147l140 145v-379l-140 -148v-362h799v-310h-1165v300l-140 -143v378l140 143v523h366z" />
    <glyph glyph-name="lslash" unicode="&#x142;" horiz-adv-x="569" 
d="M128 588v618h310v-286l120 128v-339l-120 -126v-583h-310v253l-120 -122v331z" />
    <glyph glyph-name="fraction" unicode="&#x2215;" horiz-adv-x="228" 
d="M497 1229h197l-968 -1253h-197z" />
    <glyph glyph-name="fi" unicode="&#xf001;" horiz-adv-x="1403" 
d="M176 850v60q0 194 130 260q50 25 125.5 37.5t178.5 12.5l89 -3l73 -9v-233h-94q-94 0 -135 -15q-57 -22 -57 -110h275v-219h-275v-631h-310v631h-166v219h166zM989 850h310v-850h-310v850zM1299 1206v-239h-313v239h313z" />
    <glyph glyph-name="fl" unicode="&#xf002;" horiz-adv-x="1403" 
d="M178 850v60q0 197 131 261q48 23 125 36t180 13q53 0 88 -3l72 -9v-233h-94q-94 0 -135 -15q-57 -22 -57 -110h275v-219h-275v-631h-310v631h-166v219h166zM1301 1206v-1206h-310v1206h310z" />
    <glyph glyph-name="Zcaron" unicode="&#x17d;" 
d="M967 921h-877v280h1397v-273l-887 -648h903v-280h-1439v280zM700 1573l104 -141l104 141h246l-168 -267h-367l-168 267h249z" />
    <glyph glyph-name="zcaron" unicode="&#x17e;" horiz-adv-x="1214" 
d="M665 631h-540v219h959v-240l-550 -391h566v-219h-1013v211zM503 1221l104 -141l104 141h246l-168 -267h-367l-168 267h249z" />
    <glyph glyph-name="Cacute" unicode="&#x106;" horiz-adv-x="1745" 
d="M1187 880q-45 25 -128 25h-223q-85 0 -129.5 -1t-80.5 -2q-55 0 -91.5 -22.5t-51.5 -64.5q-8 -22 -12 -63.5t-4 -111.5q0 -182 12 -232q29 -111 182 -111l242 -1l202 -1q131 0 145 124l2 44h366v-59q0 -147 -32 -231q-12 -38 -42 -67q-83 -86 -303 -107q-45 -4 -98 -8
t-125 -4l-141 -1q-81 0 -138 1l-109 2q-34 0 -74.5 3.5t-86.5 9.5q-78 9 -144 33q-79 24 -124 81q-68 78 -84 189t-16 269q0 164 11 280q0 33 7.5 64.5t21.5 65.5q63 169 273 205q162 26 445 26h167q307 0 432 -61q90 -44 128 -171q16 -56 16 -218h-366q0 88 -49 115z
M897 1571h278l-200 -265h-245z" />
    <glyph glyph-name="cacute" unicode="&#x107;" horiz-adv-x="1290" 
d="M851 583q-34 23 -85 29q-25 0 -54 2q-72 5 -91 5q-124 0 -178 -18q-69 -23 -69 -151q0 -67 11 -127t90 -82q38 -10 138 -10q59 0 93 1t63 2q109 12 122 80l4 40h310q0 -150 -51 -231q-57 -90 -200 -118q-43 -8 -75 -12.5t-68 -4.5l-115 -2q-248 0 -358 19
q-201 36 -250 223q-24 90 -24 186q0 127 31 233q26 90 89 139q50 39 126 54q123 24 321 24q134 0 233 -11t161 -32q55 -18 92.5 -57t58.5 -94.5t21 -124.5l1 -42h-310q-12 62 -37 80zM660 1219h278l-200 -265h-245z" />
    <glyph glyph-name="Ccaron" unicode="&#x10c;" horiz-adv-x="1745" 
d="M1187 880q-45 25 -128 25h-223q-85 0 -129.5 -1t-80.5 -2q-55 0 -91.5 -22.5t-51.5 -64.5q-8 -22 -12 -63.5t-4 -111.5q0 -182 12 -232q29 -111 182 -111l242 -1l202 -1q131 0 145 124l2 44h366v-59q0 -147 -32 -231q-12 -38 -42 -67q-83 -86 -303 -107q-45 -4 -98 -8
t-125 -4l-141 -1q-81 0 -138 1l-109 2q-34 0 -74.5 3.5t-86.5 9.5q-78 9 -144 33q-79 24 -124 81q-68 78 -84 189t-16 269q0 164 11 280q0 33 7.5 64.5t21.5 65.5q63 169 273 205q162 26 445 26h167q307 0 432 -61q90 -44 128 -171q16 -56 16 -218h-366q0 88 -49 115z
M787 1573l104 -141l104 141h246l-168 -267h-367l-168 267h249z" />
    <glyph glyph-name="ccaron" unicode="&#x10d;" horiz-adv-x="1290" 
d="M851 583q-34 23 -85 29q-25 0 -54 2q-72 5 -91 5q-124 0 -178 -18q-69 -23 -69 -151q0 -67 11 -127t90 -82q38 -10 138 -10q59 0 93 1t63 2q109 12 122 80l4 40h310q0 -150 -51 -231q-57 -90 -200 -118q-43 -8 -75 -12.5t-68 -4.5l-115 -2q-248 0 -358 19
q-201 36 -250 223q-24 90 -24 186q0 127 31 233q26 90 89 139q50 39 126 54q123 24 321 24q134 0 233 -11t161 -32q55 -18 92.5 -57t58.5 -94.5t21 -124.5l1 -42h-310q-12 62 -37 80zM553 1221l104 -141l104 141h246l-168 -267h-367l-168 267h249z" />
    <glyph glyph-name="dcroat" unicode="&#x111;" horiz-adv-x="1403" 
d="M932 1206h310v-103h141v-152h-141v-951h-297v157q-83 -171 -384 -171q-20 0 -67 2t-49 2q-42 0 -82.5 8t-90.5 22q-138 39 -174 161q-29 104 -29 247q0 272 108 355q52 40 144.5 60.5t226.5 20.5q113 0 209 -19.5t153 -98.5l22 -33v238h-302v152h302v103zM379 424
q0 -141 75 -173q51 -20 201 -20q192 0 241 37q41 28 41 186q0 81 -31 118q-26 29 -78 38q-26 3 -69 6t-81 3q-39 0 -99.5 -2.5t-69.5 -2.5q-82 0 -110 -61q-20 -42 -20 -129z" />
    <glyph glyph-name="Scedilla" unicode="&#x15e;" horiz-adv-x="1669" 
d="M442 407q0 -95 49 -122q18 -9 51.5 -14.5t86.5 -5.5l104 -3h268h97q111 0 111 94q0 79 -76 91l-74 5l-74 3l-220 9l-107 6l-184 10q-43 0 -77.5 2.5t-92.5 13.5q-155 25 -191 155q-21 72 -21 156q0 152 28 221q46 114 154 150.5t447 36.5q62 0 177 -4t168 -4
q113 0 197.5 -16t140.5 -44q64 -32 99 -97t35 -163v-81h-366l-6 44q-12 59 -63 77q-3 1 -24 4q-40 6 -80 6l-99 4h-214l-95 -3q-39 0 -72 -11q-61 -14 -61 -83q0 -70 74 -89q15 -3 39 -6t42 -3l95 -2l337 -11l196 -8q39 0 77.5 -7.5t77.5 -20.5q179 -60 179 -345
q0 -315 -290 -353q-18 -2 -51 -5t-54 -3q-55 0 -141.5 -2.5t-101.5 -2.5q-18 0 -166.5 4.5t-229.5 4.5q-34 0 -68 1.5t-68 5.5q-76 0 -136.5 22t-105.5 60q-37 32 -60 93.5t-23 145.5l-4 84h366zM651 -220v-14q0 -62 46 -62h152q68 0 68 55q0 43 -54 43h-161l61 238h163
l-28 -111h42q71 0 109 -39t38 -112q0 -140 -103 -200q-54 -30 -230 -30q-130 0 -180 20q-93 35 -93 142q0 18 1 28t6 42h163z" />
    <glyph glyph-name="scedilla" unicode="&#x15f;" horiz-adv-x="1290" 
d="M387 283q15 -80 110 -89l75 -4l96 -1q83 0 140 7q37 0 56.5 16t19.5 44q0 50 -43 65q-22 7 -82 13l-112 6l-191 8q-88 0 -151.5 9.5t-96.5 24.5q-118 50 -118 203q0 234 214 264q45 6 118.5 10.5t145.5 4.5q33 0 159 -7q72 -4 106 -4q70 0 130 -13q48 -10 82 -27
q54 -25 83 -67.5t29 -104.5v-52h-310l-14 24q-27 39 -98 46l-82 2l-96 -1q-47 0 -102 -6t-55 -48q0 -27 17.5 -41t52.5 -14l95 -4l195 -5q31 0 76 -2.5t51 -2.5q43 0 82.5 -7.5t81.5 -21.5q143 -45 143 -227q0 -177 -92 -236q-41 -26 -106 -41.5t-150 -15.5l-175 -2
q-252 0 -360 17t-171 71.5t-63 143.5v65h310zM471 -220v-14q0 -62 46 -62h152q68 0 68 55q0 43 -54 43h-161l61 238h163l-28 -111h42q71 0 109 -39t38 -112q0 -140 -103 -200q-54 -30 -230 -30q-130 0 -180 20q-93 35 -93 142q0 18 1 28t6 42h163z" />
    <glyph glyph-name="franc" unicode="&#x20a3;" horiz-adv-x="2503" 
d="M1377 1201v-280h-891v-230h842v-280h-842v-411h-366v1201h1257zM1766 850v-163l23 47q70 130 281 130q70 0 135 -9q124 -16 185 -110q43 -68 43 -215v-66h-310l-4 39q-9 65 -51 86q-16 8 -42.5 12.5t-59.5 4.5q-46 0 -82.5 -8t-57 -25t-32.5 -51.5t-12 -86.5l-2 -93v-342
h-310v850h296z" />
    <glyph glyph-name="Gbreve" unicode="&#x11e;" horiz-adv-x="1745" 
d="M1267 784q0 56 -30 87t-84 31q-53 0 -119 1l-128 2l-228 -1q-112 0 -164 -35q-29 -20 -45.5 -57.5t-16.5 -92.5l-4 -129q0 -88 8 -148q13 -128 120 -140q45 -6 138 -6h146l249 1q169 0 169 108v39h-456v245h822v-43q0 -314 -11.5 -393.5t-79.5 -154.5q-60 -66 -158 -84
q-32 -6 -68 -11.5t-67 -5.5q-29 0 -240 -7q-121 -4 -187 -4l-255 2q-159 0 -240 25q-128 37 -188 143q-29 49 -46 119.5t-17 156.5q0 67 -1 108q-4 165 -4 180l1 89q0 35 6 70t20 72q66 203 309 244q29 5 68.5 10t61.5 5l302 5q92 0 190 -1.5t208 -2.5q189 0 287 -88
t98 -258v-81h-366zM748 1516q22 0 106 -5q34 -2 63 -2h13h11q19 0 38 1t36 4q63 7 79 50l6 20h180v-38q0 -174 -111 -207q-51 -16 -125 -24.5t-172 -8.5q-164 0 -256 27q-78 23 -108 67q-12 18 -20.5 50.5t-8.5 73.5l-2 60h181q0 -59 90 -68z" />
    <glyph glyph-name="gbreve" unicode="&#x11f;" horiz-adv-x="1366" 
d="M410 -83q21 -56 55.5 -71.5t94.5 -15.5l127 -5q122 0 166 17q78 31 78 135v169q-18 -30 -33 -48q-78 -98 -369 -98q-262 0 -357 78q-104 86 -104 345q0 55 3 102.5t10 90.5q18 112 91.5 163t193 68t233.5 17q85 0 146 -11q118 -20 198 -158v155h298v-821q0 -184 -77 -278
q-84 -98 -261 -118q-89 -11 -222 -11q-183 0 -290 11q-185 16 -248 127q-23 36 -30 77l-13 80h310zM378 433q0 -50 5 -82t17 -50q32 -51 119 -51q46 0 113.5 -2.5t74.5 -2.5q101 0 139 12q71 24 78 106l2 77q0 59 -7 91q-16 73 -99 85l-139 3l-127 -2q-153 0 -168 -83
q-8 -35 -8 -101zM545 1164q22 0 106 -5q34 -2 63 -2h13h11q19 0 38 1t36 4q63 7 79 50l6 20h180v-38q0 -174 -111 -207q-51 -16 -125 -24.5t-172 -8.5q-164 0 -256 27q-78 23 -108 67q-12 18 -20.5 50.5t-8.5 73.5l-2 60h181q0 -59 90 -68z" />
    <glyph glyph-name="Idotaccent" unicode="&#x130;" horiz-adv-x="683" 
d="M146 1201h366v-1201h-366v1201zM474 1539v-233h-279v233h279z" />
    <glyph glyph-name="pi" unicode="&#x3c0;" horiz-adv-x="1252" 
d="M266 794h-126l51 188h1169l-64 -188h-108l-237 -794h-285l238 794h-354l-235 -794h-290z" />
    <glyph glyph-name="c275" unicode="&#x2126;" horiz-adv-x="1669" 
d="M120 253h325q-93 58 -135 100q-84 80 -126 211q-33 104 -33 218q0 302 193 486q178 170 497 170q310 0 487 -173q190 -184 190 -482q0 -62 -9 -118t-29 -114q-36 -110 -98 -176q-44 -47 -162 -122h327v-253h-636v253q74 41 116 76q95 75 143.5 183.5t48.5 248.5
q0 186 -97 317q-110 150 -288 150q-174 0 -287 -149q-97 -127 -97 -314q0 -170 76 -297.5t232 -214.5v-253h-638v253z" />
    <glyph glyph-name="partialdiff" unicode="&#x2202;" horiz-adv-x="986" 
d="M138 1036q16 181 123 280q117 108 287 108q216 0 323 -161q48 -73 71 -161q16 -68 25 -143t9 -153q0 -272 -76 -463q-99 -253 -309 -336q-86 -35 -197 -35q-187 0 -298 99q-126 112 -126 284q0 98 44 182q66 126 185 214q176 131 444 211l54 15l-5 32q-36 217 -192 217
q-85 0 -133 -62t-48 -181h-185zM699 802l-55 -23q-73 -31 -127 -60q-268 -144 -268 -359q0 -190 147 -190q118 0 192 134q37 64 61 142t37.5 154t13.5 151z" />
    <glyph glyph-name="Delta" unicode="&#x2206;" horiz-adv-x="1517" 
d="M566 1410h375l527 -1410h-1429zM424 229h642l-319 962z" />
    <glyph glyph-name="product" unicode="&#x220f;" horiz-adv-x="1669" 
d="M1440 1410v-1410h-292v1177h-625v-1177h-292v1410h1209z" />
    <glyph glyph-name="c279" unicode="&#x2211;" horiz-adv-x="2048" 
d="M1027 510l-586 665v218h1182v-199h-919l602 -684l-624 -712h941v-199h-1198v212z" />
    <glyph glyph-name="c280" unicode="&#x2212;" horiz-adv-x="2276" 
d="M1700 587v-233h-1126v233h1126z" />
    <glyph glyph-name="radical" unicode="&#x221a;" horiz-adv-x="1479" 
d="M1345 1550h384v-86h-282l-556 -1825h-75l-571 824l-146 -106l-44 97l299 195l509 -753z" />
    <glyph glyph-name="infinity" unicode="&#x221e;" horiz-adv-x="2048" 
d="M1172 876q96 69 210 69q147 0 259 -106.5t112 -262.5q0 -155 -106.5 -261.5t-261.5 -106.5q-120 0 -216 68q-66 48 -145 175l-40 -59q-134 -189 -319 -189q-110 0 -200 59q-169 106 -169 311q0 150 109.5 262t261.5 112q107 0 196 -59q69 -45 115 -110l46 -68
q84 120 148 166zM944 576l-51 91q-86 140 -223 140q-94 0 -164 -66.5t-70 -165.5q0 -101 68 -166.5t164 -65.5q93 0 168 75q43 45 108 158zM1099 576q20 -36 39.5 -65.5t40.5 -54.5q80 -108 204 -108q95 0 162.5 65.5t67.5 160.5q0 93 -66 162t-161 69q-96 0 -175 -73
q-41 -38 -112 -156z" />
    <glyph glyph-name="integral" unicode="&#x222b;" horiz-adv-x="2048" 
d="M491 -136l48 -7l65 -3q154 0 241 65q45 33 70 90.5t25 138.5l3 183v614q0 245 34 403q51 236 220 327q50 27 118.5 41.5t125.5 14.5q45 0 95 -7l21 -3v-171l-46 6l-58 4q-23 0 -45.5 -3t-51.5 -11q-61 -16 -96 -38q-155 -95 -155 -543v-509l-4 -281q0 -128 -32.5 -220.5
t-94.5 -149.5q-134 -122 -374 -122q-46 0 -73 4l-36 6v171z" />
    <glyph glyph-name="approxequal" unicode="&#x2248;" horiz-adv-x="2048" 
d="M415 397q87 130 174 172q79 38 179 38q101 0 260.5 -75t261.5 -75q122 0 224 86l31 28l125 -95q-52 -62 -92 -97q-54 -51 -136 -80q-66 -24 -136 -24q-97 0 -192 37l-126 52q-146 61 -224 61q-155 0 -247 -148l-132 72zM415 693q87 130 174 172q79 38 179 38
q101 0 260.5 -75t261.5 -75q122 0 224 86l31 28l125 -95q-52 -62 -92 -97q-54 -51 -136 -80q-66 -24 -136 -24q-97 0 -192 37l-126 52q-146 61 -224 61q-155 0 -247 -148l-132 72z" />
    <glyph glyph-name="notequal" unicode="&#x2260;" horiz-adv-x="2048" 
d="M1179 828l316 369h165l-315 -369h313v-135h-430l-236 -277h666v-135h-782l-319 -374h-167l320 374h-323v135h439l236 277h-675v135h792z" />
    <glyph glyph-name="lessequal" unicode="&#x2264;" horiz-adv-x="2048" 
d="M1690 159v-159h-1271v159h1271zM1690 1145v-171l-883 -283l883 -288v-174l-1271 411v105z" />
    <glyph glyph-name="greaterequal" unicode="&#x2265;" horiz-adv-x="2048" 
d="M1693 159v-159h-1271v159h1271zM1693 733v-105l-1271 -399v167l881 285l-881 290v174z" />
    <glyph glyph-name="lozenge" unicode="&#x25ca;" horiz-adv-x="2048" 
d="M1023 1387l633 -705l-633 -705l-633 705zM478 682l545 -595l545 595l-545 595z" />
    <glyph glyph-name="apple" unicode="&#xf000;" horiz-adv-x="1022" 
d="M76 0v1314h870v-1314h-870zM332 256h358v802h-358v-802z" />
    </font>
</defs>
</svg>
