<svg xmlns="http://www.w3.org/2000/svg" width="500.51" height="122.525" viewBox="0 0 500.51 122.525"><defs><style>.a{fill:#fff;}</style></defs><path class="a" d="M993.014,358.85c-1.286.018-4.418-.15-7.549,0-13.244.7-24.546,9.753-31.936,25.06-.036.074-.067.13-.1.207l.7-3.672a18.448,18.448,0,0,0-4.283-14.948,20.518,20.518,0,0,0-14.157-6.647h-1.944l-3.136,16.425c-1.654-5.6-6.227-10.7-13.56-14.57a41.661,41.661,0,0,0-20.831-4.631c-.364-.036-.756-.036-1.129-.036a58.756,58.756,0,0,0-11.915,1.2c-21.7,4.35-40.457,20.5-44.928,43.943a44.586,44.586,0,0,0-.442,15.244c-10.461-10.921-30.438-16.22-32.535-24.313a.4.4,0,0,1-.031-.15,4.884,4.884,0,0,1-.148-.961c0-3.012,3.529-6.249,6.07-8.189l.936-.678c.334-.227.689-.471,1.024-.7a353.847,353.847,0,0,1,38.9-23.213l.063-.321H827.389c-2.231,7.908-4.438,13.293-19.866,23.911l-21.576,15.1,9.924-52a18.4,18.4,0,0,0-4.348-16.229c-3.78-4.142-9.619-6.7-16.627-6.721h-.061l-11.724,61.42c-5.1-23.646-27.578-32.865-54.711-25.529-16.627,4.494-29.992,14.016-37.536,26.194,3.01-19.192-6.353-28.007-25-28.007-13.726,0-23.819,5.318-33.341,12.957h-.007l5.167-26.975c.045-.476.117-1.255.159-1.731-.3-9.7-7.877-17.192-18.831-18.326h-2.936L573.17,441.972h25.417l13.332-69.849c.121-.094.267-.209.384-.285,8.07-6.191,14.633-8.622,21.21-8.622,15.8,0,13.161,14.687,12.054,20.485l-11.12,58.271h25.395l5.073-26.573c4.638,24.454,27.379,34.077,54.928,26.631,16.1-4.353,29.224-13.5,36.894-25.24l-4.806,25.179h25.417l7.859-41.175,14.25-9.866c-.018.092-.056.189-.074.281l-.011.058c-2.525,13.554,21.287,21.52,17.471,41.514A23.51,23.51,0,0,1,813,441.97h28.373a27.417,27.417,0,0,0,2.35-7,21.768,21.768,0,0,0,.373-3.787c6.456,8.121,17.107,12.667,30.115,12.667,17.848,0,32.353-8.6,44.728-22.2l-1.839-1.093c-9.973,10-20.716,14.063-29.983,14.063-10.092,0-17.349-4.557-20.42-13.931,0-.02-.013-.038-.009-.058-.072-.283-.117-.584-.166-.864a19.133,19.133,0,0,1-.251-2.26,11.06,11.06,0,0,1,1.178-6.063,2.172,2.172,0,0,1,.193-.357,8.031,8.031,0,0,1,1.311-1.675,5.08,5.08,0,0,1,.476-.433,12.5,12.5,0,0,1,4.593-2.072.207.207,0,0,1,.067-.018c12.916-3.2,39.323,3.2,52.266-13.688.406-.53.779-1.06,1.134-1.592l-9.76,51.135h25.19l10.265-53.788c.236-.471.489-.943.723-1.394a21.461,21.461,0,0,1,4.287-6.873c.011-.056.034-.056.056-.074a25.288,25.288,0,0,1,7.948-5.892,22.517,22.517,0,0,1,9.715-2.242c5.749,0,10.485,2.373,13.313,6.2l.842.038,3.791-19.864ZM720.383,439.707c-14.505,3.924-25.262-9.942-28.934-33.951-3.65-23.857,1.033-41.429,16.232-45.536,14.681-3.969,25.457,10.047,29.152,34.2C740.44,417.983,735.582,435.6,720.383,439.707ZM910.1,378.46a21.657,21.657,0,0,1-3.578,6.608c-7.459,9.715-19.275,11.823-28.793,14.874-.328.094-.66.207-.97.319s-.6.207-.889.321c-9.268,3.6-10.638,10.11-10.766,10.9a18,18,0,0,1-.056-1.883c-.036-.678-.027-1.374,0-2.07a74.167,74.167,0,0,1,1.374-11.976c3.654-19.147,12.162-31.967,23.087-35.9a21.493,21.493,0,0,1,7.358-1.282c.02,0,.206,0,.494.02a4.662,4.662,0,0,1,.732.056,2.487,2.487,0,0,1,.386.038C902.848,358.936,915.49,361.721,910.1,378.46ZM573.114,420.567c-9.976,10-20.708,14.065-29.974,14.065-16.822,0-25.733-12.658-20.692-39.065,4.442-23.28,16.023-37.188,30.439-37.188,10.645,0,9.4,12.274,14.411,22.9l16.539-11.493c-5.917-7.657-16.254-13.749-32.732-13.749-26.429,0-51.568,17.5-56.845,45.155-5.01,26.247,11.251,42.656,35.967,42.656,17.85,0,32.36-8.593,44.74-22.187Z" transform="translate(-493.352 -321.965)"/></svg>