<?xml version="1.0" encoding="utf-8"?>
<!-- Generator: Adobe Illustrator 26.0.1, SVG Export Plug-In . SVG Version: 6.00 Build 0)  -->
<svg version="1.1" id="Lockup" xmlns="http://www.w3.org/2000/svg" xmlns:xlink="http://www.w3.org/1999/xlink" x="0px" y="0px"
	 viewBox="0 0 486.3 287.4" style="enable-background:new 0 0 486.3 287.4;" xml:space="preserve">
<style type="text/css">
	.st0{fill:#75C5D6;}
	.st1{fill:#FFFFFF;}
</style>
<path id="Path_1" class="st0" d="M332.7,211h32.9c4.4,0,7.2-2.2,7.5-5.9c0.5-5.1-2.5-7.8-9-13.6c-3-2.8-3.9-7-2.5-12.5
	c0.2-0.6,0.2-1.3-0.2-1.8c-0.3-0.3-0.7-0.5-1.1-0.5c-1.2,0-1.5,1.4-1.6,1.8c-1.8,7.4-2.1,11.5,3.1,16.9c5,5.8,3.7,8.5,3.2,9.4
	c-1,2.1-3.2,2.2-5.9,2.2h-18.8c-0.1,0-0.2,0-0.3,0c0-0.1-0.1-0.3-0.1-0.5v-54.1c0-0.6-0.5-1.2-1.2-1.2l0,0h-5.8
	c-0.6,0-1.2,0.5-1.2,1.2l0,0v57.4C331.6,210.4,332.1,211,332.7,211L332.7,211z M230.8,207.3c1.1,0.6,2.2,1.2,3.4,1.7
	c3.9,1.8,8.1,2.7,12.3,2.7h0.4c5.3-0.1,10.5-1.6,15-4.4c1.7-1,3.2-2.2,4.5-3.6c0.1-0.1,0.1-0.1,0.1-0.2c0.7-1,0.5-2.3-0.4-3.1l0,0
	c-1.6-1.3-3,0.2-4.2,1.3l-0.2,0.2c-3.1,3.3-8.9,5.6-14.1,5.6h-0.2h-0.1c-0.7,0.1-1.4,0.1-2,0.1c-2.2,0-4.3-0.3-6.4-0.9
	c-10-3-16.5-13.6-15.9-25.7c0.1-2.1,0.4-4.2,1-6.2c3.2-11.7,13-20.3,23.4-20.4h0.2c5.2,0,11,2.3,14.2,5.6l0.2,0.2
	c1.1,1.1,2.6,2.6,4.2,1.3c0.9-0.8,1.1-2.1,0.4-3.1c-0.4-0.6-0.9-1.2-1.5-1.7c-4.4-4.2-10.7-6.6-17.8-6.6h-0.4h-0.4
	c-4.2,0-8.4,0.9-12.3,2.7c-1.2,0.5-2.3,1.1-3.4,1.7c-14.5,8.3-19.6,26.9-11.2,41.4C222.2,200.8,226.1,204.6,230.8,207.3L230.8,207.3
	z M430.9,210.9h20.5c11.4,0,20.3-4.9,25.7-14.1c4.5-8,5.3-17.6,2.1-26.2c-5-12.9-15.6-19.4-31.6-19.4h-16.7c-0.6,0-1.2,0.5-1.2,1.2
	v57.4C429.7,210.4,430.2,211,430.9,210.9C430.9,211,430.9,211,430.9,210.9L430.9,210.9z M438,155.1c0-0.3,0.1-0.4,0.4-0.4h9.6
	c7.6,0,17.8,3.5,22.8,20.3c2.4,8.1,0.9,17-4.2,23.8c-4.1,5.5-9.9,8.6-15.9,8.6h-12.4c-0.2,0-0.4,0-0.4-0.5L438,155.1z M174.4,189.2
	c2.2-0.8,4.8-3.7,3.8-6.7c-0.6-1.8-2.4-2.8-4.8-2.8c-1.1,0-2.1,0.2-3.1,0.6c-6.1,2.3-9.3,9.4-7.7,16.7c1.5,6.9,8.5,14.9,23.5,14.9
	c9.5,0,17.5-3.2,22.2-8.7c3.5-4.2,4.9-9.8,3.8-15.2c-2.2-12.4-15.3-14.6-27.9-15.2c-11.3-0.5-13.5-3.9-13.5-9.2
	c0-6.2,8-9.9,15.8-9.9c5.1,0,9.5,1.6,12.1,4.3c1.6,1.7,2.5,4,2.3,6.3c-0.2,2.5,0.7,3.8,1.4,4.5c0.9,0.8,2.2,1.1,3.4,0.8
	c2.5-0.5,3.7-2.6,3.2-5.5c-1.4-8.4-10-13.6-22.4-13.6c-13,0-23.6,5.9-23.6,13.2c0,8,6.8,12,21.3,12.8c10.4,0.5,16.6,4.8,18.5,12.7
	c1.2,4.6,0.1,9.5-2.8,13.3c-3.1,3.9-8,6.1-13.7,6.1c-4.8,0.1-9.5-1.7-12.8-5.2c-2.2-2.3-3.4-5.3-3.2-7.5
	C170.2,194.3,170.9,190.7,174.4,189.2z M381,211h40.7c0.6,0,1.2-0.5,1.2-1.2l0,0v-0.3c0-2.5-0.7-5.6-2.5-6.9
	c-0.9-0.7-2.2-0.8-3.2-0.4l-0.9,0.3c-8.3,3.2-17.1,4.9-26,5.1H389c-0.6,0-0.7,0-0.7-0.8v-21.4c0-2.1,0.8-7,8.3-7
	c1.4,0,2.8,0.2,4.2,0.5c1.2,0.2,2.4,0.4,3.7,0.4c5.4,0,8.5-2.8,12.5-6.3c0.2-0.2,0.4-0.5,0.5-0.8c0.2-0.5,0-1.1-0.4-1.4
	c-0.6-0.6-1.6-0.6-2.2,0l0,0c-3.8,3.2-7,4.8-9.9,4.8c-0.8,0-1.5-0.1-2.3-0.4c-3.3-1.1-6.8-2.2-9.8-2.2c-1.6,0-3.2,0.4-4.7,1.1v-18.8
	c0-0.2,0-0.4,0.7-0.4c9.2-0.1,18.4,1.6,26.9,4.9l1.4,0.5c1,0.4,2.2,0.2,3.1-0.4c1.9-1.4,2.6-4.7,2.6-7.2v-0.3c0-0.6-0.5-1.2-1.2-1.2
	l0,0H381c-0.6,0-1.2,0.5-1.2,1.2v57.4C379.8,210.4,380.3,211,381,211z M282.8,195c1.2,1.1,2.7,1.7,4.4,1.7c2.7-0.2,5.3-0.9,7.6-2.2
	l7.5-3.5c0.3-0.2,0.7-0.3,1-0.4c0.4-0.1,0.8-0.2,1.3-0.3c0.7-0.2,1.5-0.2,2.3,0c0.1,0,0.2,0.1,0.3,0.3l8.7,19.7
	c0.2,0.4,0.6,0.7,1.1,0.7h6.3c0.6,0,1.2-0.5,1.2-1.2c0-0.2,0-0.3-0.1-0.5l-25.5-57.6c-0.2-0.4-0.6-0.7-1.1-0.7h-0.9
	c-0.5,0-0.9,0.3-1.1,0.7l-25.4,57.6c-0.3,0.6,0,1.3,0.6,1.5c0.1,0.1,0.3,0.1,0.5,0.1h6.8c0.6,0,1-0.4,1.1-1c0.2-1.4,0.5-2.7,0.7-4
	c0.2-1.2,0.5-2.6,0.9-3.9c0.3-1.4,0.7-2.8,1.1-4.4C282.4,196.8,282.6,195.9,282.8,195L282.8,195z M285.7,186.3
	c0.8-2,1.7-4.3,2.7-6.9s2.2-5.4,3.6-8.6c1-2.4,2.1-4.8,3.3-7.3l9.4,21.5c-2.5-1-5.3-0.7-8.2,0.7c-2.5,1.2-4.4,2.1-5.9,2.8
	s-2.6,1.2-3.4,1.6c-0.8,0.4-1.3,0.6-1.7,0.8c-0.3,0.1-0.6,0.1-0.8,0.2c-0.2,0-0.4,0-0.6-0.2l0,0C284.5,189.7,285,188.2,285.7,186.3
	L285.7,186.3z M299.3,224.9h-16.7c-0.6,0-1.2,0.5-1.2,1.2l0,0v57.4c0,0.6,0.5,1.2,1.2,1.2l0,0h20.5c11.4,0,20.3-4.9,25.7-14.1
	c4.5-8,5.3-17.6,2.1-26.2C325.8,231.4,315.2,224.9,299.3,224.9L299.3,224.9z M318.3,272.5c-4.1,5.5-9.9,8.6-15.9,8.6H290
	c-0.2,0-0.4,0-0.4-0.5v-51.8c0-0.3,0.1-0.4,0.4-0.4h9.6c7.6,0,17.8,3.5,22.8,20.3C324.9,256.8,323.3,265.6,318.3,272.5L318.3,272.5z
	 M381.5,248.4c3.2-11.7,13-20.3,23.4-20.4h0.2c5.2,0,11,2.3,14.2,5.6l0.2,0.2c1.1,1.1,2.6,2.6,4.2,1.3c0.9-0.8,1.1-2.1,0.4-3.1
	c-0.4-0.6-0.9-1.2-1.5-1.7c-4.4-4.2-10.7-6.6-17.8-6.6h-0.4H404c-4.2,0-8.4,0.9-12.3,2.7c-1.2,0.5-2.3,1.1-3.4,1.7
	c-14.5,8.3-19.6,26.9-11.2,41.4c2.7,4.7,6.5,8.5,11.2,11.2c1.1,0.6,2.2,1.2,3.4,1.7c3.9,1.8,8.1,2.7,12.3,2.7h0.4
	c5.3-0.1,10.5-1.6,15-4.4c1.7-1,3.2-2.2,4.5-3.6c0.1-0.1,0.1-0.1,0.1-0.2c0.7-1,0.5-2.3-0.4-3.1l0,0c-1.6-1.3-3,0.2-4.2,1.3
	l-0.2,0.2c-3.1,3.3-8.9,5.6-14.1,5.6h-0.2h-0.1c-0.7,0.1-1.4,0.1-2,0.1c-2.2,0-4.3-0.3-6.4-0.9c-10-3-16.5-13.6-15.9-25.7
	C380.7,252.5,381,250.4,381.5,248.4L381.5,248.4z M482.7,228.7c-2.7-4.1-6.4-4.1-14.5-4.1h-2c-1.7,0-3.1,0-3.1,1.7s1.5,1.7,3.1,1.7
	c5,0,6.3,0.9,7.7,3.5c0.7,1.3,2.3,6.1-5.2,12.2c-0.5,0.4-1.2,1-2,1.6c-3.1,2.5-8.2,6.7-10.9,9.8l-0.1,0.1c-0.1,0.2-0.3,0.3-0.5,0.2
	c-0.1,0-0.1-0.1-0.2-0.2c0,0,0-0.1-0.1-0.1c-3.4-4.1-10.6-9.8-12.8-11.5c-7.5-6.1-5.9-10.9-5.2-12.2c1.3-2.6,2.7-3.6,7.8-3.6
	c1.8,0,3.3,0,3.3-1.7s-1.5-1.7-3.3-1.7h-2.1c-8.1,0-11.8,0-14.5,4l0,0c-0.9,1.5-1.1,3.4-0.7,5.1c0.5,2.4,2.6,7.1,10.5,12.1
	c6.6,3.8,13.7,9.7,13.7,13.6v23.7c0,0.6,0.5,1.2,1.2,1.2h5.2c0.6,0,1.2-0.5,1.2-1.2v-23.7c0-3.8,6.9-9.7,13.8-13.6
	c7.9-5,10-9.8,10.5-12.2C483.9,232,483.6,230.2,482.7,228.7z M371.2,215.6c-0.3,0-1.5,0.1-1.5,1.8c-0.2,2.5-1.2,2.9-3.5,3.8
	c-0.3,0.1-0.6,0.2-0.9,0.4c-5.3,1.9-6.2,3-6.2,12.1v49.5c0,0.6,0.5,1.2,1.2,1.2l0,0h5.5c0.6,0,1.2-0.5,1.2-1.2v-48.9v-1.7
	c0-5.3,0.1-7,2.2-8.4l0.4-0.3c2.2-1.6,3-2.4,3.3-6.4v-0.1C372.7,216.9,372.7,215.6,371.2,215.6z M188.7,223.4
	c-0.2-0.4-0.6-0.7-1.1-0.7h-1c-0.5,0-0.9,0.3-1.1,0.7l-26.7,60.7c-0.3,0.6,0,1.3,0.6,1.5c0.1,0.1,0.3,0.1,0.5,0.1h7.1
	c0.6,0,1-0.4,1.1-1c0.3-1.5,0.5-2.9,0.8-4.2c0.3-1.3,0.6-2.7,0.9-4.1c0.4-1.4,0.8-3,1.2-4.6c0.2-0.9,0.5-1.8,0.7-2.8
	c1.2,1.2,2.9,1.9,4.6,1.8c2.8-0.2,5.5-1,8-2.3l7.9-3.7c0.4-0.2,0.7-0.3,1.1-0.5c0.4-0.1,0.9-0.2,1.3-0.3c0.8-0.2,1.6-0.2,2.4,0
	c0.2,0,0.3,0.2,0.4,0.3l9.1,20.7c0.2,0.4,0.6,0.7,1.1,0.7h6.7c0.6,0,1.2-0.5,1.2-1.2c0-0.2,0-0.3-0.1-0.5L188.7,223.4z M186.4,259.3
	c-2.6,1.2-4.7,2.2-6.2,2.9c-1.5,0.7-2.7,1.3-3.6,1.7c-0.8,0.4-1.4,0.6-1.8,0.8c-0.3,0.1-0.6,0.2-0.9,0.2c-0.2,0-0.5,0-0.6-0.2
	c0,0,0,0-0.1,0c0.4-1.1,0.9-2.7,1.7-4.7c0.8-2.1,1.8-4.6,2.9-7.3s2.4-5.7,3.8-9.1c1.1-2.6,2.3-5.2,3.5-7.9l10,22.9
	C192.5,257.5,189.6,257.8,186.4,259.3z M271.3,225h-7.1c-0.6,0-1.2,0.5-1.2,1.2c0,0.1,0,0.2,0,0.2c0.7,3.2,1.3,7.4,1.9,12.4
	c0.5,4.4,0.9,10,1.3,16.7s0.6,15,0.6,24.6c0,0.4,0,0.7-0.1,1c-0.1,0.1-0.4,0.3-1.4-0.3c-0.6-0.4-1.3-0.8-1.9-1.2
	c-0.6-0.5-1.2-0.9-1.7-1.5c-0.5-0.5-0.9-0.9-1.1-1.1c-1.4-2.1-2.6-4.3-3.6-6.7c-1.1-2.7-2.3-5.8-3.3-9c-1.1-3.3-2.2-6.6-3.4-10.1
	c-1.1-3.5-2.4-6.8-3.8-10c-1.3-3.1-2.8-6-4.6-8.9c-1.5-2.5-3.5-4.8-5.9-6.6c-0.8-0.6-1.7-1.2-2.7-1.6c-2.2-0.9-4.7-0.8-6.8,0.4
	l-5.1,2.4c-0.4,0.2-0.7,0.6-0.7,1v56.7c0,0.6,0.5,1.2,1.2,1.2l0,0h7.1c0.6,0,1.2-0.5,1.2-1.2c0-0.1,0-0.2,0-0.3
	c-0.9-3.9-1.5-7.9-1.9-11.9c-0.5-4.3-0.9-9.9-1.3-16.6s-0.6-15.2-0.6-25.1c0-0.8,0.2-0.8,0.4-0.8c0.4,0,0.8,0.1,1.2,0.3
	c0.6,0.2,1.1,0.5,1.6,0.9c0.6,0.4,1.2,0.8,1.7,1.2s0.9,0.8,1.3,1.2c1.6,1.8,3,3.8,4,6c1.3,2.6,2.5,5.3,3.5,8.1
	c1.1,2.9,2.2,6,3.1,9.1c1,3.2,2,6.3,3.1,9.3c1,3,2.2,5.8,3.3,8.4c1,2.4,2.3,4.6,3.8,6.7c1.3,1.7,2.8,3.3,4.5,4.5
	c1.5,1.1,3.2,1.6,5.1,1.6c1.4,0,2.7-0.4,4-0.9l0,0l4.7-2.1c0.4-0.2,0.7-0.6,0.7-1.1V226C272.5,225.5,271.9,225,271.3,225L271.3,225
	L271.3,225z"/>
<path id="Path_2" class="st1" d="M313.5,60.9v-0.3c0-2.5-0.7-5.6-2.5-6.9c-0.9-0.7-2.2-0.8-3.2-0.4l-0.9,0.3
	c-8.4,3.2-17.2,4.9-26.2,5.1h-1.3c-0.6,0-0.7,0-0.7-0.8V36.4c0-2.1,0.8-7.1,8.3-7.1c1.4,0,2.8,0.2,4.2,0.5c1.2,0.2,2.5,0.4,3.7,0.4
	c5.5,0,8.6-2.8,12.5-6.3l0,0c0.7-0.5,0.8-1.4,0.3-2.1c0-0.1-0.1-0.1-0.1-0.2c-0.3-0.3-0.8-0.5-1.2-0.4c-0.4,0-0.8,0.2-1,0.5
	c-3.8,3.2-7,4.8-9.9,4.8c-0.8,0-1.5-0.1-2.3-0.4c-3.3-1.1-6.8-2.2-9.9-2.2c-1.6,0-3.2,0.4-4.7,1.1V6.1c0-0.2,0-0.4,0.7-0.4
	c9.3-0.1,18.4,1.6,27,5c0.5,0.2,0.9,0.3,1.4,0.5c1,0.4,2.2,0.2,3.1-0.4c2-1.4,2.7-4.7,2.7-7.2V3.2c0-0.6-0.5-1.2-1.2-1.2l0,0h-40.9
	c-0.6,0-1.2,0.5-1.2,1.2l0,0v57.7c0,0.6,0.5,1.2,1.2,1.2l0,0h40.9C312.9,62.1,313.5,61.6,313.5,60.9z M455,31.4
	c0.4,0.6,0.8,1.2,1.1,1.8c0.3,0.6,0.5,1.2,0.5,1.9v25.7c0,0.6,0.5,1.2,1.2,1.2h6.1c0.6,0,1.2-0.5,1.2-1.2V35.2
	c0-0.7,0.2-1.3,0.5-1.9c0.3-0.6,0.7-1.3,1.1-1.8l19.5-27.4c0.4-0.5,0.3-1.2-0.3-1.6c-0.2-0.1-0.4-0.2-0.7-0.2h-7.7
	c-0.5,0-0.9,0.3-1.1,0.7c-1.5,3.4-3,6.7-4.5,9.6s-3,5.6-4.5,8c-1.4,2.4-2.8,4.5-4.1,6.2c-0.9,1.2-1.7,2.3-2.5,3.3
	c-0.8-0.9-1.6-2-2.5-3.3c-1.3-1.8-2.6-3.8-4.1-6.2s-2.9-5.1-4.5-8c-1.5-2.9-3.1-6.2-4.5-9.6c-0.2-0.4-0.6-0.7-1.1-0.7h-7.7
	c-0.6,0-1.2,0.5-1.2,1.2c0,0.2,0.1,0.5,0.2,0.7L455,31.4z M141,29.9V30c0.2,1.1,0.8,1.6,1.7,1.6c0.5,0,0.9-0.2,1.2-0.5
	c0.3-0.4,0.5-1,0.4-1.5c-0.2-3.9-1-8.5-8.4-13.5c-1.9-1.5-2.6-4-1.8-6.2c1-3.1,4-5,8.1-5h7.3c0.9,0,1.2,0.2,1.2,1.3V60
	c0,0.6,0.5,1.2,1.2,1.2h5.3c0.6,0,1.2-0.5,1.2-1.2V6.2c0-1.1,0.3-1.3,1.2-1.3h7.3c4.1,0,7.1,1.9,8.1,5c0.8,2.3,0.1,4.8-1.8,6.2
	c-7.2,5-8.1,9.6-8.4,13.6v0.1c0,1.3,0.8,1.9,1.6,1.9c0.9,0,1.7-0.7,1.7-1.6V30c0.5-5.2,2.2-7.4,8.2-10.6c2.8-1.5,6.1-4,6.5-9.4
	c0.3-2.1-0.4-4.3-1.8-5.9c-1.8-1.9-4.9-2.9-9.4-2.9h-34c-4.6,0-7.7,0.9-9.5,2.9c-1.4,1.6-2.1,3.8-1.8,5.9c0.5,5.4,3.7,7.8,6.5,9.3
	C138.9,22.6,140.6,24.7,141,29.9L141,29.9z M263.9,34.3c0.4-2.7,0.1-5.5-0.9-8.1l-8.7-24.3c-0.2-0.5-0.6-0.8-1.1-0.8h-7
	c-0.4,0-0.7,0.2-1,0.5c-0.2,0.3-0.3,0.7-0.1,1.1l9.3,25.6c0.9,2.5,1.2,5.3,0.8,7.9c-0.4,2.7-1.3,5.3-2.7,7.7l-7.4,12.6
	c-0.1,0.2-0.2,0.2-0.3,0.2c-0.3,0-0.4-0.1-0.4-0.2l-19-54.6c-0.2-0.5-0.6-0.8-1.1-0.8h-6.9c-0.4,0-0.7,0.2-1,0.5
	c-0.2,0.3-0.3,0.7-0.2,1.1L227.9,36l-12.7,20.6c-0.1,0.2-0.2,0.2-0.3,0.2s-0.2,0-0.4-0.1v-0.1v-0.1L195.6,1.9
	c-0.2-0.5-0.6-0.8-1.1-0.8H187c-0.6,0-1.2,0.5-1.2,1.2c0,0.1,0,0.3,0.1,0.4l21.8,61c0.2,0.5,0.6,0.8,1.1,0.8h6c0.4,0,0.7-0.2,1-0.5
	l14.6-21l7.5,20.6c0.2,0.5,0.6,0.8,1.1,0.8h5.4c0.4,0,0.7-0.2,1-0.5l15.5-22.1C262.5,39.6,263.5,37,263.9,34.3L263.9,34.3z
	 M340.4,24c1.1,2.9,2.2,5.9,3.1,9c1,3.2,2,6.3,3,9.2c1,3,2.1,5.8,3.3,8.3c1,2.4,2.3,4.6,3.8,6.7c1.2,1.7,2.8,3.2,4.5,4.5
	c1.5,1,3.2,1.6,5,1.6c1.4,0,2.7-0.4,4-0.9l0,0l4.6-2.1c0.4-0.2,0.7-0.6,0.7-1.1V2.7c0-0.6-0.5-1.2-1.2-1.2h-7
	c-0.6,0-1.2,0.5-1.2,1.2c0,0.1,0,0.2,0,0.2c0.7,3.2,1.3,7.4,1.9,12.3c0.5,4.3,0.9,9.9,1.2,16.6s0.6,14.8,0.6,24.3c0,0.3,0,0.7-0.1,1
	c0,0-0.1,0.1-0.2,0.1c-0.4,0-0.8-0.2-1.2-0.4c-1.3-0.7-2.4-1.6-3.5-2.7c-0.5-0.5-0.9-0.9-1.1-1.1c-1.4-2.1-2.6-4.3-3.5-6.6
	c-1.1-2.7-2.2-5.7-3.3-8.9c-1.1-3.2-2.2-6.6-3.3-10c-1.1-3.4-2.4-6.8-3.7-9.9c-1.3-3-2.8-6-4.5-8.8c-1.5-2.5-3.5-4.8-5.8-6.6
	c-0.8-0.6-1.7-1.2-2.7-1.6c-0.9-0.4-1.9-0.6-2.9-0.6c-1.4,0-2.7,0.3-3.9,0.9l-5.1,2.4c-0.4,0.2-0.7,0.6-0.7,1.1v56.2
	c0,0.6,0.5,1.2,1.2,1.2l0,0h7c0.6,0,1.2-0.5,1.2-1.2c0-0.1,0-0.2,0-0.3c-0.8-3.9-1.5-7.8-1.9-11.8c-0.5-4.2-0.9-9.8-1.3-16.5
	s-0.6-15-0.6-24.9c0-0.6,0.1-0.8,0.1-0.8s0.4-0.1,1.3,0.3c0.6,0.2,1.1,0.5,1.6,0.9c0.6,0.4,1.2,0.8,1.7,1.2c0.5,0.4,0.9,0.8,1.3,1.2
	c1.6,1.8,2.9,3.8,4,6C338.3,18.6,339.4,21.2,340.4,24L340.4,24z M383.6,20.3c6.2,3.2,7.9,5.4,8.2,10.6V31c0.2,1.1,0.8,1.6,1.7,1.6
	c0.5,0,0.9-0.2,1.2-0.5c0.3-0.4,0.5-1,0.4-1.5c-0.2-3.9-1-8.5-8.4-13.5c-1.9-1.5-2.6-4-1.8-6.2c1-3.1,4-5,8.1-5h7.3
	c0.9,0,1.2,0.2,1.2,1.3V61c0,0.6,0.5,1.2,1.2,1.2l0,0h5.3c0.6,0,1.2-0.5,1.2-1.2l0,0V7.1c0-1.1,0.3-1.3,1.2-1.3h7.3
	c4.1,0,7.1,1.9,8.1,5c0.8,2.3,0.1,4.8-1.8,6.2c-7.2,5-8.1,9.6-8.4,13.6v0.1c0,1.3,0.8,1.9,1.6,1.9c0.9,0,1.7-0.7,1.7-1.6v-0.1
	c0.5-5.2,2.2-7.4,8.2-10.6c2.8-1.5,6.1-4,6.5-9.4c0.3-2.1-0.4-4.3-1.8-5.9c-1.8-1.9-4.9-2.9-9.4-2.9h-34c-4.6,0-7.7,0.9-9.5,2.9
	c-1.4,1.6-2.1,3.8-1.8,5.9C377.6,16.3,380.8,18.7,383.6,20.3L383.6,20.3z M118.8,76.1h-7c-0.4,0-0.7,0.2-0.9,0.4
	c-0.2,0.3-0.3,0.6-0.2,1c0.7,3.2,1.3,7.4,1.9,12.3c0.5,4.3,0.9,9.9,1.2,16.6s0.6,14.8,0.6,24.3c0,0.3,0,0.7-0.1,1
	c0,0-0.1,0.1-0.2,0.1c-0.4,0-0.8-0.2-1.2-0.4c-0.6-0.4-1.3-0.8-1.8-1.2c-0.6-0.4-1.1-0.9-1.7-1.4c-0.5-0.5-0.9-0.9-1.1-1.1
	c-1.4-2.1-2.6-4.3-3.5-6.6c-1.1-2.7-2.2-5.7-3.3-8.9c-1.1-3.2-2.2-6.6-3.3-10c-1.1-3.4-2.4-6.8-3.7-9.9c-1.3-3-2.8-6-4.5-8.8
	c-1.5-2.5-3.5-4.8-5.8-6.6c-0.8-0.6-1.7-1.2-2.7-1.6c-0.9-0.4-1.9-0.6-2.9-0.6c-1.4,0-2.7,0.3-3.9,0.9L69.5,78
	c-0.4,0.2-0.7,0.6-0.7,1.1v56.2c0,0.6,0.5,1.2,1.2,1.2l0,0h7c0.6,0,1.2-0.5,1.2-1.2c0-0.1,0-0.2,0-0.3c-0.8-3.9-1.5-7.8-1.9-11.8
	c-0.5-4.2-0.9-9.8-1.3-16.5s-0.6-15-0.6-24.9c0-0.3,0-0.5,0.1-0.8c0,0,0.4-0.1,1.3,0.3c0.6,0.2,1.1,0.5,1.6,0.9
	c0.6,0.4,1.2,0.8,1.7,1.2c0.5,0.4,0.9,0.8,1.3,1.2c1.6,1.8,2.9,3.8,4,6c1.3,2.6,2.5,5.3,3.5,8c1.1,2.9,2.1,5.9,3.1,9
	c1,3.2,2,6.3,3,9.2c1,3,2.1,5.8,3.3,8.3c1,2.4,2.3,4.6,3.8,6.7c1.3,1.7,2.8,3.2,4.5,4.5c1.5,1,3.2,1.6,5,1.6c1.4,0,2.7-0.3,4-0.9
	l0,0l4.6-2.1c0.4-0.2,0.7-0.6,0.7-1.1V77.3C120,76.7,119.5,76.1,118.8,76.1L118.8,76.1z M63.5,69.2c-0.5-0.3-1.2-0.3-1.7,0.1
	c-0.2,0.2-0.3,0.4-0.5,0.6c-1.3,1.8-2.2,1.7-4.5,1.3c-0.3,0-0.6-0.1-0.9-0.1l0,0c-2.3-0.4-3.9-0.8-5.6,0.2c-1.5,0.8-2.8,2.5-5.2,6.5
	l-0.5,0.8c-3.8-1.8-8-2.8-12.2-2.8c-10.8,0-20.8,5.9-26.1,15.4l0,0c-3.9,7.1-4.9,15.5-2.8,23.4c1.6,6.1,5.1,11.6,10,15.7l-0.4,0.6
	c-0.3,0.5-0.6,0.9-0.8,1.4c-2.5,4.2-3.4,5.5-5.6,5.6H6.6H6.2c-2.5,0.2-3.5,0.5-5.7,3.5c0,0,0,0.1-0.1,0.1c-0.3,0.5-0.9,1.5,0.3,2.3
	c0.2,0.1,0.5,0.2,0.8,0.2s0.7-0.1,0.9-0.4c0.2-0.2,0.3-0.4,0.5-0.6c1.3-1.8,2.2-1.7,4.5-1.3c0.3,0,0.6,0.1,0.9,0.1l0,0
	c2.3,0.4,3.9,0.8,5.6-0.2c1.5-0.8,2.8-2.5,5.2-6.5l0.6-0.9c3.9,1.9,8.1,2.9,12.5,3c10.8,0,20.8-6.1,25.8-15.7
	c7.2-13,4.2-29.3-7.1-39l0.3-0.4c0.3-0.5,0.6-0.9,0.8-1.4c2.5-4.2,3.4-5.5,5.6-5.6h0.1h0.4c2.5-0.2,3.5-0.5,5.7-3.5
	c0,0,0-0.1,0.1-0.1C64.2,71,64.8,70,63.5,69.2L63.5,69.2z M17.1,124.2c-2.7-3.4-4.7-7.4-5.8-11.6c-3.8-14.8,2.1-28.9,13.6-32.1
	c1.6-0.5,3.3-0.7,5-0.7c4.2,0.1,8.2,1.5,11.6,3.9L17.1,124.2z M52.9,100.8c1.9,6.6,1.6,13.7-1,20.2c-2.5,5.9-6.9,10-12.5,11.6
	c-1.6,0.4-3.3,0.6-5,0.6c-4.2,0-8.3-1.3-11.7-3.8L47,89C49.8,92.5,51.8,96.5,52.9,100.8L52.9,100.8z M226.1,76.3h-29.3
	c-0.6,0-1.2,0.5-1.2,1.2v57.6c0,0.6,0.5,1.2,1.2,1.2h5.6c0.6,0,1.2-0.5,1.2-1.2l0,0v-26.3c3.1,2.6,7.5,3.9,13.4,3.9
	c5.3,0,10.5-1.6,14.8-4.7c5.4-3.9,8.5-9.7,9-16.8c0.4-3.9-0.8-7.7-3.3-10.6C234.9,77.8,231,76.3,226.1,76.3L226.1,76.3z
	 M228.4,103.9c-2.9,3.3-7.1,5.1-11.5,5.2c-8.8,0-13.3-3.5-13.3-10.5V81c0-0.4,0-0.9,0.1-1.3c0.4-0.1,0.9-0.1,1.3-0.1h18.2
	c2.8-0.1,5.6,1.1,7.5,3.1c2.1,2.4,3.2,5.5,2.9,8.6C233.4,96.1,231.5,100.4,228.4,103.9L228.4,103.9z M362.6,80.7
	c2.5-4.2,3.4-5.5,5.6-5.6h0.1h0.4c2.5-0.2,3.5-0.5,5.7-3.5c0,0,0-0.1,0.1-0.1c0.3-0.5,8.4-1.5,7.1-2.3l0,0c-0.3-0.2-1.3-0.6-2.1,0.7
	c-1.3,1.8-9.7,1.7-12,1.3c-0.3,0-0.6-0.1-0.9-0.1l0,0c-2.3-0.4-3.9-0.8-5.6,0.2c-1.5,0.8-2.8,2.5-5.2,6.5l-0.5,0.8
	c-3.8-1.8-8-2.8-12.2-2.8c-10.8,0-20.8,5.9-26.1,15.4l0,0c-3.9,7.1-4.9,15.5-2.8,23.4c1.6,6.1,5.1,11.6,10,15.7l-0.4,0.6
	c-0.3,0.5-0.6,0.9-0.8,1.4c-2.5,4.2-3.4,5.5-5.6,5.6h-0.1h-0.4c-2.5,0.2-3.5,0.5-5.7,3.5c0,0,0,0.1-0.1,0.1c-0.2,0.3-0.4,0.6-0.4,1
	c0,0.5,0.3,1.1,0.8,1.3c0.2,0.1,0.5,0.2,0.8,0.2s0.7-0.1,0.9-0.4c0.2-0.2,0.3-0.4,0.5-0.6c1.3-1.8,2.2-1.7,4.5-1.3
	c0.3,0,0.6,0.1,0.9,0.1l0,0c2.3,0.4,3.9,0.8,5.6-0.2c1.5-0.8,2.8-2.5,5.2-6.5l0.6-0.9c3.9,1.9,8.1,2.9,12.5,3
	c10.8,0,20.8-6.1,25.8-15.7c7.2-13,4.2-29.3-7.1-39l0.3-0.4C362,81.6,362.3,81.2,362.6,80.7L362.6,80.7z M327.7,124.2
	c-2.7-3.4-4.7-7.4-5.8-11.6c-3.8-14.8,2.1-28.9,13.6-32.1c1.6-0.5,3.3-0.7,5-0.7c4.2,0.1,8.2,1.5,11.6,3.9L327.7,124.2z
	 M363.4,100.7c1.9,6.6,1.6,13.7-1,20.2c-2.5,5.9-6.9,10-12.5,11.6c-1.6,0.4-3.3,0.6-5,0.6c-4.2,0-8.3-1.3-11.7-3.8L357.6,89
	C360.3,92.4,362.3,96.4,363.4,100.7L363.4,100.7z M419.1,76.3h-34c-4.6,0-7.7,0.9-9.5,2.9c-1.4,1.6-2.1,3.8-1.8,5.9
	c0.5,5.4,3.7,7.8,6.5,9.3c6.2,3.2,7.9,5.4,8.2,10.6v0.1c0.2,1.1,0.8,1.6,1.7,1.6c0.5,0,0.9-0.2,1.2-0.5c0.3-0.4,0.5-1,0.4-1.5
	c-0.2-3.9-1-8.5-8.4-13.5c-1.9-1.5-2.6-4-1.8-6.2c1-3.1,4-5,8.1-5h7.3c0.9,0,1.2,0.2,1.2,1.3v53.8c0,0.6,0.5,1.2,1.2,1.2l0,0h5.3
	c0.6,0,1.2-0.5,1.2-1.2V81.3c0-1.1,0.3-1.3,1.2-1.3h7.3c4.1,0,7.1,1.9,8.1,5c0.8,2.3,0.1,4.8-1.8,6.2c-7.2,5-8.1,9.6-8.4,13.6v0.1
	c0,1.3,0.8,1.9,1.6,1.9c0.9,0,1.7-0.7,1.7-1.6v-0.1c0.5-5.2,2.2-7.4,8.2-10.6c2.8-1.5,6.1-4,6.5-9.4c0.3-2.1-0.4-4.3-1.8-5.9
	C426.8,77.3,423.7,76.3,419.1,76.3L419.1,76.3z M171.9,76.5H131c-0.6,0-1.2,0.5-1.2,1.2v57.7c0,0.6,0.5,1.2,1.2,1.2h40.9
	c0.6,0,1.2-0.5,1.2-1.2l0,0V135c0-2.5-0.7-5.6-2.5-6.9c-0.9-0.7-2.2-0.8-3.2-0.4l-0.9,0.3c-8.4,3.2-17.2,4.9-26.2,5.1H139
	c-0.6,0-0.7,0-0.7-0.8v-21.5c0-2.1,0.8-7.1,8.3-7.1c1.4,0,2.8,0.2,4.2,0.5c1.2,0.2,2.5,0.4,3.7,0.4c5.5,0,8.6-2.8,12.5-6.3l0,0
	c0.7-0.5,0.8-1.4,0.3-2.1c0-0.1-0.1-0.1-0.1-0.2c-0.3-0.3-0.7-0.4-1.1-0.5c-0.4,0-0.9,0.2-1.2,0.5c-3.8,3.2-7,4.8-9.9,4.8
	c-0.8,0-1.5-0.1-2.3-0.4c-3.3-1.1-6.8-2.2-9.9-2.2c-1.6,0-3.2,0.4-4.7,1.1V80.5c0-0.2,0-0.4,0.7-0.4c9.3-0.1,18.4,1.6,27,5
	c0.5,0.2,0.9,0.3,1.4,0.5c1,0.4,2.2,0.2,3.1-0.4c2-1.4,2.7-4.7,2.7-7.2v-0.3C173.1,77,172.6,76.5,171.9,76.5L171.9,76.5z
	 M483.3,113.2c-1-5.4-4.1-9.3-9.5-11.8c-4.4-2-10.2-3.1-18.5-3.5c-11.3-0.5-13.6-3.9-13.6-9.2c0-6.2,8.1-10,15.9-10
	c5.1,0,9.5,1.6,12.1,4.3c1.6,1.7,2.5,4,2.3,6.3c-0.2,2.5,0.7,3.8,1.4,4.5c0.9,0.8,2.2,1.1,3.4,0.8c2.5-0.5,3.7-2.6,3.2-5.5
	c-0.8-4.4-3.5-8.1-7.5-10.2c-3.9-2.3-9.1-3.4-15-3.4c-13.1,0-23.8,6-23.8,13.3c0,8,6.8,12.1,21.4,12.9c10.4,0.5,16.7,4.8,18.6,12.8
	c1.2,4.6,0.1,9.6-2.8,13.3c-3.1,3.9-8,6.1-13.8,6.1c-4.8,0.1-9.5-1.7-12.9-5.2c-2.2-2.3-3.4-5.3-3.3-7.5c0.2-1.5,0.9-5.1,4.5-6.6
	c2.2-0.8,4.8-3.7,3.7-6.7c-0.6-1.8-2.4-2.9-4.8-2.9c-1.1,0-2.1,0.2-3.2,0.6c-6.1,2.3-9.4,9.4-7.7,16.8c1,4.2,3.5,7.9,7.1,10.3
	c4.2,3,10,4.6,16.6,4.6c9.5,0,17.6-3.2,22.3-8.7C483,124.2,484.4,118.6,483.3,113.2z M268.3,67.2c-0.3,0-1.5,0.1-1.5,1.8
	c-0.2,2.5-8.7,2.9-11,3.8c-0.3,0.1-0.6,0.2-0.9,0.4l0,0c-2.3,0.8-4,1.5-5.1,3.3c-0.9,1.6-1.2,3.9-1.2,8.9v49.8
	c0,0.6,0.5,1.2,1.2,1.2l0,0h5.5c0.6,0,1.2-0.5,1.2-1.2V86c0-0.6,0-1.2,0-1.7c0-5.3,0.1-7.1,2.1-8.4l0,0l0.4-0.3
	c2.2-1.6,10.5-2.4,10.8-6.4v-0.1C269.8,67.2,268.7,67.2,268.3,67.2z M301.9,116.7c-3-2.8-3.9-7-2.6-12.5c0.2-0.6,0.2-1.3-0.2-1.8
	c-0.3-0.3-0.7-0.5-1.1-0.5c-1.2,0-1.5,1.4-1.6,1.8c-1.8,7.4-2.1,11.5,3.1,17c5,5.8,3.7,8.5,3.2,9.4c-1,2.1-3.2,2.2-5.9,2.2h-19.2
	c-0.1,0-0.2,0-0.4,0c0-0.1-0.1-0.3-0.1-0.4V77.4c0-0.6-0.5-1.2-1.2-1.2l0,0H270c-0.6,0-1.2,0.5-1.2,1.2l0,0v57.7
	c0,0.6,0.5,1.2,1.2,1.2h33.3c4.4,0,7.2-2.2,7.5-5.9C311.4,125.2,308.4,122.6,301.9,116.7L301.9,116.7z"/>
</svg>
