<svg xmlns="http://www.w3.org/2000/svg" width="490.271" height="334.165" viewBox="0 0 490.271 334.165"><defs><style>.a{fill:#fff;fill-rule:evenodd;}</style></defs><path class="a" d="M256.159,343.192l-2.9-.483c-2.615-1.334-4.711-4.94-5.8-7.734l-.967.483c-.193,4.344-2.053,6.657-2.9,9.667-5.325,18.913-4.375,17.885-28.036,17.885-6.211,0-14.275.853-18.368-1.45l-10.151-10.634v-4.35c-2.309-3.792-9.815-6.5-12.568-12.084-1.417-2.876.976-4.916,0-6.284-7.092-5.655-14.522-11.479-12.084-21.268-6.271-3.775-15.065-15.252-9.667-21.752-4.125-5.211-15.371-16.77-9.184-23.2-2.582-3.446-12.427-18.266-4.35-21.752-2.428-7.593-8.217-13.43-5.8-24.169,5.042-1.646,12.917-1.389,18.368,0,.263,4.549.953,9.673,4.35,12.084-.312-19.045-6.739-59.785,2.417-74.439,16.607-26.582,53.04-19.117,61.872,10.151l3.384-2.9c4.379-6.117,24.052-19.48,31.9-21.752,9.136-2.647,62.776.138,64.289.967,4.747,20.141-7.41,80.337,15.951,91.841,16.189,4.649,25.707-15.784,21.752-29.969l-7.251-8.217c-7.41-8.317-17.63-19.146-22.235-29.486,6.684-11.49,18.451-21.8,31.9-25.619,2.413-.685,27.943-3.735,28.036-3.867l-9.667-11.6c1.286-11.281,39.205-32.091,51.238-34.319,5.351-.991,14.9,2.852,18.852.483-3.313-4.466-9.349-8.345-10.151-14.985,10.8-9.679,43.939-5.516,56.555-3.867.268-4.459,10.256-12.052,16.435-12.084,9.377,5.172,16.176,19.839,26.1,26.586,1.649,1.121,7.983,6.508,9.667,5.317,3.061,2.03,7.246,4.567,11.6,3.867l2.417-23.2c-1.247-13.6-9.267-24.552-10.151-34.8L561.167,29h5.8c3.79,2.244,8.3,15.413,9.184,20.3,3.4-.7,4.592-1.042,7.251.483q3.139,10.151,6.284,20.3c.9.753,5.428-.152,6.767.483,1.4,3.6,2.349,18.339,5.8,22.719,1.349-1.305,2.625-.894,5.317-.483,2.112,7.172,1.17,16.424,3.867,20.785,3.132.128,3.185.7,5.317,1.45q.239,11.6.483,23.2c2.741-.638,3.461-.089,5.8,1.45.754,27.8-10.136,52.184-27.069,68.156.039,5.665,3.393,16.386.483,17.4-1.45,1.191-3.3,1.068-2.9,2.9-1.271,7.18,1.963,13.965-1.933,20.3H575.185c-1.469-7.686-1.3-13.674-.967-21.752-2.7,1.442-2.939,2.251-5.8,2.9.348,8.518,1.527,13.064-.967,19.335l-16.918-.483c-1.02-7.805.761-24.749-4.35-30.936l-20.3.483c-.263,2.16-.52,2.6-3.384,3.384.2,4.028,1.333,9.377-.483,12.568l-3.384.967c.556,2.717,1.269,10.67-.967,12.568-2.159,1.963-6.246,1.463-9.184,1.45-13.155-.058-9.947-8.77-9.184-19.335h-.483l-1.933.483c-5.544,16.321-41.6,24.722-63.322,20.3-9.474-1.928-18.208-7.918-26.586-8.7-3.071,3.749-8.5,2.23-11.6,5.8l-3.384,7.251c-3.462,5.016-9.753,10.35-14.985,13.534C341.3,290,308.135,237.437,295.8,214.615h-.967v2.417c8.963,21.425,19.528,35.035,32.386,51.721,5.044,6.545,16.005,13.9,17.4,23.2-3.37,3.725-7.97,9.377-14.018,10.151-1.991-1.146-3.3-4.58-4.834-5.317-1.571-.753-3.024,1.651-5.317.483l-3.867-5.317-3.384.967-6.284-8.217c-2.774.776-4.13-.1-6.284-.967a8.737,8.737,0,0,0-2.417-6.284h-1.933c3.132,11.259,25.209,23.577,24.169,35.286l-12.568,9.184c-4.94-1.033-5.925-5.071-9.184-7.734-1.724,1-2.417.758-5.317,0-1.293-4.539-9.69-10.811-12.568-9.184-6.341,2.576-11.906,9.929-14.985,13.534l15.951,24.169c-3.039,4.066-8.647,10.168-14.5,11.118l-6.767-7.251h-.483c-.588,6.081-1.889,13.051-5.317,16.435l-3.867-.483C254.4,357.248,256.255,352.475,256.159,343.192ZM564.067,31.9l-10.151,5.8c.16.483.324.967.483,1.45,11.18,14.537,12.326,42.94,5.8,59.455-7.932-.809-14.1-4.867-20.3-7.734.279,9.013,25.372,26.14,28.519,19.818,1.005-9.329,5.2-21.7,3.384-33.836-1.044-6.991-8.358-17.558-4.35-23.685,2.92-.646,4.669-.767,5.317-3.867C570.9,43.791,568.8,34.566,564.067,31.9Zm14.5,19.818-9.667,4.35c4.35,21.036,10.073,33.485,3.384,51.238-1.025,2.72-.788,7.792-3.384,9.667-4.848,1.346-14.385-6.066-18.368-8.7l-.967.967.483.967c.935,7.126,15.531,20.643,24.652,22.719,2.61-11.379,7.115-21.063,8.217-33.353q-1.936-12.084-3.867-24.169c1.7-2.989,5.419-2.585,7.734-4.834l-5.8-18.852ZM511.38,60.9l-10.151,6.284c1.4,4.662,5.027,10.489,8.7,13.051,1.059-4.081,6.365-5.444,9.667-6.284ZM470.293,71.053,442.257,74.92l-.483.967.967.967,7.251,8.7c-.8-2.67-1.953-3.89,0-5.8,6.547-7.285,45.009-.9,55.588,1.933C502.114,69.431,482.3,74.1,470.293,71.053ZM592.1,72.5l-10.151,3.384c.28,3.708,4.239,28.8,4.35,29l-2.9,15.468-7.251,16.918c-7.168-1.387-13.385-7.578-18.368-11.6l-1.45.483c3.809,12.078,12.863,20.537,22.235,27.069,2.175-.67,1.74-.249,2.417-2.417,14.2-11.343,8.377-38.892,9.184-55.1,2.847-.673,6.492-1.491,8.217-3.384L594.036,72.5ZM522.98,75.4,512.83,80.238l.483,1.45,5.8,11.6c4.332-.947,8.942-3.739,12.084-4.834v-.483L524.431,75.4Zm-55.588,4.35-15.468,1.933v.483l7.734,10.634-.967-6.284,2.9-1.45,29.969,1.45,23.685,6.284-.483-1.45C502.451,79.441,481.572,82.852,467.393,79.754Zm-1.45,8.217-4.35.483,9.184,16.435c-.886-4.257-2.665-6.507-.483-10.151,18.3-3.625,39.057,6.592,54.621,13.051v-.483C516.368,87.488,485.223,90.462,465.943,87.971Zm68.639,2.417-10.634,4.35c1.156,5,3.045,10.83,5.8,14.5,2.932-2.493,7.106-3.284,11.6-4.35C540.405,100.958,537.706,92.5,534.581,90.388ZM429.69,91.838l-12.568,3.867c-12.343,5.392-26.637,16.5-35.286,26.1l5.8,7.251c-.828-2.647-2.9-4.375-2.417-6.767,2.471-7.385,35.291-24.768,44.954-27.069l18.852-.967C444.408,91.6,437.1,91.73,429.69,91.838Zm163.38,5.8c1.556,22.574,2.272,40.309-12.568,60.422h-.483l-17.4-13.534v2.417c4.413,10.683,11.939,17.517,19.335,25.135l1.45-.483q4.836-7.976,9.667-15.951,2.414-9.426,4.834-18.852c1.895-7.165-3.045-16.769.483-20.3.324-.644.643-1.289.967-1.933,1.982.038,5.926.645,8.217-1.45-1.455-4.557.686-19.5-5.317-16.435Zm-157.1-.483-11.6,2.9c-12.479,4.569-27.032,14.135-36.253,22.719l5.317,7.734v-1.45c-1.351-2.5-2.386-3.556-1.933-6.767,7.571-8.669,33.546-18.67,45.437-21.752h19.818v-.483C450.526,98.6,444.72,97.156,435.973,97.156Zm35.77.483c1.314,5.247,4.659,14.356,8.217,17.885-1.249-3.264-2.465-7.424-.967-10.634,18.6-3.778,38.748,12.487,54.138,17.885C529.242,105.736,491.694,97.453,471.743,97.639Zm-29.969,5.317c-8.044,3.312-17.549,4.35-25.619,8.217L394.4,123.258l7.251,13.534h.483v-.483l-4.35-11.118c12.768-12.89,51.039-21.632,71.056-14.5C464.822,104.112,451.468,102.791,441.774,102.956Zm40.12,4.35-.967.483,5.8,18.852.967-.483a16.787,16.787,0,0,1-.967-9.184l1.933-1.45c18.009,1.233,36.948,13.284,50.271,23.685l.483-1.45C528.891,118.171,504.747,112.295,481.894,107.306Zm59.938.483-8.217,2.417c.252,3.735,1.349,10.621,4.35,13.051,2.3-3.553,7.68-1.843,11.118-3.384l-2.9-12.084-2.9.483Zm-93.291,1.933-21.268,4.834-25.619,10.634a32.088,32.088,0,0,0,5.8,14.5h.483v-.483c-1.541-3.956-3.257-8.377-2.417-13.051,12.385-5.433,37.59-14.41,53.654-11.6,6.647,1.163,11.584,4.151,17.4,5.317l-1.45-1.933C466.808,114.538,457.919,111.184,448.541,109.723ZM606.6,116.974c-2.127.911-4.394.785-5.8,2.417,3.794,21.351-6.158,42.252-17.885,57.521-.643-.644-1.291-1.289-1.933-1.934-5.752-2.568-13.172-10.9-15.468-16.918l-1.45.483v.483q4.111,10.393,8.217,20.785l10.151,13.051c11.345-1.857,19.069-31.307,21.268-39.153,1.629-5.8-2.156-12.374,3.384-15.951a10.378,10.378,0,0,0,6.767-.483q-.239-10.151-.483-20.3Zm-157.579.483c-13.03,5.226-28.954,5.068-40.6,11.118.392,4.513,2.281,12.133,4.834,14.985l-1.933-11.6c4.839-6.257,15.852-5.236,25.135-7.251,17.4-3.775,32.545-2.454,48.821,7.251C479.139,119.744,462.935,119.621,449.024,117.457Zm40.6.967,2.417,13.534h.967c-.2-4.055-.193-4.725,2.9-6.284,21.891,8.121,31.255,17.229,47.854,28.519l.483-1.45C533.1,131.848,510.811,126.983,489.628,118.424Zm58.971,4.834-7.734.967c-.542,5.186,1.187,11.046,2.417,15.951h.483c3.016-2.111,8.913-1.318,12.084-2.417h-.967l-1.933-14.5Zm-96.191,1.933-11.118.967-26.585,5.8,2.9,12.568v-.967c.7-3.111-.773-7.658,1.45-11.118,16.6-.422,36.5-3.7,51.721-1.45,2.838-1.211,14.646,8.272,16.918,7.251-5.588-3.181-9.778-8.207-16.435-10.634Zm-64.289,3.867-.483.483.967.967v-1.45Zm107.792.483,1.933,18.852h.483c.083-4.385-.387-8.139,3.867-10.151,12.979,5.088,24.333,13.431,34.319,21.752,4.209,3.507,6.715,9.281,11.6,12.084C545.428,154.545,513.356,130.863,495.912,129.542Zm-49.787,2.9-25.619,2.9v4.35l1.45,12.084.967-.483c-.145-4.842-.62-10.435,1.45-14.018,19.41-2.122,57.854-2.484,68.639,14.985l.967-.967c-7.982-12.474-19.012-15.487-34.32-18.852Zm-43.987,4.834Zm-26.1,108.759c4.106.119,10.6.669,12.568-.967q-.242-16.918-.483-33.836l.967.483c8.484,45.594,103.147,48.3,112.142,5.317h.967v28.519h13.051l.483-30.936,33.836.483c3.142,6.4,1.06,27.065,4.834,30.452H566v-.483q-.486-10.151-.967-20.3c-1.672-4.365-.962-8.885-2.9-15.468-3.335-11.311-8.377-23.145-15.468-31.9-5.008-6.183-9.361-13.373-15.951-17.885h-1.45c-5.793-6.3-18.479-16.7-27.552-17.4l.483,1.933v27.069h-.967c-4.436-26.255-38.6-31.58-59.938-30.936-2.7.081-11.585-2.092-14.984.967V232.5c-10.69-3.915-23.622-11.495-25.619-23.685,17.283-4.459,32.739-26.678,21.268-47.371-6.19-11.166-16.608-14.928-29.969-17.885-4.843-1.072-11.124-2.564-16.435-.967Q375.794,194.308,376.035,246.034ZM136.282,218.965c-1.45,32.3,44.879,35.518,56.071,10.151,13.776-31.226-35.354-46.459-17.4-70.572,6.558-8.809,21.714-6.454,26.585.483l2.9,10.151,12.084-.483c-.16-30.207-40.156-35.837-54.138-14.018-16.9,26.375,17.5,42.493,18.852,63.322.978,15.059-18.828,22.574-28.519,13.051-2.855-2.8-3.4-8.786-4.35-12.084Zm413.284-77.823-2.9.483c2.164,18,4.123,34.553,13.534,48.337,2.63,3.852,17.126,17.852,16.918,20.3,1.992,12.892-3.62,23.583.967,35.286h12.084q-.239-18.126-.483-36.253c3.785-7.5,13.37-12.761,17.885-20.3,9.435-15.745,11.122-28.062,12.568-47.371H607.571c-.329,24.944-9.6,39.544-23.2,56.071h-1.45c-6.646-8.991-13.665-17.373-18.852-27.069-4.505-8.419-1.73-22.336-5.317-29.486ZM209.755,215.582c7.147-.274,35.4-1.321,34.8,1.933l.483,29c5.2.188,10.031.926,13.051-1.45l-.483-66.222c.49-6.764-2.272-20.243.967-24.652l17.4.483v91.357l1.933.483,10.634-.483V154.194H304.5c-.025,7.724-1.665,25.329.967,29.969-1.466,3.037-.883,12.079-.483,16.918,2.153,26.067,2.734,42.463,29.969,46.887,42.269,6.867,41.3-48.775,38.186-72.506l-.483-33.353-12.084.483q.242,30.208.483,60.422c1.312,7.622-.085,17.755-3.384,23.685-.078.14-1.9.864-.483,1.45l-8.217,6.284-14.018,1.933c-2.833-1.561-8.678-2.868-11.6-5.8-13.741-13.785-2.289-64.547-6.767-88.457l-59.455.483c-5.708,1.72-11.474,6.923-15.951,10.151-29.642,21.365-48.986,49.211-46.4,93.774l3.384-.483h9.184C205.512,235.886,209.266,225.568,209.755,215.582Zm145.979-71.539.967,11.6h.483v-11.6ZM350.9,146.46c.19,1.964.779,4.695,1.934,5.8l-.483-5.8Zm-3.867,2.9c-.88,3.879,1.373,7.266,2.417,10.634h.483v-1.45C349.22,156.755,349.185,151.119,347.033,149.36Zm92.808,2.417c35.9,1.129,53.493,11.069,53.171,48.337.892,1.478-4.808,15.061-5.8,16.435l-3.867,6.767c-6.1,7.6-33.442,17.6-43.987,11.118Q439.6,193.109,439.84,151.777Zm54.138.483.967.967Zm-151.779.483,3.867,9.667C345.753,158.961,344.815,154.046,342.2,152.743Zm45.92,1.45c33.266,1.8,32.2,44.548,0,47.371l.483-2.9Q388.361,176.429,388.12,154.194Zm55.1.483c-1.816,4.941-.566,10.12-.483,16.918l9.667,11.118c8.523-3.505,15.383-13.524,19.335-21.752l-.483-1.45C461.447,157.641,451.365,155.612,443.224,154.677Zm-255.7,1.45.967.967Zm1.933,0-.483.967h2.9Zm148.879.483,2.417,6.284.967-.967L339.3,156.61Zm-45.92.967c-.809,2.346-1.152,5.414,1.45,4.834,2.423.426,5.66.017,7.251-.967v-3.384Zm-30.936.483-.483,7.734,1.933.483c3.915-1.069,7.774.318,9.667-3.384l-.967-4.834ZM185.1,160.477l-7.734,2.417c-2.444,1.874-3.223,8.97-.967,11.6v.967c12.507-6.971,22.231-1.2,26.1,11.6h.483l8.217-13.534-.483-.967a43.478,43.478,0,0,1-9.667-.483l-1.934-9.184Zm149.846.483,1.934,1.45C335.956,161.239,336.572,161.63,334.948,160.961Zm56.555.967v22.719l.483.483,1.45-.967C394.574,179.674,400.056,164.886,391.5,161.927Zm83.14,0c-5.694,13.162-15.646,16.29-22.719,26.1l.967,1.45h.483c9.288-3.422,21.516-15.241,23.2-26.1Zm-132.927.967.967,1.45Zm-4.834.483.967.967Zm-4.834.967.967.483Zm183.2.483c11.5,2.932,28.511,27.354,31.419,38.186H515.247Zm-271.655.483c3.9,4.1.133,31.991,1.45,38.67h-31.9C219,186.908,230.9,176.8,243.591,165.311Zm89.424,0,1.933,2.417A3.716,3.716,0,0,0,333.015,165.311Zm-37.22.483-3.867.967v3.384c2.265-.086,3.994.153,5.317-1.45h.967v-.483c-.988-1.976-.6-1.487-1.933-1.933Zm183.682.483c-6.247,11.9-14.392,20.774-27.069,27.552l.483,2.417h.483c7.137-2.09,31.883-21.757,26.586-29.969Zm-214.617,2.9c-2.376,1.14-2.622.58-3.867,2.9.353,1.715-.279,3.193,1.933,4.35l6.767-1.933-.967-5.317Zm218,1.933c-3.2,12.529-17.795,25.842-31.419,29.486v1.933l1.933,1.45c16.966-6.861,26.185-14.894,30.936-32.386v-.483Zm-243.136,1.45c-4.3,5.51-22.255,20.628-19.818,28.036h2.9c2.293-2.018,17.967-22.18,17.885-22.719l.483-5.317Zm53.654.967c-1.205,1.272-1.57.9-.967,2.9v2.417l3.867-1.45-1.45-3.867Zm227.669.967-2.417.967v9.667l13.051-1.45V183.2l-8.217-8.7ZM187.52,177.879c-3.376,1.378-7.4.851-9.184,2.417l.967.967c1.486,3.867,9.845,12.607,14.5,9.184l5.8,4.834,1.933-4.834c-3.372-1.674-4.492-7.9-6.767-11.6Zm76.856,1.45-2.417,1.45h-.967l.483,7.251c2.892-.344,5.683-1.189,7.251-2.9l-1.45-5.8Zm220.9.483c-2.275,13.141-20.982,26.446-34.8,28.036v1.933l1.45,1.45c17.347-1.369,30.923-15.458,34.319-31.419ZM292.9,182.229l-.967,4.35.483.483.967-.967,1.45-.483v-1.45Zm-135.344,2.417c-1.988,12.743,9.469,37.133,19.818,36.736-3.113-17.727-4.676-13.557-14.5-26.585Zm81.207,1.933-10.634,13.534v.483l5.8-.483,6.284-7.734C240.132,190.3,239.88,187.685,238.757,186.579Zm294.857,0c-3.464,1.528-12.721-.183-14.5,2.9-1.621,1.424-.68,7.773-.483,10.151l21.752-1.45C539.336,194.156,537.1,188.558,533.615,186.579Zm-46.4,3.384c-6,10.2-14.476,17.274-25.619,22.235l-13.534,3.384.967,3.384.483-.483C462.763,221.024,489.918,201.976,487.211,189.963Zm-222.835.967-3.384,2.417.483,6.284,6.284-1.933v-2.9l-1.45-3.867Zm28.036,0v4.35l1.45-.483.483-1.933ZM192.354,198.18l3.867,7.251v-.967c1.636-2.551,1.45-4.012,0-6.284Zm369.78,0q3.386,14.018,6.767,28.036l1.45-2.417C567.649,214.3,569.621,202.992,562.134,198.18Zm-323.376,1.45.967.483Zm53.654,0v3.384l1.934-1.45Zm-27.069,2.417-3.867,2.417,1.45,7.251,5.8-3.867C268.335,205.135,267.62,203.014,265.343,202.047Zm220.418.967c-7.347,10.638-21.771,19.09-39.153,19.335l-.483,1.45.967,1.45C460.911,225.394,487.743,214.422,485.761,203.014Zm-67.189.967.967.967Zm1.45.483c1.266,1.483,1.516,1.509,2.9.483h-.967Zm-262.471,2.417c-.2,8.251,4.36,22.071,11.6,24.169l5.317-4.35v-1.45C166.669,221.756,162.727,213.136,157.551,206.881Zm135.828,0v3.384l1.934-.483v-1.45Zm123.26.967a9.74,9.74,0,0,0,6.284,2.9v-.967Zm-2.417,3.384a13.525,13.525,0,0,0,8.7,4.834l-.967-1.933Zm158.546,0-1.45.967q.964,6.526,1.933,13.051c.324-.322.643-.644.967-.967-.44-3.349,1.039-10.365-.967-13.051Zm-87.974.967c-5.652,8.691-17.4,13.284-29,15.951l-13.051.967v2.417l.483.967c13.744.348,26.464-2.6,34.8-10.151C480.1,220.475,487.363,215.111,484.794,212.2Zm-217.518.967-3.867,2.417,1.45,6.284,5.317-3.384v-1.45Zm148.879,4.35a14.3,14.3,0,0,0,6.767,3.867V220.9Zm-5.8.483c1.9,3.984,7.748,8.174,12.568,9.184v-1.933C417.937,224.024,414.212,220.531,410.355,218Zm-197.216.967-3.384,30.452-10.151,1.45,1.45,14.018,12.568-1.45c-1.6-12.184-2.72-19.131-.483-30.936l28.036-2.9.483-1.933-.483-7.734-.483-.967C229.6,218.97,221.226,221.492,213.139,218.965Zm380.414,2.417c-.159.161-.324.322-.483.483.324.322.643.644.967.967v-1.45Zm-324.343,1.45-3.384,2.9,1.45,5.8h1.45l3.867-3.867C271.938,225.466,271.04,223.879,269.21,222.832Zm249.42,2.9v5.8l1.45-.483C520,228.42,519.5,226.386,518.63,225.733ZM159.484,228.15c.657,2.659.631,2.742,3.384,3.384l-.967-1.45C161.017,228.4,161.493,228.784,159.484,228.15Zm78.306,5.317c-3.308,2.8-22.453-.864-21.268,5.317v27.552a32.673,32.673,0,0,1-10.151,1.934v2.9l1.933,9.667,1.45-.483c2.255.219,9.012-.532,10.634-3.384-3.464-10.852-1.826-19.105-3.384-28.519,5.9-4.983,19.748-1.524,24.652-6.767V233.95h-.967Zm33.353,0-1.933,1.45c.393,3.239,1.41,6.046,3.384,7.734v-9.184Zm120.843,0c-.361,5.092-.971,7.544.483,11.6h.483l.483-.483Zm8.7,2.9.483,4.35H403.1v-.483C402.186,238.416,402.319,237.491,400.687,236.367Zm-4.35,1.933.967.483Zm-206.4.483c-18.738,27.456-24.227,18.516-47.371,4.35-1.585.615-.58.443-2.417.483v2.9c1.811,6.067,4.3,13.529,9.184,16.435,12.339,7.347,43.771,8.2,45.92-13.051-2.32.21-2.981-.459-4.35-2.417C191.081,244.555,191.348,240.237,189.937,238.784Zm177.881,0-.483,1.933h.483l.483-1.45Zm-75.406.967c-.87,4.07,1.025,7.191-1.934,9.184-2.842,1.925-6.89-.012-9.184,2.417.641,2.659.461,3.948,2.417,5.317l10.634-1.45v-1.933Zm104.408,0c.2,2.525-.317,1.926,1.45,2.9l-.967-.967C397.449,240.031,397.9,240.966,396.82,239.75ZM365.4,241.684l-.483.967h.967Zm-103.925.483a11.651,11.651,0,0,1-1.45,7.251c-3.365.457-8.2-.236-10.151,1.933l1.45,8.217,12.568-1.45v-.483C263.221,253.094,263.554,244.431,261.476,242.167Zm102.475.483-6.284,5.317c2.862-1.268,6.139-3.3,6.767-5.317ZM239.241,247c-5.011,2.507-11.663,4.844-16.435,4.834V249.9l-1.45.483c-1.86,7.927,5.677,25.4,1.45,30.452-1.934,2.063-6.514,1.6-8.7,3.384l4.35,14.018,11.6-3.867c-2.61-8.2-7.452-22.9-6.284-30.452l23.2-7.734-.483-5.8C243.273,249.245,242.362,247.688,239.241,247ZM371.2,247l-1.45,2.417h.483c1.261-1.15,1.248-1.329,1.45-2.417Zm-193.832.483L170.6,249.9l1.45,2.417h1.933l4.35-3.867Zm178.848.483-.967.483v.483Zm-2.9.967.967.483Zm-1.45.483.967.483Zm16.918,0-.967,1.45C369.335,250.01,368.531,250.38,368.785,249.418Zm-92.808.483,1.933,3.384v-2.9Zm99.091,0-.483.967.967-.967Zm-210.267.483V252.8l1.45.483.967-.483-1.933-2.417Zm202.05.483-.483,1.45,1.45-.483-.483-.967Zm13.051.483-.483.967.967-.967Zm-7.251.967-.483.967.967-.967Zm5.317.483-.483.967.967-.967Zm-15.468.967.967.483Zm-64.772.483v3.384l-.967.483c-3.147.752-5.151,1.239-7.251.967l-2.417,1.45.967,4.35h1.45l10.634-2.417v-.483C299.9,259.3,299.383,255.653,297.729,254.252Zm4.834,1.45,1.45,7.251c-2.413,3.114-5.248,3.7-9.667,4.834l1.45,5.8,11.118-2.9.483-2.417Zm-106.825,1.933c-1.879,3.451-5.1,4.837-7.251,7.734-16.039,21.643-22.895,3.915-43.02,0v.483c6.361,22.03,30.118,29.145,47.854,13.051,3.153-2.861,6.371-4.99,7.251-10.151C195.818,266.454,198.873,261.2,195.737,257.635Zm71.539.483c-.012,1.48.465.677-.483,1.933-1.989,2.827-6.931,2.475-10.151,2.9l-.483.967c.537,2.227.638,5.176,2.417,7.251l11.6-3.384C269.316,264.8,269.109,260.2,267.276,258.119Zm14.985,1.933.967,2.417h.483v-1.45Zm-35.77.483c-4.758,2.675-16.327,3.867-18.852,7.734l5.8,27.552c-2.457,2.712-7.859,1.97-8.7,6.284l4.35,11.118,11.6-4.35c-1.037-4.631-11.229-27.534-7.734-29.969l20.3-9.184-.967-6.284C248.445,263.2,248.679,262.11,246.491,260.536Zm26.585,2.9c.327,2.18.116,1.872,1.45,2.9v-.483Zm36.736,1.45c1.091,3.491,1.816,5.566,0,8.7l-7.251,1.933-.483.967,1.933,4.834,11.6-4.35C314.977,273.463,312.375,266.752,309.813,264.886Zm-36.253,1.934c-.027,2.194-.1,2.778-.967,3.867-1.851,2.156-6.6,2.4-8.7,2.9a16.249,16.249,0,0,0,2.9,9.667l11.6-3.867V278.9l-4.35-12.084Zm15.468,1.45-.483,1.45,2.9,2.417-.967-3.867Zm28.519,2.417c.609,1.461-.009.58.967,1.45l-.483-1.45Zm.483,1.933c.906,3.208,1.249,3.867.483,7.251l-7.734,3.867,2.417,4.834,11.118-5.8C323.233,279.682,320.737,274.2,318.03,272.62Zm-64.772.967c-5.153,3.829-12.1,6.961-17.4,7.734.624,5.046,10.03,28.041,7.734,30.452l-7.734,3.867,5.8,12.084a23.481,23.481,0,0,0,11.118-5.8c-3.354-9.039-11.512-19.036-11.6-29,6.512-1.873,17.615-7.976,20.785-12.084l-2.417-5.317C258.567,274.434,255.666,273.72,253.259,273.587Zm-51.238.967c-4.094,8.069-8.416,26.315-24.652,22.235-7.2-1.808-13-9.909-22.719-8.217l-.483,1.934c5.272,4.864,5.529,11.126,14.018,15.951,18.825,10.7,36.7-6.835,42.053-21.752-3.215-.02-3.474-.639-5.8-2.417-.029-3.375-.3-5.823-1.933-7.734ZM281.778,276v5.8l-9.184,3.384v1.934l3.384,6.767,11.118-4.35A29.658,29.658,0,0,0,281.778,276Zm45.92,5.317-.483,4.35-7.734,4.35.967.967,1.933,2.9,9.667-6.284v-1.45C330.435,284.507,329.827,282.519,327.7,281.321Zm-38.186,2.9.967,1.45C289.87,284.21,290.487,285.091,289.511,284.221Zm45.92.483.483,3.867c-1.569,2.265-4.609,4.2-7.251,5.317l.483,2.417,2.9,1.934,8.7-6.767C339.942,288.626,337.528,286.288,335.432,284.7Zm-143.078.483-8.217,4.35.483.967,3.384.967c1.948-1.969,3.884-3.246,4.834-6.284Zm69.606.483c-4.093,3.577-14.746,5.54-16.435,11.118l7.251,15.468-2.417-7.251,20.3-14.018-1.934-4.35Zm28.519.483a19.067,19.067,0,0,1,.483,5.317l-8.7,4.35,4.35,7.734,10.634-5.317C296.772,294.4,293.324,287.8,290.478,286.154Zm-110.692,4.834c.512,1.765.393,1.422,1.45,2.417l.967-.483Zm40.12,10.634-4.834-.967-2.417-8.7h-.483c-7.573,7.543-5.172,20.8-18.852,24.652-7.76,2.187-19.374-8.046-28.519-5.8C172.406,339.48,219.229,328.933,219.906,301.622Zm50.754-6.284-15.951,11.6c3.674,7,13.375,19.468,13.534,27.552l-7.734,5.317,7.251,10.151h.483l9.184-7.251c-2.1-7.224-17.124-19.586-15.951-26.586l18.368-15.468-.967-3.384C274.151,297.55,275.12,296.347,270.66,295.338Zm30.936.967c-2.03,5.531-5.529,5.177-9.184,8.7l3.867,6.284,1.45-.483,9.184-6.767Zm-138.245,3.867.483.967ZM310.3,302.589c.6,6.406-5.414,5.567-7.734,10.151v.483l4.834,4.834h.483l9.184-7.734C315.313,307.471,313.148,304.359,310.3,302.589Zm-109.242,2.417c-1.461,1.454-2.922,1.784-3.867,3.867l1.933.483,3.384-3.384-.483-.967Zm21.268,2.9c-7.56,39.29-18.667,21.22-43.987,23.2l-.483,1.45c10.156,16.374,34.752,18.715,46.887,3.384,4.3-5.426,5.075-11.724,7.251-18.368C222.69,315.073,228.031,312.573,222.323,307.906ZM191.87,309.84l-1.45.967,2.417,1.933,1.45-.483-.483-1.45Zm60.9,2.9,1.933,3.867h.483v-.483Zm2.417,4.35.967,1.933Zm1.45,1.933v4.834l-8.217,5.317a24.164,24.164,0,0,0,6.284,10.151l10.151-6.284Zm-42.537,2.417-3.384,3.384v.483c3.4-.118,2.707-.3,3.867-3.384Zm29,10.151c-4.9-.483-6.444-4.848-7.734-8.7l-.967.483c-2.875,28.865-22.646,28.252-43.5,25.619v.483l.967.967C201.466,374,243.7,358.989,243.108,331.591Zm-38.186-3.867-5.317,2.417v.483l.483.483c4.012.114,7.2-.512,9.184-2.417Z" transform="translate(-132.804 -29)"/></svg>