<svg xmlns="http://www.w3.org/2000/svg" width="502.512" height="146.031" viewBox="0 0 502.512 146.031"><defs><style>.a{fill:#fff;}</style></defs><path class="a" d="M434.038,627.8q-.869-.853-2.472-2.571-2.285,4.3-4.8,8.227t-6.307,9.152q-2.616,3.539-4.956,6.388t-5.011,5.728q-2.67,2.88-6.042,6.08t-7.913,7.436c-1.224,1.165-2.251,2.113-3.07,2.845s-1.6,1.4-2.349,1.99-1.487,1.186-2.234,1.78-1.612,1.288-2.605,2.077l1.638-4.113,4.68-11.929q1.636-4.115,3.152-8.089t3.044-7.812c.356-1,.654-1.89.9-2.662a21.348,21.348,0,0,1,.923-2.4q1.286-3.555,1.892-5c.4-.963.711-1.761.923-2.4.142-.363.31-.756.494-1.167s.424-.987.715-1.721c-1.3-.681-2.573-1.436-3.838-2.255a38.558,38.558,0,0,1-3.893-2.915c-.371.828-.647,1.494-.823,1.992s-.359,1-.533,1.5-.376,1.071-.586,1.706-.49,1.5-.838,2.588q-.633,1.913-1.271,3.753c-.426,1.228-.853,2.44-1.283,3.621q-1.251,3.956-3.176,9.352t-5.045,13.881q-2.368,6.431-4.4,12.1t-3.549,9.647l-1.322,3.161c.645.3,1.1.526,1.383.679s1.016.53,2.217,1.135l2.5,1.377a3.633,3.633,0,0,0,.422.295l.838.522c.651-.668,1.222-1.25,1.71-1.733s1.04-.993,1.659-1.532,1.332-1.2,2.149-1.973,1.922-1.8,3.318-3.068c.815-.774,1.82-1.68,3.015-2.707s2.363-2.079,3.509-3.151,2.27-2.115,3.378-3.138l2.762-2.554c1.3-1.26,2.37-2.276,3.184-3.055s1.653-1.6,2.508-2.467,1.867-1.9,3.049-3.11,2.781-2.866,4.81-4.981a38.432,38.432,0,0,1,2.8-2.89q-1.13,2.348-1.907,4.071t-1.614,3.583q-.837,1.862-1.878,4.4t-2.7,6.392l-7.574,18.406q-.665,1.515-1.6,3.781t-1.6,3.78q-1.212,2.886-1.918,4.669t-1.266,3.025c-.373.825-.666,1.513-.885,2.06s-.439,1.054-.666,1.517l-1.322,3.161-1.32,3.159q-2.336,5.238-3.108,7.092c-.513,1.237-.838,2.079-.976,2.535a11.276,11.276,0,0,1-.6,1.508c-.265.554-.579,1.241-.953,2.071l1.1.435a26.4,26.4,0,0,1,2.421,1.186l2.718,1.557,1.262.819,1.646-3.984,6.57-16.2q1.091-2.75,2.085-5.081t2.194-5.357q.872-2.2,1.25-3.221a14.336,14.336,0,0,1,.66-1.581c.189-.371.339-.692.448-.965s.274-.687.49-1.234l8.013-19.5c.437-1.1.857-2.1,1.264-3.025s.83-1.926,1.267-3.023q1.769-4.127,2.478-5.911t1.375-3.3l6.068-14.3,2.327-5.368q1.648-3.981,2.312-5.5a23.647,23.647,0,0,1,1.245-2.489,13.92,13.92,0,0,1,.617-1.313q.4-.761.965-1.871l-1.284-1.084C435.572,629.219,434.619,628.372,434.038,627.8Zm-52.991,13.4q2.189-5.353,3.884-8.813l-.986-.709L381.5,629.5c-.95-.8-1.619-1.362-2-1.687a13.333,13.333,0,0,1-1.154-1.095l-2.932,2.9q-6.218,6.365-10.661,10.983t-8.189,8.849q-3.752,4.229-7.347,8.643t-8.151,10.107q1.3-3.424,2.308-6.36t2.2-6.085q1.187-3.15,2.662-6.855t3.558-8.785q3.077-7.418,4.945-11.953t3.316-7.7l5.255-11.45,1.341-2.9a15.518,15.518,0,0,1-1.591-.791c-.694-.382-1.458-.76-2.283-1.131-.367-.146-.989-.422-1.861-.836a14.655,14.655,0,0,1-2.158-1.207l-1.453,3.172q-1.9,4.137-3.94,8.953t-4.126,9.893q-1.429,3.434-2.624,6.52t-2.385,6.233q-1.19,3.154-2.48,6.64t-2.786,7.722q-1.193,3.157-2.406,6.768t-2.491,7.3q-1.276,3.688-2.444,7.1t-2,6q-1.384,3.961-2.285,6.621t-1.591,4.644q-.7,1.979-1.4,3.762t-1.57,4.112c.182.072.477.18.889.32s1.39.5,2.94,1.076q1.636.519,2.387.791a7.957,7.957,0,0,1,1.169.494l1.464-3.038q1.559-3.446,2.688-5.8t2.219-4.232c.734-1.256,1.513-2.467,2.34-3.647s1.837-2.561,3.025-4.167q3.914-5.369,8.52-11.2T360.7,655.927q1.7-1.865,2.957-3.367t2.419-2.724q1.155-1.222,2.38-2.389t2.692-2.616q-1.091,2.746-1.631,4.182t-1.171,3.348q-1.508,4.105-3.074,9.008t-2.7,8.713q-2.288,7.351-4.033,14.061t-3.375,14q2.31.729,4.222,1.364T363.618,701l.857-3.916q.652-3.236,1.228-5.8c.386-1.708.732-3.308,1.05-4.792s.677-2.949,1.082-4.4.849-2.989,1.328-4.621q.694-2.708,1.678-5.974t2.015-6.668q1.034-3.4,2.085-6.6t2.013-5.936Q378.85,646.56,381.047,641.2Zm-56.222,26.665a14.831,14.831,0,0,0-4.271-9.64q-3.765-3.724-11.63-5.832a42.471,42.471,0,0,0-4.464-1.08q-2.425-.455-5.974-.883t-8.495-.931q-4.945-.5-12.021-1.093-1.47-.14-2.873-.286t-2.743-.295q-2.807-.29-3.948-.458t-1.954-.365q-4.872-1.174-5.128-4.2-.27-3.16,4.158-7.181a44.451,44.451,0,0,1,11.7-7.294q3.835-1.652,8.147-3.148t8.588-2.652q4.274-1.161,8.444-1.979a71.749,71.749,0,0,1,7.724-1.125q12.63-1.075,12.977,3,.124,1.448-2.16,3.431a33.149,33.149,0,0,1-6.729,4.218q-2.543,1.279-4.326,2.094t-3.831,1.719q-2.043.9-4.737,1.929t-6.806,2.567a30.85,30.85,0,0,1-3.078,1.19q1,.843,1.576,1.392t1.873,1.761a17.991,17.991,0,0,0,1.313,1.411c.382.367.866.832,1.443,1.4q6.161-2.38,10.451-4.139a85.265,85.265,0,0,0,8.342-3.959q8.751-4.592,12.205-8.4a10.775,10.775,0,0,0,3.059-8.412q-.4-4.738-6.356-6.944t-15.824-1.368q-4.6.391-9.43,1.271t-9.693,2.151q-4.859,1.276-9.362,2.853t-8.327,3.36q-10.32,4.856-15.46,10.663t-4.61,11.987q.643,7.5,10.888,9.542,5.244.882,12.735,1.7,6.81.608,11.422,1.08t7.695.868q3.084.4,5.174.817c1.392.278,2.673.547,3.844.8q6.088,1.464,9.006,3.8a8.064,8.064,0,0,1,3.206,5.758q.4,4.738-3.655,9.193t-13.075,9.067a113.3,113.3,0,0,1-10.709,4.956q-5.639,2.269-11.452,4.025T266,699.127a101.025,101.025,0,0,1-11.127,1.612q-7.765.665-12.195-.812t-4.725-4.9q-.191-2.237,2.155-5.022a27.113,27.113,0,0,1,6.628-5.4q7.663-4.894,23.912-8.666,2.2-.586,4.292-.963t4.576-.721q2.485-.344,5.635-.745t7.489-.772c-.208-.329-.359-.575-.46-.74s-.208-.331-.308-.5l-1.57-2.864-1.275-2.5c-.182-.07-.346-.448-.494-1.137l-3.528.569q-12.541,2.126-21.09,4.44a88.454,88.454,0,0,0-14.664,5.213q-20.535,9.416-19.505,21.48.538,6.295,7.226,9.356t17.872,2.106a104.469,104.469,0,0,0,11.781-1.735q6.256-1.26,12.6-3.061t12.43-4.175a116.224,116.224,0,0,0,11.3-5.072q12.191-6.209,17.36-12.415A18.47,18.47,0,0,0,324.824,667.869Zm215.515-30.58-1.247-3.738-1.173.231q-1.438.258-2.223.322c-.528.044-1.4.166-2.62.356l-1.184.1-.219-4.09-.057-2.249-.193-2.236c-.028-1.324-.049-2.38-.074-3.174s-.055-1.432-.1-1.914-.072-.834-.089-1.052-.04-.46-.062-.724q.038-2.654-.038-5.9t-.153-7.209q-.073-2.38-.03-4.239c.026-1.239.062-2.391.1-3.454s.089-2.083.136-3.059.108-2.085.18-3.329c-.726-.2-1.339-.393-1.837-.573a20.227,20.227,0,0,1-2.117-.946l-2.455-1.248-1.222-.558q-1.591,2.788-2.5,4.387t-2.2,3.566q-3.392,5.327-7.548,11.711t-8.643,12.863l-10.291,14.53-3.664,5.215c-1.742.329-3.046.524-3.925.6s-2.016.219-3.409.422q-4.713.671-8.386,1.116c-2.45.295-4.283.543-5.5.734l-8.686.74-2.486.344a27.748,27.748,0,0,1,1.313,3.732q.48,1.817,1.245,4.534c.7-.062,1.337-.136,1.9-.231s1.069-.155,1.508-.193l7.992-1.08,11.535-1.515q-1.317,1.705-1.965,2.62c-.435.613-.936,1.252-1.494,1.916q-.834,1.136-2.024,2.692t-2.506,3.261q-1.311,1.7-2.631,3.339t-2.4,2.921q-2.393,2.985-3.411,4.266T463.5,673.4l-7.977,9.029a11.406,11.406,0,0,0-1.214,1.294q-.843,1.005-2.166,2.571,2,1.686,2.868,2.54a32.023,32.023,0,0,1,2.351,2.715l.891,1.116,2.648-3.142q6.17-6.887,11.444-13.431t9.767-12.895l11.057-14.859,2.741-.5q2.485-.344,4.445-.713t3.855-.658q1.893-.293,3.857-.594c1.311-.2,2.832-.42,4.585-.658q2.221-.318,3.732-.518t2.752-.365c.829-.116,1.636-.25,2.419-.407s1.693-.318,2.737-.5l.182,3.7.573,11.348c.113,1.315.229,2.943.35,4.873s.244,3.912.376,5.934.244,3.933.354,5.733.21,3.229.3,4.283q.2,2.368.388,3.808t.513,3.668a52.594,52.594,0,0,1,4.837-2.268q2.46-1.006,4.245-1.555-.512-2.87-.785-5.3t-.6-4.72q-.331-2.288-.6-4.72c-.187-1.617-.358-3.394-.522-5.323L532.7,647.218l-.392-4.606,2.226-.325c.957-.167,1.74-.282,2.357-.333s1.052-.091,1.315-.113c.613-.051,1.16-.1,1.644-.14s1.165-.055,2.052-.042q-.671-1.664-.948-2.569C540.772,638.488,540.564,637.887,540.339,637.289Zm-18.387-1.15a8.617,8.617,0,0,0-1.3.31l-9.176,1.18-8.9,1.292c-.176.015-.524.066-1.046.155s-1.224.17-2.1.244q1.06-1.547,1.706-2.531c.429-.653.726-1.078.885-1.267l7.2-10.421q1.057-1.549,2.7-4.075t3.882-5.764l5.618-8.694,2-2.955-.089,3.583c.017,2.3.023,4.438.017,6.428s.015,3.821.072,5.495l.3,12.829c.023.263.059.7.112,1.315a16.188,16.188,0,0,1-.049,2.523C523.082,635.933,522.474,636.05,521.952,636.139Zm150.227-10.9q.983-2.469,2.158-5.021t2.639-5.59l1.012-2.075-.942-.182-3.072-.272-3.367-.641a5.527,5.527,0,0,0-1.46-.006q-2.008,4.414-3.755,8.007t-3.573,7.065q-1.827,3.472-3.912,6.958t-4.536,7.411q-2.1,3.364-3.925,6.034t-3.549,5.009q-1.722,2.336-3.588,4.547t-4.164,4.8a64.618,64.618,0,0,1-5.429,5.5,6.381,6.381,0,0,1-3.229,1.733,2.02,2.02,0,0,1-1.788-.776,3.977,3.977,0,0,1-.861-2.31,20.394,20.394,0,0,1,1.086-7.449,61.67,61.67,0,0,1,4.186-9.965,70.855,70.855,0,0,1,6.248-9.878,98.269,98.269,0,0,1,8.772-9.825q2.686-2.616,4.9-4.727t4.559-4.033q2.352-1.922,5.1-3.88t6.384-4.389l3.265-2.134a7.821,7.821,0,0,0-.477-.887l-1.167-2.815-1.343-3.331q-5.041,3.081-9.167,5.951t-7.727,5.76q-3.6,2.893-6.787,5.881t-6.352,6.307a90.745,90.745,0,0,0-8.488,10.8,85.832,85.832,0,0,0-6.4,11.217,53.918,53.918,0,0,0-3.851,10.8,30.5,30.5,0,0,0-.855,9.416,10.988,10.988,0,0,0,2.919,7.039A7.591,7.591,0,0,0,628,677.517q5.127-.436,11.547-6.751t15.343-19.8l2.809-4.349-4.455,14.562-3.785,11.586-.838,2.588,4.377.028c.617.034,1.262.068,1.929.1s1.487.091,2.467.187l.806-2.985,2.664-10.7c.276-.906.475-1.676.6-2.3s.426-1.714.917-3.259c.416-1.362.8-2.741,1.169-4.141s.757-2.781,1.173-4.141q1.219-4.344,2.2-7.61t1.723-5.448q.84-2.587,1.7-4.981T672.179,625.241Zm-41.955-5.1q3.4-3.672,7.186-7.44l-1.536-.929q-1.55-1.06-2.465-1.71t-2.489-1.975l-1-.842c-.554.755-.993,1.343-1.307,1.767s-.518.687-.6.781L618.3,621.755q-2.4,2.985-6.027,7.8t-7.054,9.746q-1.782,2.409-3.252,4.587t-2.877,4.351q-1.4,2.177-2.979,4.7t-3.433,5.592l-2.788,4.614a20.815,20.815,0,0,0,.034-2.722,8.1,8.1,0,0,1,0-1.525l.463-16.338q-.032-1.855.085-4.447t.151-5.183q.048-2.587.112-4.914t.2-3.925q.115-3.322.318-5.595t.7-5.758l.322-2.414-1.216-.293-2.58-.709a9.38,9.38,0,0,1-1.356-.348c-.543-.172-1.177-.363-1.9-.567a12.945,12.945,0,0,0-.753,1.258c-.191.369-.363.692-.513.972l-4.7,8.618-5.683,9.5L565.487,642.7q-1.162,1.954-2.257,3.836t-2.376,3.98q-1.283,2.1-2.8,4.479t-3.475,5.465q.166-2.66.225-4.26t.066-3.053q.029-1.193.072-2.989t.062-3.846c.017-1.37.028-2.788.032-4.243s0-2.807-.019-4.042q-.06-3.838-.07-5.495c-.008-1.105-.008-2.141,0-3.114l-.507-12.148.074-2.259-1.606-.263-3.169-.39a6.132,6.132,0,0,0-1.4-.344c-.575-.083-1.262-.225-2.06-.422l-1.063-.174.28,3.29q.643,7.5.987,16.149t.675,20.154q.032,5.034.078,8.673t-.093,6.7q-.134,3.065-.426,5.868t-.689,5.892a16.416,16.416,0,0,1,3.367.641l2.556.84.942.318a145.3,145.3,0,0,1,6.074-14.235q3.427-6.982,8.664-15.517l6.153-10.2q1.505-2.518,2.667-4.472t2.211-3.632q1.047-1.68,2.155-3.432t2.52-3.859l-.167,4.256-.365,14.344-.422,13.686q-.159,4.388-.255,7.113t-.193,4.723c-.066,1.328-.161,2.531-.291,3.6s-.308,2.368-.53,3.889l3.566,1.417a13.3,13.3,0,0,1,1.651.658c.639.295,1.47.713,2.488,1.243q.656-1.645,1.224-2.754t1.133-2.217c.382-.74.779-1.5,1.2-2.289s.933-1.738,1.547-2.849q3.57-6.266,7.656-12.778t7.5-11.441q4.016-5.779,7.527-10.45t6.869-8.8Q626.825,623.811,630.223,620.143Zm100.7-14.889q-2-1.683-2.868-2.537t-2.474-2.571q-2.282,4.3-4.795,8.227t-6.311,9.152q-2.613,3.539-4.956,6.388t-5.011,5.728q-2.67,2.88-6.04,6.08t-7.915,7.436q-1.836,1.747-3.07,2.845c-.821.732-1.6,1.4-2.349,1.99s-1.487,1.186-2.232,1.78-1.614,1.287-2.605,2.079l1.634-4.116,4.684-11.929q1.636-4.115,3.151-8.089t3.044-7.814q.534-1.5.9-2.66a21.9,21.9,0,0,1,.921-2.4q1.286-3.555,1.895-5t.921-2.4c.144-.363.31-.755.494-1.167s.424-.987.715-1.721q-1.941-1.025-3.838-2.255a39.343,39.343,0,0,1-3.893-2.915c-.371.828-.645,1.494-.821,1.992s-.359,1-.535,1.5-.371,1.071-.583,1.706-.492,1.5-.84,2.588q-.633,1.913-1.269,3.753t-1.281,3.621q-1.257,3.956-3.18,9.352t-5.045,13.881q-2.361,6.431-4.4,12.1t-3.549,9.647L668.1,662.7q.967.449,1.383.679c.28.153,1.016.53,2.219,1.133l2.5,1.379a3.814,3.814,0,0,0,.422.295c.187.117.469.291.842.524.647-.67,1.218-1.252,1.708-1.735s1.042-1,1.657-1.532,1.332-1.2,2.151-1.973,1.92-1.8,3.316-3.068q1.225-1.162,3.015-2.709t3.507-3.148c1.146-1.069,2.276-2.115,3.38-3.138s2.028-1.873,2.764-2.554q1.957-1.89,3.186-3.055t2.506-2.467q1.279-1.3,3.047-3.11t4.809-4.984a38.93,38.93,0,0,1,2.8-2.887q-1.127,2.349-1.905,4.071T709.793,638q-.834,1.862-1.878,4.4t-2.7,6.392L697.641,667.2q-.668,1.511-1.6,3.781t-1.6,3.78q-1.212,2.886-1.92,4.669t-1.264,3.023c-.373.827-.666,1.515-.885,2.062s-.439,1.054-.666,1.517l-1.322,3.161-1.318,3.159q-2.339,5.235-3.106,7.092c-.516,1.237-.84,2.079-.976,2.535a11.613,11.613,0,0,1-.6,1.508c-.263.554-.579,1.241-.948,2.071l1.1.435a26.673,26.673,0,0,1,2.419,1.186q.907.519,2.72,1.557l1.26.819,1.651-3.984,6.568-16.2q1.091-2.75,2.086-5.083t2.192-5.355q.872-2.2,1.252-3.22a14.307,14.307,0,0,1,.66-1.581c.189-.371.337-.692.448-.965s.274-.685.492-1.235l8.009-19.5c.437-1.1.857-2.1,1.264-3.026s.83-1.926,1.267-3.023q1.769-4.124,2.478-5.911t1.377-3.3l6.07-14.3,2.321-5.368q1.652-3.981,2.317-5.5a23.939,23.939,0,0,1,1.245-2.491,13.33,13.33,0,0,1,.615-1.313c.265-.509.588-1.131.967-1.871Z" transform="translate(-229.693 -588.615)"/></svg>